SplineFontDB: 3.0
FontName: DEVA-Panini
FullName: DEVA Panini Normal
FamilyName: DEVA Panini
Weight: Normal
Copyright: Copyright (c) 2009-2015, NLCI (http://www.nlci.in/fonts/)
Version: 0.8 beta Feb 26, 2011 
ItalicAngle: 0
UnderlinePosition: -524.288
UnderlineWidth: 38.912
Ascent: 1638
Descent: 410
InvalidEm: 0
LayerCount: 2
Layer: 0 0 "Back" 1
Layer: 1 0 "Fore" 0
XUID: [1021 397 892166092 5830399]
FSType: 0
OS2Version: 1
OS2_WeightWidthSlopeOnly: 0
OS2_UseTypoMetrics: 1
CreationTime: 1258090193
ModificationTime: 1526443021
PfmFamily: 81
TTFWeight: 400
TTFWidth: 5
LineGap: 0
VLineGap: 0
Panose: 5 0 0 0 0 0 0 0 0 0
OS2TypoAscent: 1784
OS2TypoAOffset: 0
OS2TypoDescent: -913
OS2TypoDOffset: 0
OS2TypoLinegap: 0
OS2WinAscent: 1805
OS2WinAOffset: 0
OS2WinDescent: 390
OS2WinDOffset: 0
HheadAscent: 1805
HheadAOffset: 0
HheadDescent: -390
HheadDOffset: 0
OS2SubXSize: 1434
OS2SubYSize: 1331
OS2SubXOff: 0
OS2SubYOff: 293
OS2SupXSize: 1434
OS2SupYSize: 1331
OS2SupXOff: 0
OS2SupYOff: 928
OS2StrikeYSize: 102
OS2StrikeYPos: 530
OS2Vendor: 'Alts'
OS2CodePages: 00000001.00000000
Lookup: 1 0 0 "'locl' to Nepali" { "'locl' Jha to nep"  } ['locl' ('dev2' <'NEP ' > 'deva' <'NEP ' > ) ]
Lookup: 1 0 0 "'locl' to Hindi" { "'locl' to Hindi-1" ("nep") } ['locl' ('dev2' <'HIN ' 'dflt' > 'deva' <'HIN ' 'dflt' > ) ]
Lookup: 4 0 0 "'akhn' Akhand lookup 1" { "'akhn' Akhand lookup 1-1"  } ['akhn' ('DFLT' <'dflt' > 'deva' <'HIN ' 'NEP ' 'dflt' > ) ]
Lookup: 4 0 0 "'rphf' Reph Form lookup 3" { "'rphf' Reph Form lookup 3-1"  } ['rphf' ('DFLT' <'dflt' > 'cyrl' <'dflt' > 'deva' <'HIN ' 'NEP ' 'dflt' > 'latn' <'dflt' > ) ]
Lookup: 4 0 0 "'blwf' Below Base Forms lookup 5" { "'blwf' Below Base Forms lookup 5-1"  } ['blwf' ('DFLT' <'dflt' > 'dev2' <'HIN ' 'NEP ' 'dflt' > 'deva' <'HIN ' 'NEP ' 'dflt' > ) ]
Lookup: 4 0 0 "'half' Half Forms lookup 2" { "'half' Half Forms lookup 2-1"  } ['half' ('DFLT' <'dflt' > 'cyrl' <'dflt' > 'deva' <'HIN ' 'NEP ' 'dflt' > 'latn' <'dflt' > ) ]

StartChar: .notdef
Encoding: 222 -1 0
Width: 1122
VWidth: 1596
Flags: HW
HStem: 0 66<169 953> 1113 65<169 953>
VStem: 102 67<66 1113> 953 67<66 1113>
LayerCount: 2
Fore
SplineSet
102 0 m 1
 102 1178 l 1
 1020 1178 l 1
 1020 0 l 1
 102 0 l 1
953 66 m 1
 953 1113 l 1
 169 1113 l 1
 169 66 l 1
 953 66 l 1
EndSplineSet
EndChar

StartChar: quotedbl
Encoding: 2 34 3
Width: 698
VWidth: 2097
GlyphClass: 2
Flags: HW
LayerCount: 2
Fore
SplineSet
198 883 m 1
 164 883 l 1
 90 1395 l 1
 90 1428 98 1452 114 1470 c 128
 130 1488 151 1497 180 1497 c 0
 209 1497 231 1488 246 1470 c 128
 261 1452 268 1428 268 1395 c 1
 198 883 l 1
535 883 m 1
 501 883 l 1
 430 1395 l 1
 430 1428 438 1452 453 1470 c 128
 468 1488 489 1497 518 1497 c 0
 547 1497 570 1488 585 1470 c 128
 600 1452 608 1428 608 1395 c 1
 535 883 l 1
EndSplineSet
EndChar

StartChar: numbersign
Encoding: 3 35 4
Width: 1558
VWidth: 2097
GlyphClass: 2
Flags: HW
LayerCount: 2
Fore
SplineSet
680 883 m 1
 577 583 l 1
 881 583 l 1
 984 883 l 1
 680 883 l 1
1099 883 m 1
 1000 583 l 1
 1338 583 l 1
 1338 478 l 1
 963 478 l 1
 786 -48 l 1
 682 -14 l 1
 845 478 l 1
 541 478 l 1
 362 -48 l 1
 260 -12 l 1
 428 478 l 1
 130 478 l 1
 130 583 l 1
 462 583 l 1
 564 883 l 1
 224 883 l 1
 224 990 l 1
 600 990 l 1
 768 1485 l 1
 874 1451 l 1
 713 990 l 1
 1019 990 l 1
 1185 1485 l 1
 1296 1451 l 1
 1137 990 l 1
 1431 990 l 1
 1431 883 l 1
 1099 883 l 1
EndSplineSet
EndChar

StartChar: dollar
Encoding: 4 36 5
Width: 1180
VWidth: 2097
GlyphClass: 2
Flags: HW
LayerCount: 2
Fore
SplineSet
868 358 m 0
 868 396 862 430 850 457 c 128
 838 484 821 508 800 527 c 128
 779 546 754 562 727 575 c 128
 700 588 671 598 642 608 c 1
 642 112 l 1
 671 117 700 125 727 137 c 128
 754 149 779 166 800 186 c 128
 821 206 838 230 850 259 c 128
 862 288 868 320 868 358 c 0
548 1296 m 1
 520 1290 494 1281 470 1268 c 128
 446 1255 426 1240 408 1220 c 128
 390 1200 376 1176 366 1149 c 128
 356 1122 350 1092 350 1057 c 0
 350 1023 356 994 369 969 c 128
 382 944 398 923 417 906 c 128
 436 889 457 874 480 862 c 128
 503 850 526 841 548 833 c 1
 548 1296 l 1
1059 398 m 0
 1059 355 1051 316 1037 280 c 128
 1023 244 1005 211 982 182 c 128
 959 153 933 127 903 105 c 128
 873 83 843 65 812 50 c 128
 781 35 750 22 721 14 c 128
 692 6 665 1 642 0 c 1
 642 -216 l 1
 545 -216 l 1
 545 0 l 1
 519 1 489 3 455 5 c 128
 421 7 385 10 348 14 c 128
 311 18 272 23 233 29 c 128
 194 35 157 44 122 54 c 1
 122 411 l 1
 226 411 l 1
 264 176 l 1
 274 164 289 154 308 145 c 128
 327 136 349 128 375 122 c 128
 401 116 429 111 458 108 c 128
 487 105 516 102 545 102 c 1
 545 633 l 1
 499 643 453 657 407 676 c 128
 361 695 319 720 282 750 c 128
 245 780 215 817 191 860 c 128
 167 903 156 955 156 1015 c 0
 156 1057 161 1096 173 1130 c 128
 185 1164 200 1195 220 1222 c 128
 240 1249 263 1273 289 1293 c 128
 315 1313 343 1332 372 1346 c 128
 401 1360 431 1372 461 1381 c 128
 491 1390 521 1397 548 1401 c 1
 548 1559 l 1
 644 1559 l 1
 644 1407 l 1
 689 1407 733 1404 776 1399 c 128
 819 1394 857 1388 890 1382 c 0
 929 1374 965 1367 1000 1359 c 1
 1000 1028 l 1
 891 1028 l 1
 860 1250 l 1
 827 1286 755 1305 644 1305 c 1
 644 805 l 1
 674 796 706 786 738 776 c 128
 770 766 802 753 833 739 c 128
 864 725 893 708 920 689 c 128
 947 670 971 647 992 620 c 128
 1013 593 1029 560 1041 524 c 128
 1053 488 1059 446 1059 398 c 0
EndSplineSet
EndChar

StartChar: percent
Encoding: 5 37 6
Width: 1803
VWidth: 2097
GlyphClass: 2
Flags: HW
LayerCount: 2
Fore
SplineSet
550 1000 m 256
 550 1055 547 1106 541 1150 c 128
 535 1194 526 1232 513 1263 c 128
 500 1294 483 1318 463 1335 c 128
 443 1352 419 1361 390 1361 c 256
 361 1361 337 1352 316 1335 c 128
 295 1318 278 1294 264 1263 c 128
 250 1232 240 1194 234 1150 c 128
 228 1106 224 1055 224 1000 c 256
 224 945 228 895 234 851 c 128
 240 807 250 769 264 738 c 128
 278 707 295 683 316 666 c 128
 337 649 361 640 390 640 c 256
 419 640 443 649 463 666 c 128
 483 683 500 707 513 738 c 128
 526 769 535 807 541 851 c 128
 547 895 550 945 550 1000 c 256
1575 407 m 256
 1575 462 1572 512 1566 556 c 128
 1560 600 1551 639 1538 670 c 128
 1525 701 1508 725 1488 742 c 128
 1468 759 1444 768 1415 768 c 0
 1387 768 1363 759 1342 742 c 128
 1321 725 1304 701 1290 670 c 128
 1276 639 1266 600 1260 556 c 128
 1254 512 1250 462 1250 407 c 256
 1250 352 1254 301 1260 257 c 128
 1266 213 1276 175 1290 143 c 128
 1304 111 1321 87 1342 70 c 128
 1363 53 1387 44 1415 44 c 0
 1444 44 1468 53 1488 70 c 128
 1508 87 1525 111 1538 143 c 128
 1551 175 1560 213 1566 257 c 128
 1572 301 1575 352 1575 407 c 256
711 1000 m 0
 711 937 704 880 691 826 c 128
 678 772 659 726 632 687 c 128
 605 648 571 617 531 594 c 128
 491 571 444 560 390 560 c 256
 336 560 289 571 249 594 c 128
 209 617 175 648 148 687 c 128
 121 726 101 772 88 826 c 128
 75 880 68 937 68 1000 c 0
 68 1062 75 1121 88 1175 c 128
 101 1229 121 1275 148 1314 c 128
 175 1353 209 1384 249 1407 c 128
 289 1430 336 1441 390 1441 c 256
 444 1441 491 1430 531 1407 c 128
 571 1384 605 1353 632 1314 c 128
 659 1275 678 1229 691 1175 c 128
 704 1121 711 1062 711 1000 c 0
524 0 m 1
 392 0 l 1
 1283 1407 l 1
 1413 1407 l 1
 524 0 l 1
1737 407 m 256
 1737 345 1730 287 1717 233 c 128
 1704 179 1684 133 1657 93 c 128
 1630 53 1596 23 1556 0 c 128
 1516 -23 1469 -34 1415 -34 c 256
 1361 -34 1314 -23 1274 0 c 128
 1234 23 1200 53 1173 93 c 128
 1146 133 1126 179 1113 233 c 128
 1100 287 1093 345 1093 407 c 256
 1093 469 1100 527 1113 581 c 128
 1126 635 1146 681 1173 720 c 128
 1200 759 1234 790 1274 813 c 128
 1314 836 1361 847 1415 847 c 256
 1469 847 1516 836 1556 813 c 128
 1596 790 1630 759 1657 720 c 128
 1684 681 1704 635 1717 581 c 128
 1730 527 1737 469 1737 407 c 256
EndSplineSet
EndChar

StartChar: ampersand
Encoding: 6 38 7
Width: 1466
VWidth: 2097
GlyphClass: 2
Flags: HW
LayerCount: 2
Fore
SplineSet
444 698 m 1
 423 684 404 668 386 651 c 128
 368 634 352 614 338 593 c 128
 324 572 314 550 306 524 c 128
 298 498 294 469 294 438 c 0
 294 391 301 348 317 308 c 128
 333 268 355 233 382 204 c 128
 409 175 442 152 479 136 c 128
 516 120 556 112 598 112 c 0
 630 112 660 115 686 121 c 128
 712 127 736 136 758 147 c 128
 780 158 802 171 821 185 c 128
 840 199 859 213 877 228 c 1
 444 698 l 1
761 1105 m 0
 761 1135 757 1164 749 1191 c 128
 741 1218 729 1242 713 1263 c 128
 697 1284 676 1301 651 1313 c 128
 626 1325 597 1331 564 1331 c 0
 535 1331 509 1326 486 1316 c 128
 463 1306 443 1292 427 1274 c 128
 411 1256 398 1235 389 1211 c 128
 380 1187 376 1162 376 1135 c 0
 376 1100 383 1067 396 1037 c 128
 409 1007 426 979 445 953 c 128
 464 927 485 904 508 882 c 128
 531 860 551 840 570 822 c 1
 601 837 628 854 652 872 c 128
 676 890 695 910 711 933 c 128
 727 956 739 982 748 1010 c 128
 757 1038 761 1070 761 1105 c 0
1038 0 m 1
 1038 50 l 1
 944 156 l 1
 917 134 888 113 859 91 c 128
 830 69 798 50 764 33 c 128
 730 16 692 2 652 -9 c 128
 612 -20 567 -26 518 -26 c 0
 458 -26 402 -15 349 6 c 128
 296 27 250 55 210 92 c 128
 170 129 139 173 116 224 c 128
 93 275 82 330 82 390 c 0
 82 436 88 478 102 516 c 128
 116 554 135 588 160 618 c 128
 185 648 215 675 249 698 c 128
 283 721 321 742 362 759 c 1
 350 771 335 786 315 806 c 128
 295 826 276 851 257 878 c 128
 238 905 221 936 207 970 c 128
 193 1004 186 1040 186 1080 c 0
 186 1133 197 1181 217 1224 c 128
 237 1267 265 1305 301 1336 c 128
 337 1367 379 1392 427 1409 c 128
 475 1426 528 1435 585 1435 c 0
 638 1435 687 1427 732 1411 c 128
 777 1395 816 1373 849 1345 c 128
 882 1317 907 1284 926 1245 c 128
 945 1206 954 1164 954 1118 c 0
 954 1067 946 1022 928 984 c 128
 910 946 887 913 858 884 c 128
 829 855 796 830 759 808 c 128
 722 786 684 768 646 751 c 1
 998 371 l 1
 1009 385 1021 402 1034 422 c 128
 1047 442 1059 462 1070 484 c 128
 1081 506 1090 528 1099 551 c 128
 1108 574 1113 596 1116 616 c 0
 1117 622 1113 630 1105 640 c 128
 1097 650 1089 655 1080 656 c 2
 967 673 l 1
 967 761 l 1
 1397 761 l 1
 1397 673 l 1
 1246 650 l 1
 1236 615 1224 580 1210 547 c 128
 1196 514 1181 481 1165 451 c 128
 1149 421 1132 393 1115 367 c 128
 1098 341 1082 317 1067 296 c 1
 1237 100 l 1
 1424 90 l 1
 1424 0 l 1
 1038 0 l 1
EndSplineSet
EndChar

StartChar: quotesingle
Encoding: 7 39 8
Width: 358
VWidth: 2097
GlyphClass: 2
Flags: HW
LayerCount: 2
Fore
SplineSet
198 883 m 1
 164 883 l 1
 90 1395 l 1
 90 1428 98 1452 113 1470 c 128
 128 1488 149 1497 178 1497 c 0
 207 1497 230 1488 245 1470 c 128
 260 1452 268 1428 268 1395 c 1
 198 883 l 1
EndSplineSet
EndChar

StartChar: asterisk
Encoding: 10 42 9
Width: 1048
VWidth: 2097
GlyphClass: 2
Flags: HW
LayerCount: 2
Fore
SplineSet
416 761 m 1
 270 707 l 1
 274 862 l 1
 486 1032 l 1
 512 1013 l 1
 416 761 l 1
478 1061 m 1
 206 1076 l 1
 112 1195 l 1
 260 1239 l 1
 486 1091 l 1
 478 1061 l 1
633 761 m 1
 537 1013 l 1
 562 1032 l 1
 774 862 l 1
 778 707 l 1
 633 761 l 1
539 1111 m 1
 510 1111 l 1
 438 1373 l 1
 524 1501 l 1
 612 1373 l 1
 539 1111 l 1
843 1076 m 1
 572 1061 l 1
 562 1091 l 1
 788 1239 l 1
 937 1195 l 1
 843 1076 l 1
EndSplineSet
EndChar

StartChar: plus
Encoding: 11 43 10
Width: 2097
VWidth: 2097
GlyphClass: 2
Flags: HW
LayerCount: 2
Fore
SplineSet
1113 564 m 1
 1113 0 l 1
 984 0 l 1
 984 564 l 1
 420 564 l 1
 420 694 l 1
 984 694 l 1
 984 1258 l 1
 1113 1258 l 1
 1113 694 l 1
 1677 694 l 1
 1677 564 l 1
 1113 564 l 1
EndSplineSet
EndChar

StartChar: less
Encoding: 28 60 11
Width: 2097
VWidth: 2097
GlyphClass: 2
Flags: HW
LayerCount: 2
Fore
SplineSet
420 564 m 1
 420 694 l 1
 1677 1177 l 1
 1677 1047 l 1
 554 629 l 1
 1677 212 l 1
 1677 82 l 1
 420 564 l 1
EndSplineSet
EndChar

StartChar: equal
Encoding: 29 61 12
Width: 2097
VWidth: 2097
GlyphClass: 2
Flags: HW
LayerCount: 2
Fore
SplineSet
420 374 m 1
 420 504 l 1
 1677 504 l 1
 1677 374 l 1
 420 374 l 1
420 755 m 1
 420 885 l 1
 1677 885 l 1
 1677 755 l 1
 420 755 l 1
EndSplineSet
EndChar

StartChar: greater
Encoding: 30 62 13
Width: 2097
VWidth: 2097
GlyphClass: 2
Flags: HW
LayerCount: 2
Fore
SplineSet
420 82 m 1
 420 212 l 1
 1543 629 l 1
 420 1047 l 1
 420 1177 l 1
 1677 694 l 1
 1677 564 l 1
 420 82 l 1
EndSplineSet
EndChar

StartChar: at
Encoding: 31 64 14
Width: 1018
VWidth: 2097
GlyphClass: 2
Flags: HW
LayerCount: 2
Fore
SplineSet
874 1065 m 0
 874 1021 868 981 856 944 c 128
 844 907 827 874 807 844 c 128
 787 814 763 788 736 764 c 128
 709 740 680 720 651 701 c 128
 622 682 592 665 562 650 c 128
 532 635 503 622 476 610 c 1
 476 378 l 1
 358 378 l 1
 358 682 l 1
 391 693 425 709 461 729 c 128
 497 749 530 774 560 804 c 128
 590 834 614 869 633 910 c 128
 652 951 663 997 663 1049 c 0
 663 1147 637 1219 585 1267 c 128
 533 1315 458 1338 362 1338 c 1
 276 1124 l 1
 270 1123 265 1123 260 1123 c 1
 256 1122 252 1122 249 1122 c 2
 242 1122 l 2
 223 1122 205 1124 188 1128 c 128
 171 1132 156 1139 144 1148 c 128
 132 1157 122 1170 115 1184 c 128
 108 1198 104 1215 104 1235 c 0
 104 1260 111 1284 124 1309 c 128
 137 1334 158 1356 186 1375 c 128
 214 1394 248 1410 290 1422 c 128
 332 1434 381 1441 438 1441 c 0
 500 1441 558 1432 611 1414 c 128
 664 1396 711 1371 750 1339 c 128
 789 1307 819 1267 841 1221 c 128
 863 1175 874 1122 874 1065 c 0
550 102 m 256
 550 84 547 68 540 53 c 128
 533 38 523 24 511 12 c 128
 499 0 486 -8 470 -15 c 128
 454 -22 438 -26 420 -26 c 256
 402 -26 386 -22 370 -15 c 128
 354 -8 341 1 329 13 c 128
 317 25 308 38 302 54 c 128
 296 70 292 86 292 104 c 256
 292 122 296 139 302 155 c 128
 308 171 317 184 329 196 c 128
 341 208 354 217 370 223 c 128
 386 229 402 232 420 232 c 0
 438 232 455 229 471 222 c 128
 487 215 500 206 512 194 c 128
 524 182 533 169 540 153 c 128
 547 137 550 120 550 102 c 256
EndSplineSet
EndChar

StartChar: A
Encoding: 32 65 15
Width: 1963
VWidth: 2097
GlyphClass: 2
Flags: HW
LayerCount: 2
Fore
SplineSet
1225 824 m 2
 1227 833 1225 844 1220 858 c 128
 1215 872 1205 885 1194 898 c 128
 1183 911 1170 921 1154 930 c 128
 1138 939 1120 944 1101 944 c 0
 1049 944 1003 932 961 908 c 128
 919 884 883 850 854 808 c 128
 825 766 802 717 786 661 c 128
 770 605 763 544 763 480 c 0
 763 404 777 348 805 310 c 128
 833 272 874 254 927 254 c 0
 950 254 972 259 993 268 c 128
 1014 277 1034 288 1052 302 c 128
 1070 316 1087 330 1102 346 c 128
 1117 362 1130 376 1141 390 c 1
 1225 824 l 2
1811 782 m 0
 1811 711 1803 645 1788 585 c 128
 1773 525 1752 470 1726 421 c 128
 1700 372 1669 328 1635 290 c 128
 1601 252 1564 221 1526 195 c 128
 1488 169 1450 150 1411 137 c 128
 1372 124 1335 118 1300 118 c 0
 1242 118 1201 132 1175 161 c 128
 1149 190 1137 234 1137 292 c 1
 1082 237 1029 194 980 164 c 128
 931 134 882 120 833 120 c 0
 795 120 759 128 727 144 c 128
 695 160 667 182 644 212 c 128
 621 242 603 278 590 320 c 128
 577 362 570 409 570 462 c 0
 570 542 585 616 615 686 c 128
 645 756 684 816 733 867 c 128
 782 918 838 959 900 988 c 128
 962 1017 1027 1032 1093 1032 c 0
 1108 1032 1124 1031 1142 1028 c 128
 1160 1025 1178 1021 1196 1016 c 128
 1214 1011 1232 1005 1249 998 c 128
 1266 991 1282 983 1298 975 c 1
 1336 1023 l 1
 1453 1023 l 1
 1452 1019 1449 1007 1444 987 c 128
 1439 967 1433 942 1426 912 c 128
 1419 882 1412 849 1403 812 c 128
 1394 775 1386 737 1378 699 c 0
 1358 610 1336 511 1311 400 c 1
 1305 376 1302 354 1302 334 c 128
 1302 314 1305 297 1311 283 c 128
 1317 269 1326 257 1339 249 c 128
 1352 241 1369 237 1389 237 c 0
 1420 237 1453 249 1491 274 c 128
 1529 299 1563 336 1595 383 c 128
 1627 430 1654 487 1676 554 c 128
 1698 621 1709 697 1709 780 c 0
 1709 878 1692 964 1659 1036 c 128
 1626 1108 1581 1169 1526 1216 c 128
 1471 1263 1408 1299 1338 1322 c 128
 1268 1345 1196 1357 1122 1357 c 0
 1042 1357 966 1348 895 1329 c 128
 824 1310 758 1283 698 1249 c 128
 638 1215 583 1172 534 1123 c 128
 485 1074 444 1019 410 958 c 128
 376 897 350 832 332 761 c 128
 314 690 304 617 304 539 c 0
 304 433 321 333 354 241 c 128
 387 149 435 69 498 1 c 128
 561 -67 637 -119 728 -158 c 128
 819 -197 922 -216 1038 -216 c 0
 1099 -216 1157 -212 1210 -202 c 128
 1263 -192 1313 -180 1359 -165 c 128
 1405 -150 1446 -133 1485 -115 c 128
 1524 -97 1559 -78 1591 -60 c 1
 1621 -136 l 1
 1574 -161 1526 -185 1477 -207 c 128
 1428 -229 1377 -249 1325 -266 c 128
 1273 -283 1219 -296 1163 -306 c 128
 1107 -316 1049 -321 988 -321 c 0
 913 -321 840 -312 770 -295 c 128
 700 -278 634 -253 572 -221 c 128
 510 -189 453 -148 402 -101 c 128
 351 -54 307 0 270 61 c 128
 233 122 204 189 184 263 c 128
 164 337 154 416 154 501 c 0
 154 605 166 700 191 787 c 128
 216 874 250 953 294 1023 c 128
 338 1093 389 1155 449 1208 c 128
 509 1261 573 1306 643 1341 c 128
 713 1376 786 1404 863 1422 c 128
 940 1440 1017 1449 1095 1449 c 0
 1199 1449 1294 1434 1382 1405 c 128
 1470 1376 1546 1333 1609 1277 c 128
 1672 1221 1722 1152 1758 1069 c 128
 1794 986 1811 890 1811 782 c 0
EndSplineSet
EndChar

StartChar: B
Encoding: 33 66 16
Width: 1413
VWidth: 2097
GlyphClass: 2
Flags: HW
LayerCount: 2
Fore
SplineSet
658 1170 m 1
 455 621 l 1
 864 621 l 1
 658 1170 l 1
904 0 m 1
 904 90 l 1
 1025 100 l 2
 1032 100 1037 105 1042 114 c 128
 1047 123 1049 131 1047 136 c 2
 902 520 l 1
 418 520 l 1
 279 142 l 2
 278 138 278 134 279 129 c 128
 280 124 283 119 286 115 c 128
 289 111 293 107 297 104 c 128
 301 101 305 100 308 100 c 2
 432 90 l 1
 432 0 l 1
 10 0 l 1
 10 90 l 1
 132 116 l 1
 621 1441 l 1
 778 1441 l 1
 1265 146 l 2
 1270 132 1274 123 1278 118 c 128
 1282 113 1293 109 1309 106 c 2
 1403 90 l 1
 1403 0 l 1
 904 0 l 1
EndSplineSet
EndChar

StartChar: C
Encoding: 34 67 17
Width: 1268
VWidth: 2097
GlyphClass: 2
Flags: HW
LayerCount: 2
Fore
SplineSet
1187 416 m 0
 1187 359 1179 310 1163 267 c 128
 1147 224 1125 188 1098 157 c 128
 1071 126 1039 100 1003 80 c 128
 967 60 929 44 890 32 c 128
 851 20 812 12 771 7 c 128
 730 2 691 0 654 0 c 2
 68 0 l 1
 68 90 l 1
 178 98 l 2
 193 99 204 105 211 115 c 128
 218 125 222 134 222 144 c 2
 222 1263 l 2
 222 1273 218 1282 211 1292 c 128
 204 1302 193 1308 178 1309 c 2
 68 1317 l 1
 68 1407 l 1
 629 1407 l 2
 712 1407 783 1399 843 1384 c 128
 903 1369 952 1346 990 1317 c 128
 1028 1288 1056 1252 1074 1210 c 128
 1092 1168 1101 1122 1101 1069 c 256
 1101 1016 1091 972 1071 935 c 128
 1051 898 1026 867 996 842 c 128
 966 817 933 796 898 781 c 128
 863 766 830 754 799 746 c 1
 846 746 892 741 938 730 c 128
 984 719 1026 700 1063 674 c 128
 1100 648 1130 613 1153 571 c 128
 1176 529 1187 477 1187 416 c 0
958 398 m 0
 958 494 930 564 873 608 c 128
 816 652 733 675 621 675 c 0
 604 675 585 674 564 673 c 128
 543 672 523 670 505 669 c 128
 487 668 471 666 457 665 c 128
 443 664 435 663 432 663 c 1
 432 109 l 1
 449 108 466 106 482 105 c 1
 496 104 510 103 525 103 c 128
 540 103 552 102 562 102 c 0
 636 102 698 109 748 121 c 128
 798 133 839 151 870 176 c 128
 901 201 924 231 938 268 c 128
 952 305 958 348 958 398 c 0
874 1055 m 0
 874 1138 848 1201 795 1245 c 128
 742 1289 661 1311 552 1311 c 0
 541 1311 530 1311 517 1310 c 128
 504 1309 492 1309 481 1308 c 128
 470 1307 460 1307 451 1306 c 128
 442 1305 435 1305 432 1305 c 1
 432 774 l 1
 442 773 451 773 461 773 c 1
 469 772 477 772 485 772 c 2
 508 772 l 2
 576 772 633 778 680 791 c 128
 727 804 765 822 794 846 c 128
 823 870 843 899 856 934 c 128
 869 969 874 1010 874 1055 c 0
EndSplineSet
EndChar

StartChar: D
Encoding: 35 68 18
Width: 1314
VWidth: 2097
GlyphClass: 2
Flags: HW
LayerCount: 2
Fore
SplineSet
1233 48 m 1
 1230 47 1217 42 1193 33 c 128
 1169 24 1138 16 1100 6 c 128
 1062 -4 1017 -14 968 -22 c 128
 919 -30 867 -34 814 -34 c 0
 735 -34 663 -25 596 -6 c 128
 529 13 469 40 415 73 c 128
 361 106 313 147 272 193 c 128
 231 239 195 289 167 344 c 128
 139 399 117 457 103 518 c 128
 89 579 82 643 82 707 c 0
 82 816 100 915 135 1005 c 128
 170 1095 221 1171 285 1236 c 128
 349 1301 426 1351 516 1387 c 128
 606 1423 706 1441 816 1441 c 0
 850 1441 883 1439 915 1435 c 128
 947 1431 979 1426 1012 1419 c 128
 1045 1412 1079 1404 1115 1394 c 128
 1151 1384 1191 1372 1233 1359 c 1
 1233 1030 l 1
 1107 1030 l 1
 1076 1221 l 2
 1075 1231 1070 1239 1062 1249 c 128
 1054 1259 1046 1266 1040 1269 c 1
 1032 1272 1021 1277 1008 1283 c 128
 995 1289 979 1295 961 1301 c 128
 943 1307 922 1312 899 1316 c 128
 876 1320 852 1323 826 1323 c 0
 754 1323 688 1310 627 1283 c 128
 566 1256 512 1217 467 1165 c 128
 422 1113 387 1049 361 972 c 128
 335 895 323 807 323 707 c 0
 323 609 335 521 359 444 c 128
 383 367 418 302 464 248 c 128
 510 194 565 152 631 124 c 128
 697 96 771 82 854 82 c 0
 879 82 901 84 921 87 c 128
 941 90 959 95 974 99 c 128
 989 103 1001 107 1009 111 c 128
 1017 115 1022 117 1023 118 c 0
 1034 122 1043 127 1050 135 c 128
 1057 143 1061 151 1063 160 c 2
 1111 388 l 1
 1233 388 l 1
 1233 48 l 1
EndSplineSet
EndChar

StartChar: E
Encoding: 36 69 19
Width: 1459
VWidth: 2097
GlyphClass: 2
Flags: HW
LayerCount: 2
Fore
SplineSet
1141 702 m 0
 1141 812 1128 906 1102 983 c 128
 1076 1060 1040 1122 993 1170 c 128
 946 1218 888 1252 821 1274 c 128
 754 1296 679 1307 596 1307 c 2
 436 1307 l 1
 436 100 l 1
 606 102 l 2
 687 103 760 115 826 137 c 128
 892 159 948 194 994 242 c 128
 1040 290 1076 351 1102 427 c 128
 1128 503 1141 594 1141 702 c 0
1378 707 m 0
 1378 646 1373 585 1361 527 c 128
 1349 469 1332 413 1307 360 c 128
 1282 307 1251 260 1212 216 c 128
 1173 172 1127 133 1073 101 c 128
 1019 69 957 45 887 27 c 128
 817 9 738 0 650 0 c 2
 68 0 l 1
 68 90 l 1
 178 98 l 2
 193 99 204 105 212 115 c 128
 220 125 224 134 224 144 c 2
 224 1263 l 2
 224 1273 220 1282 212 1292 c 128
 204 1302 193 1308 178 1309 c 2
 68 1317 l 1
 68 1407 l 1
 608 1407 l 2
 718 1407 820 1394 914 1366 c 128
 1008 1338 1090 1295 1159 1238 c 128
 1228 1181 1281 1108 1320 1020 c 128
 1359 932 1378 828 1378 707 c 0
EndSplineSet
EndChar

StartChar: F
Encoding: 37 70 20
Width: 1222
VWidth: 2097
GlyphClass: 2
Flags: HW
LayerCount: 2
Fore
SplineSet
68 0 m 1
 68 90 l 1
 176 98 l 2
 191 99 202 105 210 115 c 128
 218 125 222 134 222 144 c 2
 222 1263 l 2
 222 1273 218 1282 210 1292 c 128
 202 1302 191 1308 176 1309 c 2
 68 1317 l 1
 68 1407 l 1
 1086 1407 l 1
 1086 1095 l 1
 961 1095 l 1
 929 1267 l 2
 928 1277 923 1286 916 1294 c 128
 909 1302 901 1307 891 1307 c 2
 436 1307 l 1
 436 784 l 1
 751 784 l 2
 761 784 769 789 777 797 c 128
 785 805 788 812 788 820 c 1
 810 965 l 1
 916 965 l 1
 916 497 l 1
 810 497 l 1
 788 642 l 1
 788 650 784 658 776 667 c 128
 768 676 760 680 751 680 c 2
 436 680 l 1
 436 102 l 1
 967 102 l 2
 976 102 983 107 991 117 c 128
 999 127 1004 134 1005 142 c 2
 1042 350 l 1
 1155 350 l 1
 1155 0 l 1
 68 0 l 1
EndSplineSet
EndChar

StartChar: G
Encoding: 38 71 21
Width: 1134
VWidth: 2097
GlyphClass: 2
Flags: HW
LayerCount: 2
Fore
SplineSet
948 1074 m 1
 919 1267 l 2
 917 1277 912 1285 906 1293 c 128
 900 1301 893 1305 883 1305 c 2
 436 1305 l 1
 436 759 l 1
 757 759 l 2
 767 759 775 763 782 772 c 128
 789 781 794 789 795 797 c 2
 814 944 l 1
 919 944 l 1
 919 472 l 1
 814 472 l 1
 795 618 l 2
 794 626 789 634 781 643 c 128
 773 652 766 656 757 656 c 2
 436 656 l 1
 436 144 l 2
 436 134 440 125 447 115 c 128
 454 105 465 99 480 98 c 2
 621 90 l 1
 621 0 l 1
 70 0 l 1
 70 90 l 1
 180 98 l 2
 195 99 207 105 214 115 c 128
 221 125 224 134 224 144 c 2
 224 1263 l 2
 224 1273 221 1282 214 1292 c 128
 207 1302 195 1308 180 1309 c 2
 52 1317 l 1
 52 1407 l 1
 1072 1407 l 1
 1072 1074 l 1
 948 1074 l 1
EndSplineSet
EndChar

StartChar: H
Encoding: 39 72 22
Width: 1457
VWidth: 2097
GlyphClass: 2
Flags: HW
LayerCount: 2
Fore
SplineSet
1298 579 m 2
 1283 578 1272 573 1265 564 c 128
 1258 555 1254 546 1254 535 c 2
 1254 50 l 1
 1212 34 1167 20 1119 8 c 0
 1078 -3 1031 -12 978 -21 c 128
 925 -30 871 -34 814 -34 c 0
 736 -34 665 -24 598 -6 c 128
 531 12 470 39 416 72 c 128
 362 105 314 145 272 191 c 128
 230 237 195 287 167 342 c 128
 139 397 117 455 103 517 c 128
 89 579 82 642 82 707 c 0
 82 817 99 917 134 1007 c 128
 169 1097 219 1175 285 1239 c 128
 351 1303 430 1353 524 1388 c 128
 618 1423 724 1441 841 1441 c 0
 881 1441 918 1438 954 1434 c 128
 990 1430 1025 1424 1058 1417 c 128
 1091 1410 1124 1403 1156 1394 c 128
 1188 1385 1220 1377 1252 1369 c 1
 1252 1030 l 1
 1126 1030 l 1
 1093 1219 l 2
 1091 1231 1085 1241 1077 1250 c 128
 1069 1259 1061 1265 1051 1269 c 0
 1041 1273 1028 1278 1013 1284 c 128
 998 1290 982 1296 964 1302 c 128
 946 1308 925 1313 903 1317 c 128
 881 1321 858 1323 833 1323 c 0
 757 1323 688 1310 625 1283 c 128
 562 1256 508 1217 463 1166 c 128
 418 1115 383 1051 358 976 c 128
 333 901 321 815 321 717 c 0
 321 617 333 528 358 449 c 128
 383 370 419 304 466 250 c 128
 513 196 570 154 636 126 c 128
 702 98 776 84 858 84 c 0
 881 84 904 86 925 89 c 128
 946 92 965 96 981 100 c 128
 997 104 1011 108 1022 111 c 128
 1033 114 1039 116 1042 116 c 1
 1042 535 l 2
 1042 546 1039 555 1032 564 c 128
 1025 573 1013 578 998 579 c 2
 858 589 l 1
 858 680 l 1
 1405 680 l 1
 1405 589 l 1
 1298 579 l 2
EndSplineSet
EndChar

StartChar: I
Encoding: 40 73 23
Width: 1558
VWidth: 2097
GlyphClass: 2
Flags: HW
LayerCount: 2
Fore
SplineSet
961 0 m 1
 961 90 l 1
 1080 98 l 2
 1094 99 1105 105 1113 115 c 128
 1121 125 1124 134 1124 144 c 2
 1124 686 l 1
 434 686 l 1
 434 144 l 2
 434 134 438 125 445 115 c 128
 452 105 463 99 478 98 c 2
 598 90 l 1
 598 0 l 1
 68 0 l 1
 68 90 l 1
 176 98 l 2
 191 99 202 105 210 115 c 128
 218 125 222 134 222 144 c 2
 222 1263 l 2
 222 1273 218 1282 210 1291 c 128
 202 1300 191 1306 176 1307 c 2
 68 1315 l 1
 68 1407 l 1
 598 1407 l 1
 598 1315 l 1
 478 1307 l 2
 463 1306 452 1300 445 1291 c 128
 438 1282 434 1273 434 1263 c 2
 434 791 l 1
 1124 791 l 1
 1124 1263 l 2
 1124 1273 1121 1282 1113 1291 c 128
 1105 1300 1094 1306 1080 1307 c 2
 961 1315 l 1
 961 1407 l 1
 1491 1407 l 1
 1491 1315 l 1
 1382 1307 l 2
 1367 1306 1356 1300 1348 1291 c 128
 1340 1282 1336 1273 1336 1263 c 2
 1336 144 l 2
 1336 134 1340 125 1348 115 c 128
 1356 105 1367 99 1382 98 c 2
 1491 90 l 1
 1491 0 l 1
 961 0 l 1
EndSplineSet
EndChar

StartChar: J
Encoding: 41 74 24
Width: 692
VWidth: 2097
GlyphClass: 2
Flags: HW
LayerCount: 2
Fore
SplineSet
70 0 m 1
 70 90 l 1
 195 98 l 2
 210 99 221 105 228 115 c 128
 235 125 239 134 239 144 c 2
 239 1263 l 2
 239 1273 235 1282 228 1291 c 128
 221 1300 210 1306 195 1307 c 2
 70 1315 l 1
 70 1407 l 1
 623 1407 l 1
 623 1315 l 1
 495 1307 l 2
 481 1306 470 1300 462 1291 c 128
 454 1282 451 1273 451 1263 c 2
 451 144 l 2
 451 134 454 125 462 115 c 128
 470 105 481 99 495 98 c 2
 623 90 l 1
 623 0 l 1
 70 0 l 1
EndSplineSet
EndChar

StartChar: K
Encoding: 42 75 25
Width: 1016
VWidth: 2097
GlyphClass: 2
Flags: HW
LayerCount: 2
Fore
SplineSet
841 1309 m 2
 827 1308 816 1302 808 1292 c 128
 800 1282 797 1273 797 1263 c 2
 797 530 l 2
 797 443 788 365 772 295 c 128
 756 225 729 166 693 118 c 128
 657 70 610 32 551 6 c 128
 492 -20 421 -34 336 -34 c 0
 302 -34 269 -31 236 -25 c 128
 203 -19 173 -13 147 -6 c 128
 121 1 99 8 82 14 c 128
 65 20 55 25 52 26 c 1
 52 384 l 1
 178 384 l 1
 224 128 l 2
 226 118 231 109 237 102 c 128
 243 95 251 89 260 85 c 128
 269 81 278 78 289 76 c 128
 300 74 311 74 321 74 c 0
 369 74 409 83 442 101 c 128
 475 119 503 147 524 184 c 128
 545 221 560 268 570 323 c 128
 580 378 585 442 585 516 c 2
 585 1263 l 2
 585 1273 581 1282 574 1292 c 128
 567 1302 556 1308 541 1309 c 2
 409 1317 l 1
 409 1407 l 1
 963 1407 l 1
 963 1317 l 1
 841 1309 l 2
EndSplineSet
EndChar

StartChar: L
Encoding: 43 76 26
Width: 1338
VWidth: 2097
GlyphClass: 2
Flags: HW
LayerCount: 2
Fore
SplineSet
971 0 m 1
 971 65 l 1
 581 625 l 1
 434 625 l 1
 434 144 l 2
 434 134 438 125 446 115 c 128
 454 105 465 99 480 98 c 2
 600 90 l 1
 600 0 l 1
 68 0 l 1
 68 90 l 1
 178 98 l 2
 193 99 204 105 211 115 c 128
 218 125 222 134 222 144 c 2
 222 1263 l 2
 222 1273 218 1282 211 1292 c 128
 204 1302 193 1308 178 1309 c 2
 68 1317 l 1
 68 1407 l 1
 600 1407 l 1
 600 1317 l 1
 480 1309 l 2
 465 1308 454 1302 446 1292 c 128
 438 1282 434 1273 434 1263 c 2
 434 713 l 1
 510 713 l 1
 967 1271 l 2
 972 1277 971 1284 967 1292 c 128
 963 1300 957 1306 950 1307 c 1
 843 1317 l 1
 843 1407 l 1
 1287 1407 l 1
 1287 1317 l 1
 1262 1315 1241 1313 1221 1310 c 0
 1204 1308 1187 1306 1172 1304 c 128
 1157 1302 1148 1301 1145 1300 c 1
 717 788 l 1
 1187 100 l 1
 1338 90 l 1
 1338 0 l 1
 971 0 l 1
EndSplineSet
EndChar

StartChar: M
Encoding: 44 77 27
Width: 1113
VWidth: 2097
GlyphClass: 2
Flags: HW
LayerCount: 2
Fore
SplineSet
56 0 m 1
 56 90 l 1
 178 98 l 2
 193 99 204 105 211 115 c 128
 218 125 222 134 222 144 c 2
 222 1263 l 2
 222 1273 218 1282 211 1292 c 128
 204 1302 193 1308 178 1309 c 2
 56 1317 l 1
 56 1407 l 1
 592 1407 l 1
 592 1317 l 1
 480 1309 l 2
 465 1308 454 1302 446 1292 c 128
 438 1282 434 1273 434 1263 c 2
 434 102 l 1
 874 102 l 2
 884 102 894 106 904 113 c 128
 914 120 920 128 921 138 c 2
 954 390 l 1
 1076 390 l 1
 1076 0 l 1
 56 0 l 1
EndSplineSet
EndChar

StartChar: N
Encoding: 45 78 28
Width: 1837
VWidth: 2097
GlyphClass: 2
Flags: HW
LayerCount: 2
Fore
SplineSet
1243 0 m 1
 1243 90 l 1
 1355 98 l 2
 1370 99 1381 105 1389 115 c 128
 1397 125 1401 134 1401 144 c 2
 1401 1300 l 1
 919 0 l 1
 814 0 l 1
 348 1281 l 1
 348 144 l 2
 348 134 352 125 360 115 c 128
 368 105 379 99 394 98 c 2
 514 90 l 1
 514 0 l 1
 60 0 l 1
 60 90 l 1
 180 98 l 2
 195 99 207 105 214 115 c 128
 221 125 224 134 224 144 c 2
 224 1263 l 2
 224 1273 221 1282 214 1292 c 128
 207 1302 195 1308 180 1309 c 2
 60 1317 l 1
 60 1407 l 1
 530 1407 l 1
 530 1351 l 1
 910 321 l 1
 1290 1345 l 1
 1290 1407 l 1
 1773 1407 l 1
 1773 1317 l 1
 1659 1309 l 2
 1644 1308 1633 1302 1625 1292 c 128
 1617 1282 1613 1273 1613 1263 c 2
 1613 144 l 2
 1613 134 1617 125 1625 115 c 128
 1633 105 1644 99 1659 98 c 2
 1773 90 l 1
 1773 0 l 1
 1243 0 l 1
EndSplineSet
EndChar

StartChar: O
Encoding: 46 79 29
Width: 1512
VWidth: 2097
GlyphClass: 2
Flags: HW
LayerCount: 2
Fore
SplineSet
1334 1309 m 2
 1319 1308 1308 1302 1301 1292 c 128
 1294 1282 1290 1273 1290 1263 c 2
 1290 0 l 1
 1126 0 l 1
 346 1175 l 1
 346 144 l 2
 346 134 350 125 357 115 c 128
 364 105 375 99 390 98 c 2
 510 90 l 1
 510 0 l 1
 56 0 l 1
 56 90 l 1
 176 98 l 2
 191 99 202 105 210 115 c 128
 218 125 222 134 222 144 c 2
 222 1263 l 2
 222 1273 218 1282 210 1292 c 128
 202 1302 191 1308 176 1309 c 2
 52 1317 l 1
 52 1407 l 1
 468 1407 l 1
 468 1355 l 1
 1166 300 l 1
 1166 1263 l 2
 1166 1273 1163 1282 1155 1292 c 128
 1147 1302 1136 1308 1122 1309 c 2
 1002 1317 l 1
 1002 1407 l 1
 1451 1407 l 1
 1451 1317 l 1
 1334 1309 l 2
EndSplineSet
EndChar

StartChar: P
Encoding: 47 80 30
Width: 1532
VWidth: 2097
GlyphClass: 2
Flags: HW
LayerCount: 2
Fore
SplineSet
1208 700 m 0
 1208 785 1199 867 1181 942 c 128
 1163 1017 1135 1083 1098 1139 c 128
 1061 1195 1015 1240 960 1272 c 128
 905 1304 841 1321 768 1321 c 0
 692 1321 626 1305 570 1272 c 128
 514 1239 468 1194 431 1138 c 128
 394 1082 367 1017 349 942 c 128
 331 867 323 788 323 705 c 0
 323 621 332 540 350 465 c 128
 368 390 395 324 432 267 c 128
 469 210 514 165 569 132 c 128
 624 99 689 82 763 82 c 0
 839 82 904 99 960 132 c 128
 1016 165 1062 211 1099 267 c 128
 1136 323 1163 388 1181 463 c 128
 1199 538 1208 617 1208 700 c 0
1451 702 m 256
 1451 600 1435 505 1402 416 c 128
 1369 327 1323 249 1263 182 c 128
 1203 115 1132 63 1048 24 c 128
 964 -15 870 -34 768 -34 c 0
 665 -34 571 -15 487 22 c 128
 403 59 330 111 270 177 c 128
 210 243 164 321 131 411 c 128
 98 501 82 599 82 705 c 0
 82 807 98 903 130 992 c 128
 162 1081 208 1159 267 1226 c 128
 326 1293 399 1345 483 1383 c 128
 567 1421 662 1441 766 1441 c 0
 870 1441 964 1421 1048 1382 c 128
 1132 1343 1204 1291 1264 1224 c 128
 1324 1157 1370 1078 1402 989 c 128
 1434 900 1451 804 1451 702 c 256
EndSplineSet
EndChar

StartChar: Q
Encoding: 48 81 31
Width: 1214
VWidth: 2097
GlyphClass: 2
Flags: HW
LayerCount: 2
Fore
SplineSet
914 981 m 0
 914 1032 908 1078 894 1118 c 128
 880 1158 859 1191 829 1219 c 128
 799 1247 761 1268 714 1283 c 128
 667 1298 610 1305 543 1305 c 0
 533 1305 522 1304 510 1304 c 128
 498 1304 486 1304 475 1304 c 0
 463 1303 450 1303 436 1303 c 1
 436 642 l 1
 437 642 443 642 452 641 c 128
 461 640 470 638 482 636 c 128
 494 634 506 633 519 632 c 128
 532 631 544 631 554 631 c 0
 609 630 659 636 703 650 c 128
 747 664 786 685 817 714 c 128
 848 743 872 779 889 823 c 128
 906 867 914 920 914 981 c 0
1133 984 m 0
 1133 907 1119 840 1090 782 c 128
 1061 724 1021 676 972 638 c 128
 923 600 865 572 798 553 c 128
 731 534 661 525 585 526 c 0
 571 526 556 526 540 527 c 128
 524 528 509 529 494 530 c 128
 479 531 467 531 456 532 c 128
 445 533 439 534 436 535 c 1
 436 144 l 2
 436 134 440 125 447 115 c 128
 454 105 465 99 480 98 c 2
 618 90 l 1
 618 0 l 1
 68 0 l 1
 68 90 l 1
 178 98 l 2
 193 99 204 105 212 115 c 128
 220 125 224 134 224 144 c 2
 224 1263 l 2
 224 1273 220 1282 212 1292 c 128
 204 1302 193 1308 178 1309 c 2
 52 1317 l 1
 52 1407 l 1
 554 1407 l 2
 653 1407 739 1399 812 1384 c 128
 885 1369 945 1345 992 1312 c 128
 1039 1279 1075 1235 1098 1181 c 128
 1121 1127 1133 1062 1133 984 c 0
EndSplineSet
EndChar

StartChar: R
Encoding: 49 82 32
Width: 1549
VWidth: 2097
GlyphClass: 2
Flags: HW
LayerCount: 2
Fore
SplineSet
1221 702 m 0
 1221 785 1212 863 1194 938 c 128
 1176 1013 1150 1079 1113 1136 c 128
 1076 1193 1030 1238 974 1272 c 128
 918 1306 851 1323 774 1323 c 0
 698 1323 631 1307 575 1274 c 128
 519 1241 472 1196 435 1140 c 128
 398 1084 371 1019 353 944 c 128
 335 869 327 790 327 707 c 0
 327 625 336 546 354 471 c 128
 372 396 401 329 438 271 c 128
 475 213 522 167 578 133 c 128
 634 99 699 82 774 82 c 0
 850 82 916 99 972 133 c 128
 1028 167 1074 212 1111 269 c 128
 1148 326 1175 392 1193 467 c 128
 1211 542 1221 620 1221 702 c 0
1468 702 m 0
 1468 608 1455 520 1429 438 c 128
 1403 356 1365 283 1315 220 c 128
 1265 157 1205 104 1133 62 c 128
 1061 20 980 -9 889 -24 c 1
 890 -103 915 -164 962 -209 c 128
 1009 -254 1082 -276 1179 -276 c 0
 1204 -276 1227 -275 1250 -273 c 128
 1273 -271 1293 -269 1311 -267 c 128
 1329 -265 1343 -262 1355 -260 c 128
 1367 -258 1375 -255 1380 -254 c 1
 1380 -344 l 1
 1372 -345 1359 -348 1340 -352 c 128
 1321 -356 1297 -361 1269 -365 c 128
 1241 -369 1210 -372 1176 -375 c 128
 1142 -378 1106 -380 1069 -380 c 0
 995 -380 933 -371 882 -355 c 128
 831 -339 788 -316 756 -285 c 128
 724 -254 700 -217 686 -174 c 128
 672 -131 665 -82 665 -28 c 1
 581 -16 503 10 432 49 c 128
 361 88 300 139 248 201 c 128
 196 263 155 337 126 422 c 128
 97 507 82 600 82 702 c 0
 82 770 89 837 104 900 c 128
 119 963 139 1021 167 1076 c 128
 195 1131 229 1180 269 1225 c 128
 309 1270 356 1308 407 1340 c 128
 458 1372 514 1398 575 1415 c 128
 636 1432 702 1441 772 1441 c 0
 878 1441 974 1421 1060 1383 c 128
 1146 1345 1219 1293 1279 1227 c 128
 1339 1161 1386 1082 1419 992 c 128
 1452 902 1468 805 1468 702 c 0
EndSplineSet
EndChar

StartChar: S
Encoding: 50 83 33
Width: 1360
VWidth: 2097
GlyphClass: 2
Flags: HW
LayerCount: 2
Fore
SplineSet
900 1025 m 0
 900 1070 894 1110 880 1144 c 128
 866 1178 845 1208 815 1232 c 128
 785 1256 747 1274 700 1286 c 128
 653 1298 596 1305 530 1305 c 2
 434 1305 l 1
 434 730 l 1
 435 730 441 730 449 730 c 128
 457 730 466 729 477 729 c 128
 488 729 498 729 509 729 c 128
 520 729 531 728 539 728 c 0
 597 728 648 733 693 743 c 128
 738 753 776 770 807 793 c 128
 838 816 861 846 877 884 c 128
 893 922 900 969 900 1025 c 0
1361 -6 m 1
 1356 -7 1349 -8 1340 -11 c 128
 1331 -14 1321 -17 1309 -20 c 128
 1297 -23 1283 -27 1268 -30 c 128
 1253 -33 1239 -34 1223 -34 c 0
 1160 -34 1109 -25 1070 -6 c 128
 1031 13 999 38 975 69 c 128
 951 100 933 135 919 175 c 128
 905 215 893 255 881 296 c 128
 869 337 856 378 842 418 c 128
 828 458 808 493 783 524 c 128
 758 555 725 580 685 599 c 128
 645 618 592 627 528 627 c 0
 517 627 507 626 496 626 c 128
 485 626 475 626 466 625 c 128
 457 624 450 623 444 623 c 128
 438 623 435 623 434 623 c 1
 434 144 l 2
 434 134 438 125 445 115 c 128
 452 105 463 99 478 98 c 2
 589 90 l 1
 589 0 l 1
 68 0 l 1
 68 90 l 1
 176 98 l 2
 191 99 202 105 210 115 c 128
 218 125 222 134 222 144 c 2
 222 1263 l 2
 222 1273 218 1282 210 1292 c 128
 202 1302 191 1308 176 1309 c 2
 68 1317 l 1
 68 1407 l 1
 614 1407 l 2
 694 1407 766 1401 829 1388 c 128
 892 1375 947 1353 991 1324 c 128
 1035 1295 1069 1256 1093 1209 c 128
 1117 1162 1128 1103 1128 1034 c 0
 1128 979 1119 932 1100 892 c 128
 1081 852 1055 819 1023 792 c 128
 991 765 955 742 913 725 c 128
 871 708 828 694 784 684 c 1
 841 670 887 651 921 627 c 128
 955 603 981 576 1001 545 c 128
 1021 514 1036 481 1046 447 c 128
 1056 413 1063 379 1071 345 c 128
 1079 311 1087 279 1097 248 c 128
 1107 217 1121 190 1141 166 c 128
 1161 142 1189 123 1223 109 c 128
 1257 95 1304 88 1361 88 c 1
 1361 -6 l 1
EndSplineSet
EndChar

StartChar: T
Encoding: 51 84 34
Width: 1092
VWidth: 2097
GlyphClass: 2
Flags: HW
LayerCount: 2
Fore
SplineSet
1011 394 m 0
 1011 341 1000 289 979 238 c 128
 958 187 926 140 881 100 c 128
 836 60 778 28 708 3 c 128
 638 -22 553 -34 455 -34 c 0
 398 -34 346 -30 301 -22 c 128
 256 -14 216 -5 183 5 c 0
 145 17 112 30 82 44 c 1
 82 416 l 1
 214 416 l 1
 242 178 l 2
 243 170 247 162 254 152 c 128
 261 142 268 135 276 132 c 2
 294 123 l 2
 304 118 318 113 336 107 c 128
 354 101 375 96 401 91 c 128
 427 86 455 84 488 84 c 0
 532 84 574 90 612 101 c 128
 650 112 683 129 710 150 c 128
 737 171 759 196 774 227 c 128
 789 258 797 293 797 332 c 0
 797 374 784 411 760 443 c 128
 736 475 706 503 669 528 c 128
 632 553 593 575 550 595 c 128
 507 615 466 634 428 652 c 0
 385 672 344 694 305 716 c 128
 266 738 231 763 201 792 c 128
 171 821 148 853 131 892 c 128
 114 931 104 977 104 1030 c 0
 104 1092 116 1148 141 1199 c 128
 166 1250 200 1293 243 1329 c 128
 286 1365 338 1393 397 1412 c 128
 456 1431 520 1441 589 1441 c 0
 629 1441 666 1439 701 1434 c 128
 736 1429 769 1423 799 1416 c 128
 829 1409 858 1401 884 1393 c 128
 910 1385 935 1377 958 1369 c 1
 958 1042 l 1
 839 1042 l 1
 807 1243 l 2
 806 1250 801 1257 795 1264 c 128
 789 1271 782 1276 776 1279 c 0
 775 1280 771 1283 763 1288 c 128
 755 1293 745 1300 730 1305 c 128
 715 1310 696 1315 673 1320 c 128
 650 1325 623 1327 592 1327 c 0
 550 1327 511 1321 478 1309 c 128
 445 1297 416 1279 393 1257 c 128
 370 1235 352 1209 339 1179 c 128
 326 1149 321 1115 321 1080 c 0
 321 1048 326 1019 339 993 c 128
 352 967 371 942 396 920 c 128
 421 898 451 877 487 858 c 128
 523 839 565 821 612 803 c 0
 675 779 733 754 782 728 c 128
 831 702 873 673 907 641 c 128
 941 609 966 573 984 533 c 128
 1002 493 1011 447 1011 394 c 0
EndSplineSet
EndChar

StartChar: U
Encoding: 52 85 35
Width: 1256
VWidth: 2097
GlyphClass: 2
Flags: HW
LayerCount: 2
Fore
SplineSet
1099 1072 m 1
 1069 1269 l 2
 1067 1280 1063 1289 1057 1295 c 128
 1051 1301 1044 1305 1034 1305 c 2
 734 1305 l 1
 734 144 l 2
 734 134 738 125 745 115 c 128
 752 105 763 99 778 98 c 2
 912 90 l 1
 912 0 l 1
 344 0 l 1
 344 90 l 1
 478 98 l 2
 493 99 504 105 511 115 c 128
 518 125 522 134 522 144 c 2
 522 1305 l 1
 220 1305 l 2
 210 1305 202 1301 196 1295 c 128
 190 1289 185 1280 184 1269 c 2
 156 1072 l 1
 34 1072 l 1
 34 1407 l 1
 1223 1407 l 1
 1223 1072 l 1
 1099 1072 l 1
EndSplineSet
EndChar

StartChar: V
Encoding: 53 86 36
Width: 1492
VWidth: 2097
GlyphClass: 2
Flags: HW
LayerCount: 2
Fore
SplineSet
1315 1309 m 2
 1300 1308 1289 1302 1282 1292 c 128
 1275 1282 1271 1273 1271 1263 c 2
 1271 466 l 2
 1271 380 1259 306 1236 243 c 128
 1213 180 1178 128 1133 87 c 128
 1088 46 1031 16 964 -4 c 128
 897 -24 819 -34 732 -34 c 0
 559 -34 430 8 346 92 c 128
 262 176 220 301 220 466 c 2
 220 1263 l 2
 220 1273 216 1282 209 1292 c 128
 202 1302 191 1308 176 1309 c 2
 65 1317 l 1
 65 1407 l 1
 598 1407 l 1
 598 1317 l 1
 478 1309 l 2
 463 1308 452 1302 445 1292 c 128
 438 1282 434 1273 434 1263 c 2
 434 520 l 2
 434 459 439 403 449 352 c 128
 459 301 476 257 502 221 c 128
 528 185 564 157 610 137 c 128
 656 117 715 106 788 106 c 0
 860 106 921 117 967 138 c 128
 1013 159 1049 189 1076 226 c 128
 1103 263 1122 306 1132 357 c 128
 1142 408 1147 462 1147 520 c 2
 1147 1263 l 2
 1147 1273 1143 1282 1135 1292 c 128
 1127 1302 1116 1308 1101 1309 c 2
 981 1317 l 1
 981 1407 l 1
 1437 1407 l 1
 1437 1317 l 1
 1315 1309 l 2
EndSplineSet
EndChar

StartChar: W
Encoding: 54 87 37
Width: 1396
VWidth: 2097
GlyphClass: 2
Flags: HW
LayerCount: 2
Fore
SplineSet
1254 1294 m 1
 784 -34 l 1
 625 -34 l 1
 144 1296 l 1
 20 1317 l 1
 20 1407 l 1
 522 1407 l 1
 522 1317 l 1
 398 1307 l 1
 390 1306 385 1300 382 1291 c 128
 379 1282 378 1275 380 1269 c 2
 749 232 l 1
 1103 1265 l 2
 1106 1273 1103 1282 1097 1291 c 128
 1091 1300 1083 1306 1074 1307 c 2
 958 1317 l 1
 958 1407 l 1
 1375 1407 l 1
 1375 1317 l 1
 1254 1294 l 1
EndSplineSet
EndChar

StartChar: X
Encoding: 55 88 38
Width: 1952
VWidth: 2097
GlyphClass: 2
Flags: HW
LayerCount: 2
Fore
SplineSet
1803 1292 m 1
 1483 -34 l 1
 1329 -34 l 1
 979 1128 l 1
 636 -34 l 1
 484 -34 l 1
 142 1292 l 1
 20 1317 l 1
 20 1407 l 1
 501 1407 l 1
 501 1317 l 1
 376 1305 l 2
 366 1304 359 1299 356 1290 c 128
 353 1281 352 1273 354 1263 c 2
 604 316 l 1
 933 1407 l 1
 1095 1407 l 1
 1433 283 l 1
 1665 1263 l 2
 1667 1273 1665 1281 1660 1290 c 128
 1655 1299 1646 1304 1635 1305 c 2
 1503 1317 l 1
 1503 1407 l 1
 1931 1407 l 1
 1931 1317 l 1
 1803 1292 l 1
EndSplineSet
EndChar

StartChar: Y
Encoding: 56 89 39
Width: 1329
VWidth: 2097
GlyphClass: 2
Flags: HW
LayerCount: 2
Fore
SplineSet
770 0 m 1
 770 90 l 1
 891 102 l 2
 902 103 910 109 916 118 c 128
 922 127 922 136 916 146 c 2
 638 585 l 1
 314 140 l 2
 309 132 307 125 310 116 c 128
 313 107 323 101 340 100 c 2
 466 90 l 1
 466 0 l 1
 20 0 l 1
 20 90 l 1
 146 116 l 1
 568 694 l 1
 186 1292 l 1
 48 1317 l 1
 48 1407 l 1
 574 1407 l 1
 574 1317 l 1
 468 1307 l 2
 451 1306 441 1300 438 1291 c 128
 435 1282 437 1273 442 1265 c 2
 698 870 l 1
 981 1258 l 2
 989 1268 989 1278 983 1287 c 128
 977 1296 968 1302 958 1303 c 2
 851 1317 l 1
 851 1407 l 1
 1290 1407 l 1
 1290 1317 l 1
 1155 1296 l 1
 766 761 l 1
 1179 116 l 1
 1309 90 l 1
 1309 0 l 1
 770 0 l 1
EndSplineSet
EndChar

StartChar: Z
Encoding: 57 90 40
Width: 1312
VWidth: 2097
GlyphClass: 2
Flags: HW
LayerCount: 2
Fore
SplineSet
1179 1296 m 1
 757 598 l 1
 757 144 l 2
 757 134 760 125 768 115 c 128
 776 105 787 99 801 98 c 2
 935 90 l 1
 935 0 l 1
 369 0 l 1
 369 90 l 1
 499 98 l 2
 514 99 525 105 533 115 c 128
 541 125 545 134 545 144 c 2
 545 566 l 1
 142 1292 l 1
 20 1317 l 1
 20 1407 l 1
 518 1407 l 1
 518 1317 l 1
 413 1307 l 2
 397 1305 387 1299 385 1290 c 128
 383 1281 384 1273 388 1265 c 2
 684 717 l 1
 1009 1258 l 2
 1015 1268 1015 1278 1009 1287 c 128
 1003 1296 994 1302 984 1303 c 2
 866 1317 l 1
 866 1407 l 1
 1292 1407 l 1
 1292 1317 l 1
 1179 1296 l 1
EndSplineSet
EndChar

StartChar: bracketleft
Encoding: 58 91 41
Width: 1206
VWidth: 2097
GlyphClass: 2
Flags: HW
LayerCount: 2
Fore
SplineSet
82 0 m 1
 82 92 l 1
 862 1303 l 1
 316 1303 l 2
 306 1303 299 1299 293 1292 c 128
 287 1285 284 1277 281 1267 c 1
 250 1072 l 1
 126 1072 l 1
 126 1407 l 1
 1113 1407 l 1
 1113 1311 l 1
 332 106 l 1
 929 106 l 2
 939 106 946 110 952 118 c 128
 958 126 963 134 965 144 c 2
 1000 388 l 1
 1124 388 l 1
 1124 0 l 1
 82 0 l 1
EndSplineSet
EndChar

StartChar: backslash
Encoding: 59 92 42
Width: 886
VWidth: 2097
GlyphClass: 2
Flags: HW
LayerCount: 2
Fore
SplineSet
286 -276 m 1
 286 1485 l 1
 795 1485 l 1
 795 1391 l 1
 468 1391 l 1
 468 -180 l 1
 795 -180 l 1
 795 -276 l 1
 286 -276 l 1
EndSplineSet
EndChar

StartChar: bracketright
Encoding: 60 93 43
Width: 1025
VWidth: 2097
GlyphClass: 2
Flags: HW
LayerCount: 2
Fore
SplineSet
891 -195 m 1
 0 1407 l 1
 134 1407 l 1
 1025 -195 l 1
 891 -195 l 1
EndSplineSet
EndChar

StartChar: asciicircum
Encoding: 61 94 44
Width: 886
VWidth: 2097
GlyphClass: 2
Flags: HW
LayerCount: 2
Fore
SplineSet
92 -276 m 1
 92 -180 l 1
 422 -180 l 1
 422 1391 l 1
 92 1391 l 1
 92 1485 l 1
 604 1485 l 1
 604 -276 l 1
 92 -276 l 1
EndSplineSet
EndChar

StartChar: underscore
Encoding: 62 95 45
Width: 686
VWidth: 2097
GlyphClass: 2
Flags: HW
LayerCount: 2
Fore
SplineSet
560 1155 m 1
 344 1363 l 1
 126 1155 l 1
 0 1155 l 1
 264 1510 l 1
 422 1510 l 1
 686 1155 l 1
 560 1155 l 1
EndSplineSet
EndChar

StartChar: glyph46
Encoding: 63 96 46
Width: 702
VWidth: 2097
GlyphClass: 2
Flags: HW
LayerCount: 2
Fore
SplineSet
0 -312 m 1
 0 -179 l 1
 702 -179 l 1
 702 -312 l 1
 0 -312 l 1
EndSplineSet
EndChar

StartChar: a
Encoding: 64 97 47
Width: 734
VWidth: 2097
GlyphClass: 2
Flags: HW
LayerCount: 2
Fore
SplineSet
367 1155 m 1
 48 1359 l 2
 33 1369 22 1380 13 1394 c 128
 4 1408 0 1424 0 1443 c 0
 0 1454 2 1465 5 1476 c 128
 8 1487 14 1497 22 1506 c 128
 30 1515 39 1522 51 1528 c 128
 63 1534 78 1537 96 1537 c 0
 111 1537 124 1535 134 1533 c 128
 144 1531 154 1528 162 1523 c 128
 170 1518 177 1512 184 1505 c 128
 191 1498 198 1490 206 1481 c 2
 486 1155 l 1
 367 1155 l 1
EndSplineSet
EndChar

StartChar: b
Encoding: 65 98 48
Width: 1067
VWidth: 2097
GlyphClass: 2
Flags: HW
LayerCount: 2
Fore
SplineSet
694 560 m 1
 600 536 525 512 470 489 c 128
 415 466 373 443 345 419 c 128
 317 395 298 372 290 348 c 128
 282 324 279 298 279 272 c 0
 279 250 282 229 289 208 c 128
 296 187 307 169 320 153 c 128
 333 137 350 123 369 113 c 128
 388 103 411 98 436 98 c 0
 464 98 494 104 524 114 c 128
 554 124 582 135 607 147 c 0
 636 161 665 179 694 198 c 1
 694 560 l 1
722 0 m 1
 694 124 l 1
 657 96 620 71 581 49 c 0
 564 39 545 31 526 22 c 128
 507 13 487 4 467 -3 c 128
 447 -10 427 -15 406 -19 c 128
 385 -23 364 -26 344 -26 c 0
 306 -26 270 -19 237 -6 c 128
 204 7 176 25 151 50 c 128
 126 75 107 104 93 139 c 128
 79 174 72 214 72 258 c 0
 72 284 74 309 79 332 c 128
 84 355 95 377 111 399 c 128
 127 421 149 442 177 462 c 128
 205 482 242 502 288 522 c 128
 334 542 390 562 457 581 c 128
 524 600 603 620 694 640 c 1
 694 730 l 2
 694 800 678 852 647 886 c 128
 616 920 567 937 499 937 c 0
 462 937 430 934 404 927 c 128
 378 920 360 914 350 910 c 1
 350 728 l 1
 198 728 l 2
 188 728 178 729 169 730 c 128
 160 731 152 735 144 739 c 128
 136 743 130 749 126 757 c 128
 122 765 120 775 120 788 c 0
 120 831 133 869 159 900 c 128
 185 931 218 957 260 977 c 128
 302 997 348 1012 400 1022 c 128
 452 1032 504 1036 556 1036 c 0
 621 1036 674 1029 717 1013 c 128
 760 997 794 975 819 947 c 128
 844 919 861 886 871 848 c 128
 881 810 887 768 887 722 c 2
 887 134 l 2
 887 121 891 110 900 102 c 128
 909 94 919 89 931 88 c 2
 1032 82 l 1
 1032 0 l 1
 722 0 l 1
EndSplineSet
EndChar

StartChar: c
Encoding: 66 99 49
Width: 1164
VWidth: 2097
GlyphClass: 2
Flags: HW
LayerCount: 2
Fore
SplineSet
1093 554 m 0
 1093 475 1081 401 1058 334 c 128
 1035 267 999 209 950 159 c 128
 901 109 838 70 762 42 c 128
 686 14 595 0 490 0 c 2
 188 0 l 1
 188 1395 l 1
 30 1395 l 1
 30 1464 l 1
 300 1545 l 1
 384 1545 l 1
 384 958 l 1
 396 963 412 971 432 980 c 128
 452 989 474 998 500 1006 c 128
 526 1014 554 1021 583 1027 c 128
 612 1033 642 1036 673 1036 c 0
 742 1036 803 1023 855 997 c 128
 907 971 951 936 986 892 c 128
 1021 848 1048 796 1066 738 c 128
 1084 680 1093 618 1093 554 c 0
879 512 m 0
 879 644 850 743 794 811 c 128
 738 879 659 912 558 912 c 0
 546 912 533 911 517 909 c 128
 501 907 486 904 470 901 c 128
 454 898 437 894 422 890 c 128
 407 886 394 882 384 879 c 1
 384 100 l 1
 396 99 408 99 420 99 c 1
 430 98 441 98 453 98 c 2
 486 98 l 2
 548 98 604 106 652 120 c 128
 700 134 742 157 775 190 c 128
 808 223 834 265 852 318 c 128
 870 371 879 436 879 512 c 0
EndSplineSet
EndChar

StartChar: d
Encoding: 67 100 50
Width: 976
VWidth: 2097
GlyphClass: 2
Flags: HW
LayerCount: 2
Fore
SplineSet
906 78 m 1
 882 66 857 53 831 40 c 128
 805 27 777 17 747 7 c 128
 717 -3 686 -10 654 -16 c 128
 622 -22 587 -26 552 -26 c 0
 478 -26 412 -12 353 14 c 128
 294 40 244 76 202 123 c 128
 160 170 128 226 105 290 c 128
 82 354 72 424 72 499 c 0
 72 587 86 664 113 731 c 128
 140 798 177 855 223 900 c 128
 269 945 324 979 385 1002 c 128
 446 1025 510 1036 577 1036 c 0
 623 1036 665 1031 705 1022 c 128
 745 1013 779 1000 808 982 c 128
 837 964 860 942 877 916 c 128
 894 890 902 860 902 826 c 0
 902 806 898 788 891 773 c 128
 884 758 875 745 863 734 c 128
 851 723 839 715 824 710 c 128
 809 705 794 702 778 702 c 0
 755 702 735 706 718 714 c 128
 701 722 686 730 673 738 c 1
 673 921 l 1
 659 929 643 936 628 941 c 128
 613 946 599 948 585 948 c 0
 539 948 496 937 459 916 c 128
 422 895 391 866 365 828 c 128
 339 790 320 747 306 695 c 128
 292 643 286 587 286 526 c 0
 286 468 293 413 308 362 c 128
 323 311 344 267 373 229 c 128
 402 191 439 161 482 139 c 128
 525 117 576 106 633 106 c 0
 682 106 729 115 773 130 c 128
 817 145 861 168 906 198 c 1
 906 78 l 1
EndSplineSet
EndChar

StartChar: e
Encoding: 68 101 51
Width: 1182
VWidth: 2097
GlyphClass: 2
Flags: HW
LayerCount: 2
Fore
SplineSet
799 904 m 1
 790 907 778 910 764 914 c 128
 750 918 735 921 719 924 c 128
 703 927 686 930 669 932 c 128
 652 934 636 935 621 935 c 0
 569 935 521 925 479 905 c 128
 437 885 401 857 371 820 c 128
 341 783 319 739 303 687 c 128
 287 635 279 577 279 514 c 0
 279 457 285 404 299 356 c 128
 313 308 332 265 358 230 c 128
 384 195 416 167 454 147 c 128
 492 127 535 118 583 118 c 0
 604 118 624 120 644 124 c 128
 664 128 683 135 701 142 c 128
 719 149 738 156 754 165 c 128
 770 174 785 182 799 190 c 1
 799 904 l 1
799 0 m 1
 799 112 l 1
 775 94 750 76 724 59 c 128
 698 42 673 27 646 15 c 128
 619 3 591 -6 563 -14 c 128
 535 -22 505 -26 474 -26 c 0
 404 -26 343 -10 292 20 c 128
 241 50 200 90 167 138 c 128
 134 186 110 240 95 300 c 128
 80 360 72 419 72 478 c 0
 72 549 82 619 104 686 c 128
 126 753 160 812 204 864 c 128
 248 916 304 958 371 989 c 128
 438 1020 516 1036 606 1036 c 0
 622 1036 640 1035 659 1033 c 128
 678 1031 697 1029 715 1027 c 128
 733 1025 749 1021 764 1018 c 128
 779 1015 791 1013 799 1011 c 1
 799 1395 l 1
 640 1395 l 1
 640 1464 l 1
 910 1545 l 1
 994 1545 l 1
 994 134 l 2
 994 121 999 110 1007 102 c 128
 1015 94 1025 89 1038 88 c 2
 1128 82 l 1
 1128 0 l 1
 799 0 l 1
EndSplineSet
EndChar

StartChar: f
Encoding: 69 102 52
Width: 1028
VWidth: 2097
GlyphClass: 2
Flags: HW
LayerCount: 2
Fore
SplineSet
956 104 m 1
 927 86 897 69 865 53 c 128
 833 37 800 24 766 12 c 128
 732 0 699 -8 664 -15 c 128
 629 -22 593 -26 558 -26 c 0
 495 -26 434 -15 375 7 c 128
 316 29 265 60 220 103 c 128
 175 146 139 201 112 266 c 128
 85 331 72 408 72 495 c 0
 72 577 84 650 109 717 c 128
 134 784 167 841 211 888 c 128
 255 935 307 972 367 998 c 128
 427 1024 492 1036 564 1036 c 0
 629 1036 686 1026 735 1004 c 128
 784 982 825 953 858 915 c 128
 891 877 916 832 932 779 c 128
 948 726 956 668 956 606 c 2
 956 579 l 2
 956 568 955 558 954 548 c 1
 274 548 l 1
 274 495 280 441 291 388 c 128
 302 335 321 287 348 245 c 128
 375 203 411 168 456 142 c 128
 501 116 557 102 625 102 c 0
 655 102 685 106 714 114 c 128
 743 122 772 132 800 144 c 128
 828 156 856 171 882 186 c 128
 908 201 932 216 956 232 c 1
 956 104 l 1
746 688 m 2
 746 723 742 755 734 785 c 128
 726 815 714 840 697 862 c 128
 680 884 659 901 633 914 c 128
 607 927 578 933 543 933 c 256
 508 933 475 926 445 913 c 128
 415 900 389 880 366 855 c 128
 343 830 325 799 311 763 c 128
 297 727 289 687 286 642 c 1
 746 642 l 1
 746 688 l 2
EndSplineSet
EndChar

StartChar: g
Encoding: 70 103 53
Width: 684
VWidth: 2097
GlyphClass: 2
Flags: HW
LayerCount: 2
Fore
SplineSet
816 1419 m 0
 816 1398 812 1381 803 1367 c 128
 794 1353 785 1342 774 1333 c 128
 763 1324 752 1318 741 1314 c 128
 730 1310 723 1308 719 1307 c 1
 718 1308 712 1312 702 1319 c 128
 692 1326 680 1335 666 1345 c 128
 652 1355 637 1365 621 1376 c 128
 605 1387 591 1397 577 1407 c 128
 563 1417 552 1426 542 1432 c 128
 532 1438 527 1442 526 1443 c 1
 511 1435 497 1423 482 1408 c 128
 467 1393 454 1373 442 1348 c 128
 430 1323 420 1292 413 1256 c 128
 406 1220 402 1177 402 1128 c 2
 402 994 l 1
 663 994 l 1
 663 887 l 1
 402 887 l 1
 402 134 l 2
 402 121 406 110 415 102 c 128
 424 94 434 89 446 88 c 1
 570 82 l 1
 570 0 l 1
 60 0 l 1
 60 82 l 1
 164 88 l 2
 176 89 186 94 195 102 c 128
 204 110 208 121 208 134 c 2
 208 887 l 1
 74 887 l 1
 74 961 l 1
 208 998 l 1
 208 1033 209 1064 211 1092 c 128
 213 1120 218 1146 224 1170 c 128
 230 1194 237 1218 246 1241 c 128
 255 1264 266 1288 279 1313 c 0
 299 1353 323 1387 350 1416 c 128
 377 1445 406 1469 437 1488 c 128
 468 1507 500 1521 534 1531 c 128
 568 1541 602 1545 636 1545 c 0
 665 1545 691 1542 714 1535 c 128
 737 1528 756 1519 771 1507 c 128
 786 1495 797 1482 805 1467 c 128
 813 1452 816 1436 816 1419 c 0
EndSplineSet
EndChar

StartChar: h
Encoding: 71 104 54
Width: 1100
VWidth: 2097
GlyphClass: 2
Flags: HW
LayerCount: 2
Fore
SplineSet
830 -140 m 0
 830 -111 823 -87 809 -67 c 128
 795 -47 776 -30 752 -17 c 128
 728 -4 702 6 672 14 c 128
 642 22 612 28 582 33 c 128
 552 38 522 43 494 46 c 128
 466 49 441 52 420 56 c 1
 389 45 363 32 343 17 c 128
 323 2 306 -15 294 -33 c 128
 282 -51 273 -69 268 -87 c 128
 263 -105 260 -123 260 -140 c 0
 260 -165 265 -192 276 -221 c 128
 287 -250 304 -276 327 -300 c 128
 350 -324 378 -344 412 -360 c 128
 446 -376 488 -384 535 -384 c 0
 585 -384 628 -376 665 -360 c 128
 702 -344 733 -324 758 -300 c 128
 783 -276 801 -250 813 -221 c 128
 825 -192 830 -165 830 -140 c 0
713 694 m 0
 713 727 709 759 700 790 c 128
 691 821 679 848 663 872 c 128
 647 896 626 915 602 929 c 128
 578 943 549 950 518 950 c 0
 489 950 462 945 437 933 c 128
 412 921 391 904 374 882 c 128
 357 860 343 833 333 801 c 128
 323 769 318 732 318 692 c 0
 318 657 322 624 331 593 c 128
 340 562 352 535 369 512 c 128
 386 489 407 471 432 457 c 128
 457 443 485 436 518 436 c 0
 549 436 578 443 602 457 c 128
 626 471 647 489 663 512 c 128
 679 535 691 563 700 594 c 128
 709 625 713 659 713 694 c 0
856 870 m 1
 872 845 885 818 896 788 c 128
 907 758 912 723 912 682 c 0
 912 627 899 578 874 535 c 128
 849 492 816 456 774 427 c 128
 732 398 683 377 629 364 c 128
 575 351 519 346 460 350 c 1
 452 336 446 322 443 306 c 128
 440 290 438 276 438 262 c 128
 438 248 438 237 439 227 c 128
 440 217 441 211 442 210 c 1
 473 207 510 203 550 199 c 128
 590 195 631 189 673 181 c 128
 715 173 756 163 797 150 c 128
 838 137 874 120 905 99 c 128
 936 78 963 53 982 23 c 128
 1001 -7 1011 -42 1011 -84 c 0
 1011 -134 996 -183 968 -230 c 128
 940 -277 901 -320 852 -357 c 128
 803 -394 745 -423 679 -446 c 128
 613 -469 542 -480 466 -480 c 0
 403 -480 347 -473 298 -458 c 128
 249 -443 208 -422 175 -395 c 128
 142 -368 116 -338 98 -301 c 128
 80 -264 72 -224 72 -182 c 0
 72 -151 76 -123 85 -95 c 128
 94 -67 108 -42 126 -20 c 128
 144 2 167 21 195 37 c 128
 223 53 256 65 294 72 c 1
 290 83 287 92 284 99 c 128
 281 106 279 113 277 119 c 128
 275 125 274 133 273 140 c 128
 272 147 272 156 272 168 c 0
 272 195 280 226 297 259 c 128
 314 292 341 327 378 365 c 1
 343 373 310 385 279 403 c 128
 248 421 220 444 196 471 c 128
 172 498 153 529 139 564 c 128
 125 599 118 638 118 680 c 0
 118 735 128 785 148 829 c 128
 168 873 197 910 234 941 c 128
 271 972 315 996 367 1012 c 128
 419 1028 476 1036 539 1036 c 0
 564 1036 587 1034 611 1030 c 128
 635 1026 656 1020 677 1014 c 128
 698 1008 717 1001 735 993 c 128
 753 985 768 979 782 973 c 1
 1065 973 l 1
 1065 870 l 1
 856 870 l 1
EndSplineSet
EndChar

StartChar: i
Encoding: 72 105 55
Width: 1204
VWidth: 2097
GlyphClass: 2
Flags: HW
LayerCount: 2
Fore
SplineSet
688 0 m 1
 688 82 l 1
 774 88 l 2
 786 89 797 94 806 102 c 128
 815 110 820 121 820 134 c 2
 820 675 l 2
 820 705 816 733 810 758 c 128
 804 783 793 805 777 823 c 128
 761 841 740 856 713 867 c 128
 686 878 652 883 612 883 c 0
 594 883 574 881 554 878 c 128
 534 875 513 870 493 865 c 128
 473 860 454 854 435 846 c 128
 416 838 399 830 384 822 c 1
 384 134 l 2
 384 121 387 110 395 102 c 128
 403 94 413 89 426 88 c 2
 516 82 l 1
 516 0 l 1
 44 0 l 1
 44 82 l 1
 144 88 l 2
 157 89 168 94 176 102 c 128
 184 110 188 121 188 134 c 2
 188 1395 l 1
 32 1395 l 1
 32 1464 l 1
 300 1545 l 1
 384 1545 l 1
 384 906 l 1
 403 918 427 931 455 946 c 128
 483 961 512 976 544 989 c 128
 576 1002 609 1013 641 1022 c 128
 673 1031 703 1036 730 1036 c 0
 770 1036 808 1030 842 1017 c 128
 876 1004 906 984 932 958 c 128
 958 932 978 900 993 860 c 128
 1008 820 1015 773 1015 719 c 2
 1015 134 l 2
 1015 121 1020 110 1029 102 c 128
 1038 94 1049 89 1061 88 c 2
 1155 82 l 1
 1155 0 l 1
 688 0 l 1
EndSplineSet
EndChar

StartChar: j
Encoding: 73 106 56
Width: 635
VWidth: 2097
GlyphClass: 2
Flags: HW
LayerCount: 2
Fore
SplineSet
72 0 m 1
 72 82 l 1
 174 88 l 2
 187 89 198 94 206 102 c 128
 214 110 218 121 218 134 c 2
 218 883 l 1
 74 883 l 1
 74 956 l 1
 330 1036 l 1
 413 1036 l 1
 413 134 l 2
 413 121 416 110 425 102 c 128
 434 94 445 89 457 88 c 2
 564 82 l 1
 564 0 l 1
 72 0 l 1
457 1357 m 256
 457 1339 453 1322 447 1306 c 128
 441 1290 432 1277 420 1265 c 128
 408 1253 394 1244 379 1237 c 128
 364 1230 348 1227 330 1227 c 256
 312 1227 295 1230 279 1237 c 128
 263 1244 250 1253 238 1265 c 128
 226 1277 217 1290 210 1306 c 128
 203 1322 200 1339 200 1357 c 256
 200 1375 203 1391 210 1407 c 128
 217 1423 226 1436 238 1448 c 128
 250 1460 263 1469 279 1475 c 128
 295 1481 312 1485 330 1485 c 256
 348 1485 364 1481 379 1475 c 128
 394 1469 408 1460 420 1448 c 128
 432 1436 441 1423 447 1407 c 128
 453 1391 457 1375 457 1357 c 256
EndSplineSet
EndChar

StartChar: k
Encoding: 74 107 57
Width: 612
VWidth: 2097
GlyphClass: 2
Flags: HW
LayerCount: 2
Fore
SplineSet
424 134 m 2
 424 103 423 68 421 31 c 128
 419 -6 415 -43 409 -81 c 128
 403 -119 396 -155 385 -190 c 128
 374 -225 360 -258 342 -286 c 0
 299 -352 246 -401 185 -433 c 128
 124 -465 60 -480 -6 -480 c 0
 -28 -480 -49 -478 -68 -474 c 128
 -87 -470 -103 -463 -118 -453 c 128
 -133 -443 -144 -431 -153 -416 c 128
 -162 -401 -166 -385 -166 -365 c 0
 -166 -347 -163 -331 -158 -318 c 128
 -153 -305 -146 -293 -137 -283 c 128
 -128 -273 -119 -265 -108 -259 c 128
 -97 -253 -86 -247 -76 -244 c 1
 128 -384 l 1
 147 -373 163 -357 176 -335 c 128
 189 -313 199 -289 207 -259 c 128
 215 -229 221 -196 224 -159 c 128
 227 -122 228 -84 228 -44 c 2
 228 887 l 1
 80 887 l 1
 80 956 l 1
 338 1036 l 1
 424 1036 l 1
 424 134 l 2
446 1357 m 256
 446 1339 443 1322 437 1306 c 128
 431 1290 422 1277 410 1265 c 128
 398 1253 385 1244 369 1237 c 128
 353 1230 336 1227 318 1227 c 256
 300 1227 284 1230 268 1237 c 128
 252 1244 239 1253 227 1265 c 128
 215 1277 206 1290 199 1306 c 128
 192 1322 188 1339 188 1357 c 256
 188 1375 192 1391 199 1407 c 128
 206 1423 215 1436 227 1448 c 128
 239 1460 252 1469 268 1475 c 128
 284 1481 300 1485 318 1485 c 256
 336 1485 353 1481 369 1475 c 128
 385 1469 398 1460 410 1448 c 128
 422 1436 431 1423 437 1407 c 128
 443 1391 446 1375 446 1357 c 256
EndSplineSet
EndChar

StartChar: l
Encoding: 75 108 58
Width: 1120
VWidth: 2097
GlyphClass: 2
Flags: HW
LayerCount: 2
Fore
SplineSet
763 0 m 1
 763 82 l 1
 501 476 l 1
 384 476 l 1
 384 134 l 2
 384 121 388 110 396 102 c 128
 404 94 415 89 428 88 c 2
 518 82 l 1
 518 0 l 1
 42 0 l 1
 42 82 l 1
 144 88 l 2
 157 89 168 94 176 102 c 128
 184 110 188 121 188 134 c 2
 188 1395 l 1
 30 1395 l 1
 30 1464 l 1
 298 1545 l 1
 384 1545 l 1
 384 537 l 1
 426 537 l 1
 734 885 l 2
 739 892 741 899 737 907 c 128
 733 915 727 920 717 921 c 2
 631 929 l 1
 631 1011 l 1
 1038 1011 l 1
 1038 929 l 1
 904 914 l 1
 627 618 l 1
 988 94 l 1
 1099 82 l 1
 1099 0 l 1
 763 0 l 1
EndSplineSet
EndChar

StartChar: m
Encoding: 76 109 59
Width: 622
VWidth: 2097
GlyphClass: 2
Flags: HW
LayerCount: 2
Fore
SplineSet
56 0 m 1
 56 82 l 1
 168 88 l 2
 178 88 187 93 198 103 c 128
 209 113 214 122 214 132 c 2
 214 1395 l 1
 54 1395 l 1
 54 1464 l 1
 323 1545 l 1
 409 1545 l 1
 409 132 l 2
 409 122 413 113 423 103 c 128
 433 93 443 88 453 88 c 2
 566 82 l 1
 566 0 l 1
 56 0 l 1
EndSplineSet
EndChar

StartChar: n
Encoding: 77 110 60
Width: 1782
VWidth: 2097
GlyphClass: 2
Flags: HW
LayerCount: 2
Fore
SplineSet
1267 0 m 1
 1267 82 l 1
 1355 88 l 2
 1368 89 1378 94 1386 102 c 128
 1394 110 1399 121 1399 134 c 2
 1399 669 l 2
 1399 702 1396 731 1390 757 c 128
 1384 783 1373 806 1358 824 c 128
 1343 842 1324 857 1300 867 c 128
 1276 877 1247 883 1212 883 c 0
 1194 883 1176 881 1157 878 c 128
 1138 875 1117 871 1098 866 c 128
 1079 861 1060 854 1041 847 c 128
 1022 840 1004 832 988 824 c 1
 988 134 l 2
 988 121 992 110 1000 102 c 128
 1008 94 1019 89 1032 88 c 2
 1120 82 l 1
 1120 0 l 1
 660 0 l 1
 660 82 l 1
 749 88 l 2
 762 89 772 94 780 102 c 128
 788 110 793 121 793 134 c 2
 793 682 l 2
 793 711 789 738 783 763 c 128
 777 788 766 810 751 827 c 128
 736 844 718 858 694 868 c 128
 670 878 641 883 608 883 c 0
 588 883 568 881 546 877 c 128
 524 873 504 869 484 863 c 128
 464 857 446 850 429 843 c 128
 412 836 396 829 384 822 c 1
 384 134 l 2
 384 121 388 110 396 102 c 128
 404 94 415 89 428 88 c 2
 516 82 l 1
 516 0 l 1
 42 0 l 1
 42 82 l 1
 144 88 l 2
 157 89 168 94 176 102 c 128
 184 110 188 121 188 134 c 2
 188 862 l 1
 44 862 l 1
 44 931 l 1
 298 1011 l 1
 384 1011 l 1
 384 906 l 1
 407 920 433 935 461 950 c 128
 489 965 519 979 549 992 c 128
 579 1005 609 1016 639 1024 c 128
 669 1032 699 1036 726 1036 c 0
 756 1036 783 1032 808 1023 c 128
 833 1014 854 1004 873 990 c 128
 892 976 908 960 922 943 c 128
 936 926 947 908 956 891 c 1
 977 904 1003 919 1033 936 c 128
 1063 953 1095 969 1128 984 c 128
 1161 999 1196 1011 1229 1021 c 128
 1262 1031 1293 1036 1321 1036 c 0
 1376 1036 1421 1026 1456 1006 c 128
 1491 986 1519 960 1539 929 c 128
 1559 898 1572 863 1580 825 c 128
 1588 787 1591 750 1591 715 c 2
 1591 134 l 2
 1591 121 1595 110 1604 102 c 128
 1613 94 1623 89 1635 88 c 2
 1737 82 l 1
 1737 0 l 1
 1267 0 l 1
EndSplineSet
EndChar

StartChar: o
Encoding: 78 111 61
Width: 1188
VWidth: 2097
GlyphClass: 2
Flags: HW
LayerCount: 2
Fore
SplineSet
684 0 m 1
 684 82 l 1
 772 88 l 2
 784 89 794 94 803 102 c 128
 812 110 816 121 816 134 c 2
 816 680 l 2
 816 746 801 797 770 831 c 128
 739 865 687 883 614 883 c 0
 574 883 535 877 496 866 c 128
 457 855 419 840 384 822 c 1
 384 134 l 2
 384 121 388 110 396 102 c 128
 404 94 415 89 428 88 c 2
 516 82 l 1
 516 0 l 1
 42 0 l 1
 42 82 l 1
 144 88 l 2
 157 89 168 94 176 102 c 128
 184 110 188 121 188 134 c 2
 188 862 l 1
 42 862 l 1
 42 931 l 1
 298 1011 l 1
 384 1011 l 1
 384 906 l 1
 413 922 444 938 474 954 c 128
 504 970 534 984 564 996 c 128
 594 1008 623 1019 651 1026 c 128
 679 1033 705 1036 730 1036 c 0
 821 1036 891 1008 939 951 c 128
 987 894 1011 815 1011 713 c 2
 1011 134 l 2
 1011 121 1014 110 1023 102 c 128
 1032 94 1043 89 1055 88 c 2
 1147 82 l 1
 1147 0 l 1
 684 0 l 1
EndSplineSet
EndChar

StartChar: p
Encoding: 79 112 62
Width: 1140
VWidth: 2097
GlyphClass: 2
Flags: HW
LayerCount: 2
Fore
SplineSet
851 506 m 256
 851 563 845 618 834 671 c 128
 823 724 805 770 782 810 c 128
 759 850 730 882 695 906 c 128
 660 930 619 942 572 942 c 0
 524 942 481 930 446 906 c 128
 411 882 382 850 359 810 c 128
 336 770 319 724 308 671 c 128
 297 618 292 563 292 506 c 0
 292 449 298 395 309 342 c 128
 320 289 337 243 360 203 c 128
 383 163 412 130 447 106 c 128
 482 82 523 70 570 70 c 0
 618 70 660 81 695 105 c 128
 730 129 760 162 783 202 c 128
 806 242 823 288 834 341 c 128
 845 394 851 449 851 506 c 256
1069 504 m 0
 1069 430 1058 360 1034 295 c 128
 1010 230 976 174 933 127 c 128
 890 80 838 42 776 15 c 128
 714 -12 644 -26 568 -26 c 256
 492 -26 422 -12 361 15 c 128
 300 42 248 79 205 126 c 128
 162 173 129 228 106 293 c 128
 83 358 72 428 72 504 c 0
 72 578 83 648 106 713 c 128
 129 778 163 834 207 882 c 128
 251 930 303 968 365 995 c 128
 427 1022 496 1036 574 1036 c 256
 652 1036 722 1022 783 994 c 128
 844 966 897 928 939 880 c 128
 981 832 1014 776 1036 711 c 128
 1058 646 1069 578 1069 504 c 0
EndSplineSet
EndChar

StartChar: q
Encoding: 80 113 63
Width: 1172
VWidth: 2097
GlyphClass: 2
Flags: HW
LayerCount: 2
Fore
SplineSet
891 490 m 0
 891 544 885 596 872 644 c 128
 859 692 841 734 816 771 c 128
 791 808 761 836 724 857 c 128
 687 878 646 889 598 889 c 0
 571 889 546 886 520 879 c 128
 494 872 472 865 452 857 c 0
 429 848 406 838 384 826 c 1
 384 104 l 1
 400 98 418 93 436 88 c 0
 452 84 470 80 490 77 c 128
 510 74 532 72 554 72 c 0
 611 72 661 83 703 106 c 128
 745 129 780 160 808 199 c 128
 836 238 856 282 870 333 c 128
 884 384 891 435 891 490 c 0
1101 520 m 0
 1101 437 1088 362 1064 295 c 128
 1040 228 1005 170 960 123 c 128
 915 76 859 39 793 13 c 128
 727 -13 653 -26 570 -26 c 0
 551 -26 531 -25 509 -23 c 128
 487 -21 467 -19 449 -16 c 0
 427 -13 405 -10 384 -6 c 1
 384 -318 l 2
 384 -331 388 -341 397 -349 c 128
 406 -357 417 -361 430 -362 c 2
 554 -376 l 1
 554 -457 l 1
 44 -457 l 1
 44 -376 l 1
 144 -362 l 2
 157 -361 168 -357 176 -349 c 128
 184 -341 188 -331 188 -318 c 2
 188 862 l 1
 44 862 l 1
 44 931 l 1
 302 1011 l 1
 384 1011 l 1
 384 906 l 1
 414 930 446 952 480 971 c 0
 509 987 544 1002 582 1016 c 128
 620 1030 659 1036 700 1036 c 0
 754 1036 806 1024 854 999 c 128
 902 974 945 940 982 895 c 128
 1019 850 1047 795 1069 732 c 128
 1091 669 1101 598 1101 520 c 0
EndSplineSet
EndChar

StartChar: r
Encoding: 81 114 64
Width: 1150
VWidth: 2097
GlyphClass: 2
Flags: HW
LayerCount: 2
Fore
SplineSet
780 916 m 1
 761 920 739 925 715 931 c 128
 691 937 665 940 636 940 c 0
 579 940 528 929 484 909 c 128
 440 889 403 860 373 823 c 128
 343 786 321 741 306 689 c 128
 291 637 283 578 283 514 c 0
 283 460 289 408 301 358 c 128
 313 308 331 263 357 225 c 128
 383 187 415 156 455 133 c 128
 495 110 543 98 600 98 c 0
 613 98 628 99 644 101 c 128
 660 103 676 105 692 108 c 128
 708 111 725 113 740 117 c 128
 755 121 768 125 780 128 c 1
 780 916 l 1
612 -457 m 1
 612 -378 l 1
 736 -367 l 2
 748 -366 758 -361 767 -353 c 128
 776 -345 780 -336 780 -323 c 2
 780 56 l 1
 760 46 739 38 715 28 c 128
 691 18 665 10 639 2 c 128
 613 -6 587 -13 561 -18 c 128
 535 -23 509 -26 486 -26 c 0
 421 -26 363 -13 312 14 c 128
 261 41 217 77 182 123 c 128
 147 169 119 223 100 284 c 128
 81 345 72 410 72 480 c 0
 72 565 86 642 113 711 c 128
 140 780 179 838 231 886 c 128
 283 934 347 971 422 997 c 128
 497 1023 582 1036 678 1036 c 0
 697 1036 719 1036 744 1034 c 128
 769 1032 795 1030 822 1027 c 128
 849 1024 875 1020 902 1016 c 128
 929 1012 953 1007 975 1002 c 1
 975 -323 l 2
 975 -336 979 -346 988 -353 c 128
 997 -360 1007 -365 1019 -367 c 2
 1120 -378 l 1
 1120 -457 l 1
 612 -457 l 1
EndSplineSet
EndChar

StartChar: s
Encoding: 82 115 65
Width: 820
VWidth: 2097
GlyphClass: 2
Flags: HW
LayerCount: 2
Fore
SplineSet
717 797 m 1
 703 813 688 826 670 837 c 128
 652 848 630 854 604 854 c 0
 570 854 536 843 501 820 c 128
 466 797 430 765 394 724 c 1
 394 134 l 2
 394 121 399 110 407 102 c 128
 415 94 425 89 438 88 c 1
 577 82 l 1
 577 0 l 1
 52 0 l 1
 52 80 l 1
 156 88 l 2
 168 89 178 94 187 102 c 128
 196 110 200 121 200 134 c 2
 200 862 l 1
 48 862 l 1
 48 931 l 1
 308 1011 l 1
 394 1011 l 1
 394 824 l 1
 409 840 427 861 449 885 c 128
 471 909 493 932 518 955 c 128
 543 978 568 997 594 1013 c 128
 620 1029 646 1036 671 1036 c 0
 682 1036 694 1035 706 1033 c 128
 718 1031 729 1029 741 1026 c 128
 753 1023 764 1019 774 1015 c 128
 784 1011 792 1008 799 1005 c 1
 799 797 l 1
 717 797 l 1
EndSplineSet
EndChar

StartChar: t
Encoding: 83 116 66
Width: 834
VWidth: 2097
GlyphClass: 2
Flags: HW
LayerCount: 2
Fore
SplineSet
763 304 m 0
 763 253 753 207 735 166 c 128
 717 125 690 90 656 62 c 128
 622 34 580 12 530 -3 c 128
 480 -18 424 -26 362 -26 c 0
 330 -26 299 -24 269 -20 c 128
 239 -16 211 -12 185 -6 c 128
 159 0 137 6 117 12 c 128
 97 18 82 24 72 28 c 1
 72 306 l 1
 178 306 l 1
 204 128 l 1
 225 114 251 102 282 89 c 128
 313 76 349 70 390 70 c 0
 420 70 447 74 470 83 c 128
 493 92 513 105 529 120 c 128
 545 135 557 153 566 172 c 128
 575 191 579 211 579 232 c 0
 579 261 573 287 561 308 c 128
 549 329 533 347 511 364 c 128
 489 381 463 397 431 413 c 128
 399 429 363 446 323 466 c 0
 285 484 250 503 221 521 c 128
 192 539 167 558 147 579 c 128
 127 600 111 623 101 648 c 128
 91 673 86 701 86 732 c 0
 86 778 94 820 111 858 c 128
 128 896 152 928 184 954 c 128
 216 980 256 1001 303 1015 c 128
 350 1029 403 1036 464 1036 c 0
 495 1036 524 1034 552 1031 c 128
 580 1028 606 1024 629 1019 c 128
 652 1014 672 1009 690 1004 c 128
 708 999 722 993 732 988 c 1
 732 740 l 1
 623 740 l 1
 606 887 l 1
 591 899 569 910 540 920 c 128
 511 930 479 935 446 935 c 0
 388 935 346 921 318 895 c 128
 290 869 276 836 276 795 c 0
 276 771 280 750 288 732 c 128
 296 714 309 698 327 682 c 128
 345 666 369 650 399 634 c 128
 429 618 466 599 510 579 c 0
 547 563 580 545 611 527 c 128
 642 509 668 490 691 468 c 128
 714 446 731 422 744 395 c 128
 757 368 763 338 763 304 c 0
EndSplineSet
EndChar

StartChar: u
Encoding: 84 117 67
Width: 712
VWidth: 2097
GlyphClass: 2
Flags: HW
LayerCount: 2
Fore
SplineSet
698 44 m 1
 672 31 644 19 613 9 c 0
 587 0 557 -8 523 -15 c 128
 489 -22 454 -26 416 -26 c 0
 337 -26 279 -7 244 30 c 128
 209 67 190 127 190 210 c 2
 190 906 l 1
 56 906 l 1
 56 975 l 1
 200 1042 l 1
 294 1265 l 1
 386 1265 l 1
 386 1011 l 1
 682 1011 l 1
 682 906 l 1
 386 906 l 1
 386 321 l 2
 386 279 390 244 397 215 c 128
 404 186 415 162 429 144 c 128
 443 126 460 112 481 104 c 128
 502 96 526 92 554 92 c 0
 574 92 594 94 611 97 c 128
 628 100 643 105 656 110 c 0
 671 115 685 121 698 128 c 1
 698 44 l 1
EndSplineSet
EndChar

StartChar: v
Encoding: 85 118 68
Width: 1192
VWidth: 2097
GlyphClass: 2
Flags: HW
LayerCount: 2
Fore
SplineSet
816 0 m 1
 816 120 l 1
 798 106 777 91 751 74 c 128
 725 57 698 41 668 26 c 128
 638 11 607 -1 575 -11 c 128
 543 -21 511 -26 480 -26 c 0
 435 -26 395 -19 359 -6 c 128
 323 7 293 28 268 56 c 128
 243 84 223 118 210 161 c 128
 197 204 190 255 190 314 c 2
 190 883 l 1
 44 883 l 1
 44 954 l 1
 302 1036 l 1
 386 1036 l 1
 386 354 l 2
 386 317 390 284 397 255 c 128
 404 226 416 200 432 180 c 128
 448 160 469 145 495 134 c 128
 521 123 552 118 589 118 c 0
 610 118 631 120 653 124 c 128
 675 128 696 134 716 140 c 128
 736 146 755 153 772 160 c 128
 789 167 804 174 816 180 c 1
 816 883 l 1
 669 883 l 1
 669 954 l 1
 925 1036 l 1
 1011 1036 l 1
 1011 134 l 2
 1011 121 1016 110 1025 102 c 128
 1034 94 1045 89 1057 88 c 2
 1149 82 l 1
 1149 0 l 1
 816 0 l 1
EndSplineSet
EndChar

StartChar: w
Encoding: 86 119 69
Width: 1108
VWidth: 2097
GlyphClass: 2
Flags: HW
LayerCount: 2
Fore
SplineSet
977 916 m 1
 610 0 l 1
 474 0 l 1
 136 916 l 1
 20 929 l 1
 20 1011 l 1
 484 1011 l 1
 484 929 l 1
 384 923 l 2
 372 922 363 916 356 907 c 128
 349 898 348 889 352 877 c 2
 587 220 l 1
 845 877 l 2
 850 888 849 898 843 907 c 128
 837 916 828 922 816 923 c 2
 722 929 l 1
 722 1011 l 1
 1089 1011 l 1
 1089 929 l 1
 977 916 l 1
EndSplineSet
EndChar

StartChar: x
Encoding: 87 120 70
Width: 1642
VWidth: 2097
GlyphClass: 2
Flags: HW
LayerCount: 2
Fore
SplineSet
1514 916 m 1
 1227 0 l 1
 1078 0 l 1
 830 784 l 1
 554 0 l 1
 404 0 l 1
 136 916 l 1
 20 929 l 1
 20 1011 l 1
 480 1011 l 1
 480 929 l 1
 382 923 l 2
 370 922 361 916 355 907 c 128
 349 898 347 889 350 877 c 2
 524 224 l 1
 795 1011 l 1
 944 1011 l 1
 1187 224 l 1
 1380 877 l 2
 1383 888 1383 898 1377 907 c 128
 1371 916 1363 922 1351 923 c 2
 1254 929 l 1
 1254 1011 l 1
 1621 1011 l 1
 1621 929 l 1
 1514 916 l 1
EndSplineSet
EndChar

StartChar: y
Encoding: 88 121 71
Width: 1069
VWidth: 2097
GlyphClass: 2
Flags: HW
LayerCount: 2
Fore
SplineSet
598 0 m 1
 598 82 l 1
 669 90 l 2
 679 91 685 96 689 104 c 128
 693 112 692 120 688 128 c 1
 508 396 l 1
 302 128 l 2
 297 122 295 114 297 105 c 128
 299 96 304 91 314 90 c 2
 420 82 l 1
 420 0 l 1
 20 0 l 1
 20 82 l 1
 140 98 l 1
 440 488 l 1
 156 910 l 1
 32 929 l 1
 32 1011 l 1
 493 1011 l 1
 493 929 l 1
 420 919 l 2
 410 918 403 912 399 904 c 128
 395 896 394 889 398 881 c 1
 564 646 l 1
 746 881 l 2
 751 887 754 894 751 903 c 128
 748 912 742 918 732 919 c 2
 642 929 l 1
 642 1011 l 1
 1019 1011 l 1
 1019 929 l 1
 906 910 l 1
 625 552 l 1
 935 98 l 1
 1049 82 l 1
 1049 0 l 1
 598 0 l 1
EndSplineSet
EndChar

StartChar: z
Encoding: 89 122 72
Width: 1111
VWidth: 2097
GlyphClass: 2
Flags: HW
LayerCount: 2
Fore
SplineSet
981 916 m 1
 579 -65 l 2
 572 -82 562 -104 550 -133 c 128
 538 -162 523 -193 506 -225 c 128
 489 -257 471 -290 451 -321 c 128
 431 -352 410 -378 388 -400 c 0
 363 -425 335 -445 305 -459 c 128
 275 -473 241 -480 206 -480 c 0
 181 -480 159 -477 140 -471 c 128
 121 -465 105 -455 92 -444 c 128
 79 -433 69 -421 62 -406 c 128
 55 -391 52 -376 52 -360 c 0
 52 -336 57 -314 68 -294 c 128
 79 -274 96 -254 120 -234 c 1
 316 -325 l 1
 333 -308 351 -286 369 -258 c 128
 387 -230 403 -201 419 -170 c 128
 435 -139 449 -108 462 -78 c 128
 475 -48 485 -21 493 2 c 1
 136 916 l 1
 20 929 l 1
 20 1011 l 1
 484 1011 l 1
 484 929 l 1
 384 923 l 2
 372 922 363 916 356 907 c 128
 349 898 348 889 352 877 c 2
 596 258 l 1
 845 877 l 2
 850 888 849 898 843 907 c 128
 837 916 828 922 816 923 c 2
 717 929 l 1
 717 1011 l 1
 1091 1011 l 1
 1091 929 l 1
 981 916 l 1
EndSplineSet
EndChar

StartChar: braceleft
Encoding: 90 123 73
Width: 968
VWidth: 2097
GlyphClass: 2
Flags: HW
LayerCount: 2
Fore
SplineSet
72 0 m 1
 72 112 l 1
 627 912 l 1
 262 912 l 2
 252 912 243 908 235 898 c 128
 227 888 222 878 220 868 c 1
 200 713 l 1
 92 713 l 1
 92 1011 l 1
 868 1011 l 1
 868 925 l 1
 294 100 l 1
 717 100 l 2
 722 100 727 102 732 105 c 128
 737 108 742 113 746 118 c 128
 750 123 754 128 757 134 c 128
 760 140 762 146 763 151 c 2
 784 316 l 1
 898 316 l 1
 898 0 l 1
 72 0 l 1
EndSplineSet
EndChar

StartChar: bar
Encoding: 91 124 74
Width: 1022
VWidth: 2097
GlyphClass: 2
Flags: HW
LayerCount: 2
Fore
SplineSet
879 -258 m 1
 842 -258 805 -257 769 -254 c 128
 733 -251 699 -246 667 -239 c 128
 635 -232 605 -223 579 -211 c 128
 553 -199 531 -184 514 -166 c 0
 490 -141 473 -115 461 -86 c 128
 449 -57 441 -26 436 6 c 128
 431 38 428 71 428 104 c 2
 428 285 l 2
 428 313 426 341 423 368 c 128
 420 395 414 420 406 445 c 128
 398 470 385 490 369 506 c 0
 357 518 343 528 327 535 c 128
 311 542 293 548 274 552 c 128
 255 556 232 559 208 560 c 128
 184 561 157 562 126 562 c 1
 126 656 l 1
 157 656 184 657 208 658 c 128
 232 659 255 663 274 667 c 128
 293 671 311 677 327 684 c 128
 343 691 357 701 369 713 c 0
 385 729 398 748 406 773 c 128
 414 798 420 824 423 851 c 128
 426 878 428 906 428 934 c 2
 428 1113 l 2
 428 1147 431 1180 436 1212 c 128
 441 1244 449 1275 461 1304 c 128
 473 1333 490 1359 514 1384 c 0
 531 1402 553 1418 579 1430 c 128
 605 1442 635 1451 667 1458 c 128
 699 1465 733 1470 769 1473 c 128
 805 1476 842 1477 879 1477 c 1
 879 1391 l 1
 870 1391 856 1390 838 1389 c 128
 820 1388 800 1384 778 1380 c 128
 756 1376 735 1370 715 1361 c 128
 695 1352 678 1341 665 1327 c 0
 651 1311 639 1292 632 1269 c 128
 625 1246 620 1220 617 1192 c 128
 614 1164 614 1136 614 1106 c 128
 614 1076 614 1046 614 1017 c 0
 614 993 614 968 613 942 c 128
 612 916 609 890 605 864 c 128
 601 838 595 814 587 791 c 128
 579 768 568 748 554 730 c 0
 526 694 493 667 454 650 c 128
 415 633 375 620 332 610 c 1
 375 600 415 587 454 569 c 128
 493 551 526 524 554 488 c 0
 568 470 579 451 587 428 c 128
 595 405 601 381 605 355 c 128
 609 329 612 303 613 277 c 128
 614 251 614 226 614 202 c 0
 614 173 614 143 614 113 c 128
 614 83 614 54 617 26 c 128
 620 -2 625 -27 632 -50 c 128
 639 -73 651 -93 665 -109 c 0
 678 -123 695 -134 715 -143 c 128
 735 -152 756 -158 778 -162 c 128
 800 -166 820 -169 838 -170 c 128
 856 -171 870 -172 879 -172 c 1
 879 -258 l 1
EndSplineSet
EndChar

StartChar: braceright
Encoding: 92 125 75
Width: 741
VWidth: 2097
GlyphClass: 2
Flags: HW
LayerCount: 2
Fore
SplineSet
307 -541 m 1
 307 1669 l 1
 434 1669 l 1
 434 -541 l 1
 307 -541 l 1
EndSplineSet
EndChar

StartChar: asciitilde
Encoding: 93 126 76
Width: 1022
VWidth: 2097
GlyphClass: 2
Flags: HW
LayerCount: 2
Fore
SplineSet
898 562 m 1
 837 562 788 559 750 552 c 128
 712 545 679 530 654 506 c 0
 638 490 625 470 617 445 c 128
 609 420 604 395 601 368 c 128
 598 341 596 313 596 285 c 2
 596 104 l 2
 596 71 593 38 588 6 c 128
 583 -26 575 -57 563 -86 c 128
 551 -115 533 -141 510 -166 c 0
 492 -184 470 -199 444 -211 c 128
 418 -223 389 -232 357 -239 c 128
 325 -246 291 -251 255 -254 c 128
 219 -257 182 -258 144 -258 c 1
 144 -172 l 1
 153 -172 167 -171 185 -170 c 128
 203 -169 223 -166 245 -162 c 128
 267 -158 288 -152 308 -143 c 128
 328 -134 345 -123 358 -109 c 0
 373 -93 384 -73 391 -50 c 128
 398 -27 403 -2 406 26 c 128
 409 54 409 83 409 113 c 128
 409 143 409 173 409 202 c 0
 409 226 409 251 410 277 c 128
 411 303 414 329 418 355 c 128
 422 381 428 405 436 428 c 128
 444 451 456 470 470 488 c 1
 497 524 530 551 569 569 c 128
 608 587 649 600 692 610 c 1
 670 615 649 621 629 627 c 128
 609 633 588 640 569 650 c 128
 550 660 533 671 516 684 c 128
 499 697 484 712 470 730 c 0
 456 748 444 768 436 791 c 128
 428 814 422 838 418 864 c 128
 414 890 411 916 410 942 c 128
 409 968 409 993 409 1017 c 0
 409 1046 409 1076 409 1106 c 128
 409 1136 409 1164 406 1192 c 128
 403 1220 398 1246 391 1269 c 128
 384 1292 373 1311 358 1327 c 0
 345 1341 328 1352 308 1361 c 128
 288 1370 267 1376 245 1380 c 128
 223 1384 203 1388 185 1389 c 128
 167 1390 153 1391 144 1391 c 1
 144 1477 l 1
 182 1477 219 1476 255 1473 c 128
 291 1470 325 1465 357 1458 c 128
 389 1451 418 1442 444 1430 c 128
 470 1418 492 1402 510 1384 c 0
 533 1359 551 1333 563 1304 c 128
 575 1275 583 1244 588 1212 c 128
 593 1180 596 1147 596 1113 c 2
 596 934 l 2
 596 906 598 878 601 851 c 128
 604 824 609 798 617 773 c 128
 625 748 638 729 654 713 c 0
 679 689 712 674 750 667 c 128
 788 660 837 656 898 656 c 1
 898 562 l 1
EndSplineSet
EndChar

StartChar: nbspace
Encoding: 94 160 77
Width: 1746
VWidth: 2097
GlyphClass: 2
Flags: HW
LayerCount: 2
Fore
SplineSet
1567 642 m 1
 1527 614 1489 591 1454 572 c 128
 1419 553 1386 538 1354 526 c 128
 1322 514 1292 507 1262 502 c 128
 1232 497 1202 495 1172 495 c 0
 1122 495 1073 502 1024 517 c 128
 975 532 926 547 876 565 c 128
 826 583 775 599 724 614 c 128
 673 629 620 636 566 636 c 0
 513 636 453 621 386 592 c 128
 319 563 250 523 180 472 c 1
 180 608 l 1
 255 661 326 699 393 722 c 128
 460 745 522 757 579 757 c 0
 630 757 681 750 732 735 c 128
 783 720 834 704 885 687 c 128
 936 670 985 653 1033 638 c 128
 1081 623 1129 616 1175 616 c 0
 1225 616 1281 628 1345 652 c 128
 1409 676 1483 717 1567 778 c 1
 1567 642 l 1
EndSplineSet
EndChar

StartChar: exclam
Encoding: 1 33 83
Width: 708
VWidth: 2097
GlyphClass: 2
Flags: HW
LayerCount: 2
Fore
SplineSet
484 104 m 0
 484 87 481 71 474 55 c 128
 467 39 458 26 446 14 c 128
 434 2 420 -8 404 -15 c 128
 388 -22 372 -26 354 -26 c 256
 336 -26 320 -22 304 -15 c 128
 288 -8 275 2 263 14 c 128
 251 26 242 39 236 55 c 128
 230 71 226 87 226 104 c 0
 226 122 230 139 236 155 c 128
 242 171 251 184 263 196 c 128
 275 208 288 217 304 223 c 128
 320 229 336 232 354 232 c 256
 372 232 388 229 404 223 c 128
 420 217 434 208 446 196 c 128
 458 184 467 171 474 155 c 128
 481 139 484 122 484 104 c 0
482 1305 m 0
 482 1301 481 1284 479 1255 c 128
 477 1226 473 1189 470 1145 c 128
 467 1101 462 1052 458 997 c 128
 454 942 449 886 444 829 c 0
 432 696 421 547 407 380 c 1
 304 380 l 1
 290 547 277 696 265 829 c 0
 260 886 256 942 251 997 c 128
 246 1052 242 1101 239 1145 c 128
 236 1189 232 1226 230 1255 c 128
 228 1284 226 1301 226 1305 c 0
 226 1347 237 1380 257 1404 c 128
 277 1428 310 1441 354 1441 c 256
 398 1441 432 1428 452 1404 c 128
 472 1380 482 1347 482 1305 c 0
EndSplineSet
EndChar

StartChar: quoteleft
Encoding: 216 8216 84
Width: 446
VWidth: 1596
GlyphClass: 2
Flags: HW
HStem: 1039 599
VStem: 102 121<1239 1378>
LayerCount: 2
Fore
SplineSet
317 1574 m 1
 250 1455 223 1383 223 1333 c 0
 223 1264 275 1227 344 1179 c 1
 258 1039 l 1
 111 1129 102 1217 102 1240 c 0
 102 1303 176 1443 280 1638 c 1
 317 1574 l 1
EndSplineSet
EndChar

StartChar: dottedcircle
Encoding: 221 9676 85
Width: 1117
VWidth: 1596
GlyphClass: 2
Flags: HW
HStem: 60 135<496 622> 108 133<297 424 690 815> 252 135<158 284 831 958> 443 135<107 233 886 1008> 634 135<158 284 837 951> 780 135<300 426 687 806> 831 135<498 624> 1039 138<0 1117>
VStem: 102 135<447 573> 154 135<256 382 639 765> 294 135<113 238 785 909> 492 135<64 191 836 961> 685 135<109 235 793 916> 827 135<256 382 651 777> 880 135<453 579>
AnchorPoint: "blwm" 823 -143 basechar 0
AnchorPoint: "N" 205 33 basechar 0
AnchorPoint: "abvm" 551 1108 basechar 0
AnchorPoint: "vatu" 852 -96 basechar 0
LayerCount: 2
Fore
SplineSet
295 847 m 0x3d38
 295 886 328 914 363 914 c 0
 402 914 430 882 430 847 c 0
 430 808 398 780 363 780 c 0
 324 780 295 812 295 847 c 0x3d38
154 702 m 0x3978
 154 741 186 769 221 769 c 0
 260 769 288 737 288 702 c 0
 288 663 256 634 221 634 c 0
 182 634 154 667 154 702 c 0x3978
102 510 m 0x39b8
 102 549 135 578 170 578 c 0
 209 578 237 545 237 510 c 0
 237 471 205 443 170 443 c 0
 131 443 102 475 102 510 c 0x39b8
154 319 m 0x3978
 154 358 186 386 221 386 c 0
 260 386 288 354 288 319 c 0
 288 280 256 252 221 252 c 0
 182 252 154 284 154 319 c 0x3978
294 176 m 0
 294 220 327 241 361 241 c 0
 395 241 428 220 428 176 c 0
 428 137 396 108 361 108 c 0x7938
 322 108 294 141 294 176 c 0
492 127 m 0
 492 166 523 195 559 195 c 0
 595 195 627 166 627 127 c 0
 627 88 595 60 559 60 c 0xb938
 523 60 492 88 492 127 c 0
685 172 m 0
 685 190 692 206 705 219 c 0
 718 232 734 239 752 239 c 0
 791 239 820 207 820 172 c 0
 820 133 787 105 752 105 c 0
 713 105 685 137 685 172 c 0
827 319 m 0x393c
 827 358 859 386 894 386 c 0
 933 386 961 354 961 319 c 0
 961 275 928 253 894 253 c 0
 860 253 827 275 827 319 c 0x393c
880 516 m 0x393a
 880 555 912 583 947 583 c 0
 986 583 1015 551 1015 516 c 0
 1015 477 982 448 947 448 c 0
 908 448 880 481 880 516 c 0x393a
827 714 m 0x393c
 827 753 859 781 894 781 c 0
 933 781 961 749 961 714 c 0
 961 675 929 647 894 647 c 0
 855 647 827 679 827 714 c 0x393c
680 854 m 0
 680 893 712 921 747 921 c 0
 791 921 813 888 813 854 c 0
 813 820 791 787 747 787 c 0
 708 787 680 819 680 854 c 0
494 898 m 0
 494 937 526 966 561 966 c 0
 600 966 628 933 628 898 c 0
 628 859 596 831 561 831 c 0x3b38
 522 831 494 863 494 898 c 0
1189 1039 m 1
 0 1039 l 1
 -72 1178 l 1
 1117 1178 l 1
 1189 1039 l 1
EndSplineSet
EndChar

StartChar: u0950
Encoding: 172 2384 86
Width: 2142
VWidth: 1596
GlyphClass: 2
Flags: HW
HStem: 0 172<480 791> 368 144<1006 1212> 395 141<1565 1775> 580 135<498 640> 920 108<1635 1808> 1007 135<1066 1357> 1074 109<457 716>
VStem: 806 110<829 980> 897 113<269 421> 1866 113<632 844>
LayerCount: 2
Fore
SplineSet
809 682 m 1xd340
 855 659 905 614 942 562 c 1
 992 517 1042 512 1089 512 c 0xd340
 1221 512 1314 650 1404 817 c 1
 1451 908 1540 1027 1678 1027 c 1
 1813 1025 1978 867 1978 676 c 0
 1978 496 1855 395 1711 395 c 0xb940
 1600 395 1501 464 1433 593 c 1
 1365 470 1281 368 1165 368 c 0
 1086 368 1039 387 992 422 c 1
 1004 378 1010 335 1010 296 c 0
 1010 119 869 0 652 0 c 0
 447 0 277 172 164 473 c 1
 229 513 l 1
 321 294 463 172 625 172 c 0
 771 172 897 256 897 392 c 0xd0c0
 897 495 827 599 727 640 c 1
 636 608 561 588 502 580 c 1
 500 594 482 639 447 715 c 1
 483 718 806 757 806 923 c 0
 806 1002 721 1074 615 1074 c 0
 565 1074 442 1042 373 973 c 1
 291 1102 l 1
 381 1156 471 1183 562 1183 c 0
 742 1183 915 992 915 834 c 0
 915 761 880 728 809 682 c 1xd340
1866 773 m 0
 1866 841 1822 920 1740 920 c 0
 1688 920 1590 882 1478 659 c 1
 1494 627 1552 537 1656 537 c 0xb840
 1762 537 1866 636 1866 773 c 0
1366 1375 m 1
 1215 1221 l 1
 1064 1375 l 1
 1215 1526 l 1
 1366 1375 l 1
1494 1346 m 1
 1635 1258 l 1
 1522 1045 1351 1007 1252 1007 c 0
 1059 1007 896 1134 828 1297 c 1
 901 1359 l 1
 1015 1168 1151 1142 1213 1142 c 0x9440
 1326 1142 1429 1214 1494 1346 c 1
EndSplineSet
EndChar

StartChar: u093D
Encoding: 154 2365 87
Width: 1064
VWidth: 1597
GlyphClass: 4
Flags: HW
HStem: 0 134<368 637> 1039 138<443 829>
VStem: 164 61<290 308> 287 151<922 1065> 742 152<241 490>
LayerCount: 2
Fore
SplineSet
287 1036 m 0
 287 1093 327 1178 455 1178 c 2
 829 1178 l 1
 901 1039 l 1
 509 1039 l 2
 469 1039 437 1015 437 978 c 0
 437 950 456 917 542 838 c 2
 678 713 l 1
 836 562 894 430 894 322 c 0
 894 123 725 0 547 0 c 0
 390 0 225 98 164 298 c 1
 225 342 l 1
 297 192 401 134 497 134 c 0
 627 134 742 241 742 371 c 0
 742 454 699 557 578 679 c 1
 440 807 l 2
 335 905 287 965 287 1036 c 0
EndSplineSet
EndChar

StartChar: u0903
Encoding: 98 2307 88
Width: 569
VWidth: 1596
GlyphClass: 2
Flags: HW
HStem: 1039 138<0 532>
LayerCount: 2
Fore
SplineSet
467 750 m 1
 287 568 l 1
 104 753 l 1
 283 933 l 1
 467 750 l 1
467 264 m 1
 287 82 l 1
 104 266 l 1
 283 446 l 1
 467 264 l 1
641 1039 m 1
 0 1039 l 1
 -72 1178 l 1
 569 1178 l 1
 641 1039 l 1
EndSplineSet
EndChar

StartChar: quoteright
Encoding: 217 8217 89
Width: 445
VWidth: 1596
GlyphClass: 2
Flags: HW
HStem: 1039 599
VStem: 230 113<1272 1478>
LayerCount: 2
Fore
SplineSet
144 1102 m 1
 190 1192 230 1299 230 1358 c 0
 230 1388 220 1428 102 1496 c 1
 183 1638 l 1
 297 1574 343 1517 343 1440 c 0
 343 1348 280 1220 184 1039 c 1
 144 1102 l 1
EndSplineSet
EndChar

StartChar: parenleft
Encoding: 8 40 90
Width: 788
VWidth: 2097
GlyphClass: 2
Flags: HW
LayerCount: 2
Fore
SplineSet
719 -298 m 1
 646 -290 581 -272 523 -246 c 128
 465 -220 414 -186 370 -144 c 128
 326 -102 288 -55 257 -1 c 128
 226 53 200 113 181 177 c 128
 162 241 147 309 138 381 c 128
 129 453 124 528 124 604 c 0
 124 718 134 827 155 930 c 128
 176 1033 210 1126 257 1207 c 128
 304 1288 366 1354 441 1406 c 128
 516 1458 609 1491 719 1503 c 1
 719 1411 l 1
 645 1399 583 1372 532 1330 c 128
 481 1288 440 1233 408 1164 c 128
 376 1095 353 1014 339 920 c 128
 325 826 318 720 318 604 c 0
 318 487 325 382 339 288 c 128
 353 194 376 111 408 42 c 128
 440 -27 481 -82 532 -124 c 128
 583 -166 645 -194 719 -206 c 1
 719 -298 l 1
EndSplineSet
EndChar

StartChar: parenright
Encoding: 9 41 91
Width: 788
VWidth: 2097
GlyphClass: 2
Flags: HW
LayerCount: 2
Fore
SplineSet
667 604 m 0
 667 528 662 453 653 381 c 128
 644 309 629 241 610 177 c 128
 591 113 565 53 534 -1 c 128
 503 -55 464 -102 420 -144 c 128
 376 -186 326 -220 268 -246 c 128
 210 -272 145 -290 72 -298 c 1
 72 -206 l 1
 146 -194 208 -166 259 -124 c 128
 310 -82 350 -27 381 42 c 128
 412 111 435 194 449 288 c 128
 463 382 470 487 470 604 c 0
 470 720 463 826 449 920 c 128
 435 1014 412 1095 381 1164 c 128
 350 1233 310 1288 259 1330 c 128
 208 1372 146 1399 72 1411 c 1
 72 1503 l 1
 181 1491 273 1458 349 1406 c 128
 425 1354 487 1288 534 1207 c 128
 581 1126 614 1033 635 930 c 128
 656 827 667 718 667 604 c 0
EndSplineSet
EndChar

StartChar: u0964
Encoding: 190 2404 92
Width: 1214
VWidth: 1596
GlyphClass: 2
Flags: HW
HStem: 1157 20G<410 449>
VStem: 410 139<0 1106>
LayerCount: 2
Fore
SplineSet
907 -72 m 1
 768 0 l 1
 768 1178 l 1
 907 1106 l 1
 907 -72 l 1
EndSplineSet
EndChar

StartChar: u0905
Encoding: 100 2309 112
Width: 1534
VWidth: 1596
GlyphClass: 2
Flags: HW
HStem: 43 150<425 709> 446 120<926 1182> 588 130<426 585> 1039 138<947 1233> 1069 109<385 655>
VStem: 734 112<822 989> 812 121<297 509> 1233 138<0 472 615 1039>
LayerCount: 2
Fore
SplineSet
219 1097 m 1xed
 309 1151 399 1178 490 1178 c 0xed
 692 1178 846 986 846 854 c 0
 846 783 796 728 737 690 c 1
 865 597 926 566 1036 566 c 0
 1106 566 1207 616 1233 647 c 1
 1233 1039 l 1
 947 1039 l 1xf5
 876 1178 l 1
 1260 1178 l 1xed
 1331 1039 l 1
 1371 1039 l 1
 1371 -72 l 1
 1233 0 l 1
 1233 472 l 1
 1197 456 1157 446 1112 446 c 0
 1032 446 920 485 886 514 c 1
 917 459 933 424 933 361 c 0
 933 189 802 43 604 43 c 0
 399 43 205 207 92 508 c 1
 158 548 l 1
 252 328 395 193 553 193 c 0
 737 193 812 323 812 438 c 0xf3
 812 541 755 607 655 648 c 1
 564 616 489 596 430 588 c 1
 425 608 411 648 380 718 c 1
 414 721 734 752 734 918 c 0
 734 997 650 1069 544 1069 c 0
 494 1069 370 1037 301 968 c 1
 219 1097 l 1xed
EndSplineSet
EndChar

StartChar: comma
Encoding: 12 44 113
Width: 586
VWidth: 2097
GlyphClass: 2
Flags: HW
LayerCount: 2
Fore
SplineSet
432 20 m 0
 432 -33 422 -80 402 -124 c 128
 382 -168 355 -207 321 -240 c 128
 287 -273 249 -300 205 -320 c 128
 161 -340 116 -352 68 -356 c 1
 68 -281 l 1
 105 -273 137 -261 166 -247 c 128
 195 -233 220 -215 239 -192 c 128
 258 -169 274 -141 284 -108 c 128
 294 -75 299 -34 298 14 c 1
 166 14 l 1
 165 15 162 19 158 24 c 128
 154 29 149 36 145 44 c 128
 141 52 136 62 133 73 c 128
 130 84 128 98 128 112 c 0
 128 130 132 148 138 165 c 128
 144 182 153 197 165 211 c 128
 177 225 190 236 206 244 c 128
 222 252 239 256 258 256 c 0
 288 256 314 250 336 238 c 128
 358 226 376 210 390 189 c 128
 404 168 415 143 422 114 c 128
 429 85 432 53 432 20 c 0
EndSplineSet
EndChar

StartChar: hyphen
Encoding: 13 45 114
Width: 670
VWidth: 2097
GlyphClass: 2
Flags: HW
LayerCount: 2
Fore
SplineSet
92 426 m 1
 92 583 l 1
 579 583 l 1
 579 426 l 1
 92 426 l 1
EndSplineSet
EndChar

StartChar: period
Encoding: 14 46 115
Width: 586
VWidth: 2097
GlyphClass: 2
Flags: HW
LayerCount: 2
Fore
SplineSet
411 116 m 0
 411 96 407 77 399 60 c 128
 391 43 382 29 369 16 c 128
 356 3 340 -6 323 -14 c 128
 306 -22 287 -26 268 -26 c 0
 248 -26 231 -22 214 -14 c 128
 197 -6 182 3 169 16 c 128
 156 29 146 43 139 60 c 128
 132 77 128 96 128 116 c 0
 128 135 132 153 139 170 c 128
 146 187 156 202 169 215 c 128
 182 228 197 237 214 245 c 128
 231 253 248 256 268 256 c 0
 287 256 306 253 323 245 c 128
 340 237 356 228 369 215 c 128
 382 202 391 187 399 170 c 128
 407 153 411 135 411 116 c 0
EndSplineSet
EndChar

StartChar: slash
Encoding: 15 47 116
Width: 1028
VWidth: 2097
GlyphClass: 2
Flags: HW
LayerCount: 2
Fore
SplineSet
134 -195 m 1
 0 -195 l 1
 893 1407 l 1
 1028 1407 l 1
 134 -195 l 1
EndSplineSet
EndChar

StartChar: u0966
Encoding: 192 2406 117
Width: 933
VWidth: 1596
GlyphClass: 2
Flags: HW
HStem: 159 145<303 596> 807 125<338 627>
VStem: 102 66<416 634> 763 69<458 685>
LayerCount: 2
Fore
SplineSet
474 807 m 0
 301 807 168 646 168 524 c 0
 168 392 277 304 435 304 c 0
 673 304 763 463 763 572 c 0
 763 678 682 807 474 807 c 0
482 932 m 0
 639 932 831 811 831 551 c 0
 831 350 647 159 461 159 c 0
 274 159 102 289 102 514 c 0
 102 783 298 932 482 932 c 0
EndSplineSet
EndChar

StartChar: u0967
Encoding: 193 2407 118
Width: 885
VWidth: 1596
GlyphClass: 2
Flags: HW
HStem: 1118 58<328 480>
VStem: 102 138<797 1044> 542 140<785 1034> 633 150<-31 122>
LayerCount: 2
Fore
SplineSet
682 881 m 0xe0
 682 646 455 528 317 467 c 1
 397 422 783 191 783 3 c 4
 783 -33 769 -68 735 -100 c 1
 565 -1 l 1
 592 2 633 41 633 90 c 0xd0
 633 202 468 331 151 513 c 1
 259 569 330 610 390 667 c 1
 178 706 102 818 102 928 c 0
 102 1098 242 1176 371 1176 c 0
 529 1176 682 1061 682 881 c 0xe0
412 697 m 1
 490 748 542 836 542 925 c 0xe0
 542 1068 466 1118 405 1118 c 0
 325 1118 241 1020 241 913 c 0
 241 834 286 750 412 697 c 1
EndSplineSet
EndChar

StartChar: u0968
Encoding: 194 2408 119
Width: 1070
VWidth: 1596
GlyphClass: 2
Flags: HW
HStem: 402 280<329 466> 1091 86<431 630>
VStem: 738 124<696 956>
LayerCount: 2
Fore
SplineSet
579 426 m 1
 811 0 l 1
 723 -56 l 1
 474 402 l 1
 345 402 281 447 281 535 c 0
 281 616 366 682 412 682 c 0
 440 682 504 590 532 532 c 1
 677 617 738 741 738 872 c 0
 738 991 693 1091 569 1091 c 0
 492 1091 397 1047 296 940 c 1
 203 1048 l 1
 295 1131 355 1178 476 1178 c 0
 637 1178 863 1008 863 801 c 0
 863 681 787 547 579 426 c 1
EndSplineSet
EndChar

StartChar: u0969
Encoding: 195 2409 120
Width: 1096
VWidth: 1596
GlyphClass: 2
Flags: HW
HStem: 196 293<330 436> 664 153<277 679> 1039 138<169 670>
VStem: 774 83<877 1020> 869 125<433 614>
LayerCount: 2
Fore
SplineSet
774 737 m 1
 921 680 994 588 994 479 c 0
 994 332 863 244 652 209 c 1
 869 -2 l 1
 781 -63 l 1
 602 126 l 1
 576 153 540 180 502 196 c 1
 447 198 248 211 248 389 c 0
 248 426 262 488 365 488 c 0
 401 488 493 396 545 337 c 1
 743 337 869 421 869 546 c 0
 869 633 768 702 684 702 c 1
 578 683 459 666 278 664 c 1
 216 816 l 1
 281 812 339 811 391 811 c 0
 684 811 774 864 774 972 c 0
 774 1034 661 1039 552 1039 c 2
 169 1039 l 1
 102 1178 l 1
 441 1178 l 2
 699 1178 858 1038 858 901 c 0
 858 843 844 779 774 737 c 1
EndSplineSet
EndChar

StartChar: u096A
Encoding: 196 2410 121
Width: 1070
VWidth: 1596
GlyphClass: 2
Flags: HW
HStem: 1 33<604 733> 1157 20G<189 230 941 968>
VStem: 360 129<186 440> 827 130<89 381>
LayerCount: 2
Fore
SplineSet
556 714 m 1
 161 1132 l 1
 211 1178 l 1
 605 760 l 1
 958 1178 l 1
 1024 1039 l 1
 701 659 l 1
 886 481 958 320 958 214 c 0
 958 63 815 1 700 1 c 0
 529 1 360 158 360 352 c 0
 360 453 422 571 556 714 c 1
655 612 m 1
 534 482 488 366 488 265 c 0
 488 114 581 34 668 34 c 0
 746 34 827 97 827 231 c 0
 827 348 764 501 655 612 c 1
EndSplineSet
EndChar

StartChar: u096B
Encoding: 197 2411 122
Width: 1113
VWidth: 1596
GlyphClass: 2
Flags: HW
HStem: 260 134<334 567> 686 20G<617 661> 1157 20G<151 201>
VStem: 102 112<520 877> 570 263<512 645>
LayerCount: 2
Fore
SplineSet
773 408 m 1
 1011 0 l 1
 918 -56 l 1
 711 347 l 1
 640 289 565 260 487 260 c 0
 289 260 102 461 102 753 c 0
 102 875 126 1016 175 1178 c 1
 321 1063 l 1
 250 873 214 727 214 627 c 0
 214 472 287 394 432 394 c 0
 495 394 589 437 625 493 c 1
 613 517 579 581 570 644 c 1
 570 686 594 707 640 707 c 0
 682 707 834 668 834 551 c 0
 834 507 813 460 773 408 c 1
EndSplineSet
Substitution2: "'locl' Jha to nep" u096B.nep
EndChar

StartChar: u096C
Encoding: 198 2412 123
Width: 1070
VWidth: 1596
GlyphClass: 2
Flags: HW
HStem: 1 77<440 681> 552 131<323 712> 683 20G<675 725> 1039 138<333 712>
VStem: 107 156<262 492> 110 114<801 1037> 629 255<119 242>
LayerCount: 2
Fore
SplineSet
822 52 m 1xfa
 915 -99 l 1
 837 -113 l 1
 754 12 l 1
 708 4 664 1 622 1 c 0
 296 1 107 244 107 416 c 0xfa
 107 504 149 602 309 647 c 1
 227 689 110 818 110 939 c 0
 110 1129 334 1178 517 1178 c 0
 594 1178 658 1171 709 1159 c 1
 780 1017 l 1
 683 1032 596 1039 520 1039 c 0
 307 1039 223 920 223 832 c 0xf6
 223 736 324 683 467 683 c 0
 538 683 635 683 716 703 c 1
 787 536 l 1
 469 552 l 1
 320 552 263 463 263 369 c 0
 263 174 466 78 594 78 c 0
 633 78 665 86 682 104 c 1
 663 132 629 214 629 254 c 0
 629 317 659 327 691 327 c 0
 750 327 884 241 884 150 c 0
 884 117 866 83 822 52 c 1xfa
EndSplineSet
EndChar

StartChar: u096D
Encoding: 199 2413 124
Width: 1243
VWidth: 1596
GlyphClass: 2
Flags: HW
HStem: 1 140<614 850> 451 92<709 887> 915 81<760 930> 1157 20G<138 186>
VStem: 102 76<788 1139> 541 137<585 831> 992 148<305 508>
LayerCount: 2
Fore
SplineSet
801 1 m 0
 428 1 102 476 102 1139 c 1
 178 1178 l 1
 193 357 504 141 721 141 c 0
 854 141 992 274 992 512 c 0
 992 514 992 516 992 518 c 1
 935 472 874 451 815 451 c 0
 669 451 541 578 541 746 c 0
 541 888 660 996 792 996 c 0
 1024 996 1141 746 1141 496 c 0
 1141 248 1026 1 801 1 c 0
957 769 m 0
 957 829 937 915 860 915 c 0
 736 915 678 772 678 689 c 0
 678 612 718 543 800 543 c 0
 876 543 957 650 957 769 c 0
EndSplineSet
EndChar

StartChar: u096E
Encoding: 200 2414 125
Width: 1070
VWidth: 1596
GlyphClass: 2
Flags: HW
HStem: 0 92<339 603> 1157 20G<460 789>
VStem: 100 124<199 347>
LayerCount: 2
Back
SplineSet
905.215820312 349.18359375 m 1
 1002.49609375 247.807617188 l 1
 861.18359375 81.919921875 710.65625 0 552.959960938 0 c 0
 290.81640625 0 100.3515625 182.272460938 100.3515625 325.631835938 c 1
 100.538085938 445.15234375 141.311523438 500.736328125 779.263671875 1177.59960938 c 1
 847.872070312 1037.31152344 l 1
 537.599609375 712.704101562 224.2265625 379.9921875 224.2265625 216.07421875 c 0
 224.2265625 100.196289062 503.271484375 -43.1904296875 905.215820312 349.18359375 c 1
EndSplineSet
Fore
SplineSet
905 349 m 1
 1002 248 l 1
 861 82 711 0 553 0 c 0
 291 0 100 183 100 326 c 1
 100 446 141 501 779 1178 c 1
 848 1037 l 1
 538 712 224 380 224 216 c 0
 224 157 296 92 418 92 c 0
 538 92 706 155 905 349 c 1
EndSplineSet
Substitution2: "'locl' Jha to nep" u096E.nep
EndChar

StartChar: u096F
Encoding: 201 2415 126
Width: 899
VWidth: 1596
GlyphClass: 2
Flags: HW
HStem: 0 22G<677 736> 578 96<403 518> 1109 69<379 568>
VStem: 102 126<760 981> 659 138<133 279> 685 82<823 995>
LayerCount: 2
Fore
SplineSet
403 578 m 1xf4
 640 403 797 285 797 165 c 0
 797 115 768 64 706 0 c 1
 568 99 l 1
 642 144 659 177 659 218 c 0xf8
 659 289 569 364 461 449 c 1
 423 479 l 1
 273 597 102 743 102 911 c 0
 102 1090 228 1178 422 1178 c 0
 623 1178 767 1003 767 850 c 0
 767 703 657 578 403 578 c 1xf4
311 674 m 1
 565 674 685 826 685 940 c 0xf4
 685 1028 622 1109 516 1109 c 0
 372 1109 228 1000 228 848 c 0
 228 794 251 735 311 674 c 1
EndSplineSet
Substitution2: "'locl' Jha to nep" u096F.nep
EndChar

StartChar: colon
Encoding: 26 58 127
Width: 586
VWidth: 2097
GlyphClass: 2
Flags: HW
LayerCount: 2
Fore
SplineSet
411 116 m 0
 411 96 407 77 399 60 c 128
 391 43 382 29 369 16 c 128
 356 3 340 -6 323 -14 c 128
 306 -22 287 -26 268 -26 c 0
 248 -26 231 -22 214 -14 c 128
 197 -6 182 3 169 16 c 128
 156 29 146 43 139 60 c 128
 132 77 128 96 128 116 c 0
 128 135 132 153 139 170 c 128
 146 187 156 202 169 215 c 128
 182 228 197 237 214 245 c 128
 231 253 248 256 268 256 c 0
 287 256 306 253 323 245 c 128
 340 237 356 228 369 215 c 128
 382 202 391 187 399 170 c 128
 407 153 411 135 411 116 c 0
411 895 m 256
 411 876 407 858 399 841 c 128
 391 824 382 809 369 796 c 128
 356 783 340 774 323 766 c 128
 306 758 287 755 268 755 c 0
 248 755 231 758 214 766 c 128
 197 774 182 783 169 796 c 128
 156 809 146 824 139 841 c 128
 132 858 128 876 128 895 c 256
 128 914 132 933 139 950 c 128
 146 967 156 982 169 995 c 128
 182 1008 197 1017 214 1025 c 128
 231 1033 248 1036 268 1036 c 0
 287 1036 306 1033 323 1025 c 128
 340 1017 356 1008 369 995 c 128
 382 982 391 967 399 950 c 128
 407 933 411 914 411 895 c 256
EndSplineSet
EndChar

StartChar: semicolon
Encoding: 27 59 128
Width: 586
VWidth: 2097
GlyphClass: 2
Flags: HW
LayerCount: 2
Fore
SplineSet
432 20 m 0
 432 -33 422 -80 402 -124 c 128
 382 -168 355 -207 321 -240 c 128
 287 -273 249 -300 205 -320 c 128
 161 -340 116 -352 68 -356 c 1
 68 -281 l 1
 105 -273 137 -261 166 -247 c 128
 195 -233 220 -215 239 -192 c 128
 258 -169 274 -141 284 -108 c 128
 294 -75 299 -34 298 14 c 1
 166 14 l 1
 165 15 162 19 158 24 c 128
 154 29 149 36 145 44 c 128
 141 52 136 62 133 73 c 128
 130 84 128 98 128 112 c 0
 128 130 132 148 138 165 c 128
 144 182 153 197 165 211 c 128
 177 225 190 236 206 244 c 128
 222 252 239 256 258 256 c 0
 288 256 314 250 336 238 c 128
 358 226 376 210 390 189 c 128
 404 168 415 143 422 114 c 128
 429 85 432 53 432 20 c 0
409 895 m 256
 409 876 405 858 398 841 c 128
 391 824 381 809 368 796 c 128
 355 783 340 774 323 766 c 128
 306 758 287 755 268 755 c 0
 248 755 231 758 214 766 c 128
 197 774 182 783 169 796 c 128
 156 809 146 824 139 841 c 128
 132 858 128 876 128 895 c 256
 128 914 131 933 139 950 c 128
 147 967 157 982 170 995 c 128
 183 1008 198 1017 215 1025 c 128
 232 1033 250 1036 270 1036 c 0
 289 1036 308 1033 325 1025 c 128
 342 1017 357 1008 369 995 c 128
 381 982 391 967 398 950 c 128
 405 933 409 914 409 895 c 256
EndSplineSet
EndChar

StartChar: u0907
Encoding: 102 2311 130
Width: 1050
VWidth: 1596
GlyphClass: 2
Flags: HW
HStem: 0 269<261 371> 2 129<526 686> 404 138<262 660> 444 136<373 774> 741 138<275 639> 1039 138<41 639 777 1002>
VStem: 164 78<570 704> 639 138<880 1039> 801 86<227 418>
LayerCount: 2
Fore
SplineSet
887 298 m 0x1f80
 887 61 648 2 526 2 c 1x5f80
 800 -274 l 1
 732 -337 l 1
 676 -265 506 -78 422 0 c 1
 200 15 174 135 174 170 c 0
 174 210 207 269 290 269 c 0x8f80
 341 269 420 180 439 138 c 1
 459 133 478 131 492 131 c 0
 663 131 801 215 801 329 c 1
 793 407 751 444 674 444 c 0x5f80
 654 444 610 438 547 426 c 0
 484 414 429 406 385 404 c 1
 245 409 164 522 164 695 c 0
 164 753 191 871 342 880 c 1
 639 880 l 1
 639 1039 l 1
 401 1039 l 1
 330 1178 l 1
 774 1178 l 1
 848 1039 l 1
 777 1039 l 1
 777 772 l 2
 777 752 763 741 734 741 c 2
 414 741 l 2
 300 741 242 688 242 636 c 0
 242 590 292 543 357 543 c 256x2f80
 388 543 436 549 502 561 c 0
 568 573 617 581 648 581 c 0
 782 581 887 445 887 298 c 0x1f80
EndSplineSet
EndChar

StartChar: u0909
Encoding: 104 2313 131
Width: 1102
VWidth: 1596
GlyphClass: 2
Flags: HW
HStem: 0 148<407 702> 588 135<427 571> 1039 138<669 714>
VStem: 733 112<834 1004> 817 122<265 520>
LayerCount: 2
Fore
SplineSet
776 1039 m 1xf0
 869 1039 l 1
 797 1178 l 1
 187 1178 l 1
 259 1039 l 1
 669 1039 l 1
 712 1008 733 973 733 931 c 1xf0
 733 765 419 726 376 723 c 1
 409 650 427 604 431 588 c 1
 490 595 564 615 655 648 c 1
 757 608 817 515 817 412 c 0
 817 266 708 148 553 148 c 0
 391 148 259 266 158 504 c 1
 92 464 l 1
 206 155 373 0 592 0 c 0
 820 0 939 176 939 345 c 0xe8
 939 483 859 613 737 690 c 1
 797 730 845 796 845 867 c 0
 845 923 821 980 776 1039 c 1xf0
EndSplineSet
EndChar

StartChar: u090A
Encoding: 105 2314 132
Width: 1520
VWidth: 1596
GlyphClass: 2
Flags: HW
HStem: 1 147<419 701> 568 121<1026 1231> 588 135<427 572> 1039 138<669 714>
VStem: 733 112<832 1004> 817 122<265 474> 1264 93<250 542>
LayerCount: 2
Fore
SplineSet
859 578 m 1xd6
 826 623 786 659 737 690 c 1
 809 737 845 796 845 867 c 0
 845 923 821 980 776 1039 c 1
 1177 1039 l 1
 1105 1178 l 1
 210 1178 l 1
 282 1039 l 1
 669 1039 l 1
 712 1008 733 973 733 931 c 0
 733 822 614 754 376 723 c 1
 407 655 425 611 431 588 c 1xba
 490 595 564 615 655 648 c 1
 757 608 817 515 817 412 c 0
 817 266 708 148 553 148 c 0
 391 148 259 266 158 504 c 1
 92 464 l 1
 203 159 394 1 596 1 c 0
 784 1 939 147 939 345 c 0
 939 382 934 419 922 455 c 1
 932 463 1069 568 1144 568 c 0
 1207 568 1264 525 1264 449 c 0
 1264 313 1210 192 1104 87 c 1
 1247 28 l 1
 1320 121 1357 231 1357 358 c 0
 1357 592 1196 689 1128 689 c 0
 1028 689 960 655 859 578 c 1xd6
EndSplineSet
EndChar

StartChar: u090B
Encoding: 106 2315 133
Width: 1795
VWidth: 1596
GlyphClass: 2
Flags: HW
HStem: -50 84<1180 1415> 457 106<888 1096> 701 137<172 535> 1039 138<-117 748 886 1590>
VStem: 748 138<0 419 638 1039> 1009 111<97 241>
LayerCount: 2
Fore
SplineSet
367 839 m 0
 503 839 617 757 748 638 c 1
 748 1039 l 1
 275 1039 l 1
 203 1178 l 1
 1027 1178 l 1
 1099 1039 l 1
 886 1039 l 1
 886 580 l 1
 910 569 931 563 954 563 c 0
 1036 563 1101 598 1184 685 c 1
 1182 688 1160 743 1160 791 c 0
 1160 828 1173 860 1220 860 c 0
 1277 860 1480 767 1480 713 c 0
 1480 684 1401 629 1376 620 c 1
 1399 584 1417 561 1431 544 c 1
 1446 526 1456 516 1462 507 c 1
 1470 496 1473 487 1473 466 c 1
 1473 454 1439 433 1392 405 c 1
 1351 380 l 1
 1249 319 1119 236 1119 152 c 0
 1119 70 1202 34 1291 34 c 0
 1364 34 1450 91 1513 146 c 1
 1631 39 l 1
 1555 -30 1445 -50 1367 -50 c 0
 1162 -50 1009 82 1009 226 c 0
 1009 336 1139 413 1322 510 c 1
 1315 520 1299 540 1277 564 c 1
 1238 532 1125 457 1033 457 c 0
 962 457 938 464 886 492 c 1
 886 -72 l 1
 748 0 l 1
 748 419 l 1
 290 100 l 1
 178 198 l 1
 748 562 l 1
 691 602 527 701 407 701 c 0
 367 701 298 685 198 651 c 1
 92 792 l 1
 219 823 311 839 367 839 c 0
EndSplineSet
EndChar

StartChar: u0960
Encoding: 186 2400 134
Width: 1814
VWidth: 1596
GlyphClass: 2
Flags: HW
HStem: 1 131<1337 1517> 263 99<1233 1328> 499 81<958 1098> 703 135<238 610>
VStem: 1117 115<362 464> 1232 102<90 230>
LayerCount: 2
Fore
SplineSet
958 507 m 1xf8
 974 502 994 499 1017 499 c 0
 1086 499 1176 522 1233 557 c 1
 1272 524 l 1
 1159 482 1117 428 1117 380 c 0xf8
 1117 316 1190 263 1264 263 c 0
 1286 263 1309 268 1329 279 c 1
 1263 229 1232 172 1232 124 c 0
 1232 54 1296 1 1409 1 c 0
 1490 1 1582 32 1651 102 c 1
 1564 216 l 1
 1497 149 1438 132 1396 132 c 0
 1358 132 1335 156 1335 189 c 0xf4
 1335 230 1367 281 1460 315 c 1
 1405 404 l 1
 1348 372 1309 361 1282 361 c 0
 1245 361 1233 383 1233 400 c 0
 1233 439 1262 494 1393 526 c 1
 1310 608 l 1
 1334 627 1379 673 1379 717 c 0
 1379 767 1217 861 1156 861 c 0
 1119 861 1101 846 1101 815 c 1
 1104 773 1118 737 1140 690 c 1
 1133 634 1074 580 979 580 c 0
 973 580 965 580 958 581 c 1
 958 1039 l 1
 1450 1039 l 5
 1378 1178 l 5
 326 1178 l 1
 397 1039 l 1
 820 1039 l 1
 820 638 l 1
 683 763 573 839 434 839 c 0
 381 839 323 831 164 792 c 1
 268 655 l 1
 299 668 388 703 472 703 c 0
 568 703 684 656 820 562 c 1
 251 198 l 1
 362 100 l 1
 820 419 l 1
 820 0 l 1
 958 -72 l 1
 958 507 l 1xf8
EndSplineSet
EndChar

StartChar: u090F
Encoding: 110 2319 138
Width: 1110
VWidth: 1596
GlyphClass: 2
Flags: HW
HStem: 316 139<615 804> 1039 138<0 203 341 745 884 1110>
VStem: 203 138<332 1039> 745 138<459 1039> 977 140<-273 -169>
LayerCount: 2
Fore
SplineSet
745 504 m 2
 745 1039 l 1
 341 1039 l 1
 341 421 l 2
 341 374 369 337 377 332 c 1
 1015 -68 l 1
 1080 -111 1117 -148 1117 -201 c 0
 1117 -251 1091 -291 1058 -340 c 1
 937 -274 l 1
 963 -239 973 -221 977 -207 c 1
 977 -205 977 -205 977 -203 c 0
 977 -196 974 -191 963 -182 c 1
 305 253 l 1
 225 305 203 376 203 439 c 2
 203 1039 l 1
 0 1039 l 1
 -72 1178 l 1
 1110 1178 l 1
 1182 1039 l 1
 884 1039 l 1
 884 422 l 2
 884 351 844 316 764 316 c 0
 725 316 677 326 620 342 c 1
 548 465 l 1
 597 456 631 456 659 456 c 0
 729 456 745 473 745 504 c 2
EndSplineSet
EndChar

StartChar: u0915.half
Encoding: 237 -1 139
Width: 1162
VWidth: 1596
GlyphClass: 3
Flags: HW
HStem: 221 78<379 603> 593 138<1087 1190> 702 115<400 661> 1039 138<0 823 962 1162>
VStem: 205 95<380 606> 823 138<0 356 634 1039>
AnchorPoint: "blwm" 888 -28 basechar 0
LayerCount: 2
Fore
SplineSet
1190 731 m 1xdc
 1190 593 l 1xdc
 1122 577 1047 531 962 454 c 1
 962 -72 l 1
 823 0 l 1
 823 356 l 1
 755 300 646 221 546 221 c 0
 328 221 205 383 205 534 c 0
 205 697 334 817 494 817 c 0xbc
 600 817 720 764 823 634 c 1
 823 1039 l 1
 440 1039 l 5
 369 1178 l 5
 1162 1178 l 1
 1228 1039 l 1
 962 1039 l 1
 962 624 l 1
 1047 696 1121 731 1182 731 c 2
 1190 731 l 1xdc
823 534 m 1
 743 654 639 702 545 702 c 0xbc
 413 702 300 607 300 479 c 0
 300 398 348 299 480 299 c 0
 611 299 752 452 823 534 c 1
EndSplineSet
LCarets2: 1 0
Ligature2: "'half' Half Forms lookup 2-1" u0915 u094D
EndChar

StartChar: u0915
Encoding: 116 2325 140
Width: 1547
VWidth: 1596
GlyphClass: 2
Flags: HW
HStem: 233 114<298 589> 668 114<1081 1257> 696 121<331 637> 1039 138<303 757 903 1117>
VStem: 164 71<416 597> 757 147<0 371 656 1039> 1294 89<413 642>
AnchorPoint: "N" 466 0 basechar 0
AnchorPoint: "abvm" 890 1150 basechar 0
AnchorPoint: "blwm" 839 0 basechar 0
LayerCount: 2
Fore
SplineSet
1253 119 m 1xde
 1116 190 l 1
 1225 335 1294 487 1294 554 c 0
 1294 633 1238 668 1191 668 c 0xde
 1128 668 1005 581 904 469 c 1
 904 -72 l 1
 757 0 l 1
 757 371 l 1
 647 279 552 233 471 233 c 0
 267 233 164 375 164 526 c 0
 164 706 307 817 463 817 c 0xbe
 575 817 690 766 757 656 c 1
 757 1039 l 1
 303 1039 l 1
 231 1178 l 1
 1117 1178 l 1
 1189 1039 l 1
 903 1039 l 1
 903 654 l 1
 994 730 1074 781 1133 781 c 0
 1291 781 1383 600 1383 489 c 0
 1383 420 1339 266 1253 119 c 1xde
760 537 m 1
 697 646 587 696 485 696 c 0xbe
 358 696 234 614 234 503 c 0
 234 421 309 347 440 347 c 0
 526 347 640 399 760 537 c 1
EndSplineSet
EndChar

StartChar: u0958
Encoding: 178 2392 141
Width: 1547
VWidth: 1596
GlyphClass: 2
Flags: HW
HStem: 233 114<298 589> 668 114<1081 1257> 696 121<331 637> 1039 138<303 757 903 1117>
VStem: 164 71<416 597> 757 147<0 371 656 1039> 1294 89<413 642>
LayerCount: 2
Fore
SplineSet
583 63 m 1x9e
 460 -62 l 1
 338 66 l 1
 460 188 l 1
 583 63 l 1x9e
EndSplineSet
Refer: 140 2325 N 1 0 0 1 0 0 2
EndChar

StartChar: u0915.vatu
Encoding: 238 -1 142
Width: 1547
VWidth: 1596
GlyphClass: 3
Flags: HW
HStem: 233 114<351 642> 668 114<1134 1310> 696 121<384 690> 1039 138<11 810 956 1642>
VStem: 217 71<416 597> 810 147<0 371 656 1039> 1348 89<413 642>
AnchorPoint: "blwm" 888 -41 basechar 0
LayerCount: 2
Fore
SplineSet
268 70 m 1x9e
 756 473 l 1
 871 424 l 1
 374 -4 l 1
 268 70 l 1x9e
EndSplineSet
Refer: 140 2325 N 1 0 0 1 0 0 2
LCarets2: 1 0
Ligature2: "'vatu' Vattu Variants lookup 6-1" u0915 u0930.alt
EndChar

StartChar: u0915_u094D_u0924
Encoding: 239 -1 143
Width: 1633
VWidth: 1596
GlyphClass: 3
Flags: HW
HStem: -1 22G<461 560> 628 120<156 348 494 752> 639 130<963 1204> 1039 138<0 752 894 1399>
VStem: 267 126<299 536> 752 142<4 585 748 1039> 1237 81<378 608>
LayerCount: 2
Fore
SplineSet
463 623 m 1xbe
 463 628 l 1
 270 628 l 1
 206 748 l 1
 866 748 l 1xde
 866 1039 l 1
 0 1039 l 1
 -72 1178 l 1
 1635 1178 l 1
 1705 1039 l 1
 1009 1039 l 1
 1009 722 l 1
 1084 753 1152 769 1211 769 c 0
 1347 769 1433 633 1433 458 c 0
 1433 303 1350 140 1193 -6 c 1
 1082 83 l 1
 1267 241 1352 405 1352 514 c 0
 1352 590 1311 639 1236 639 c 0
 1147 639 1072 612 1009 560 c 1
 1009 -80 l 1
 866 4 l 1
 866 627 l 1
 768 627 l 2
 580 627 509 532 509 417 c 0
 509 289 598 138 711 69 c 1
 659 -1 l 1
 492 124 382 305 382 449 c 0
 382 518 407 579 463 623 c 1xbe
EndSplineSet
LCarets2: 1 0
Ligature2: "'pres' Pre Base Substitutions lookup 7-1" u0915.half u0924
EndChar

StartChar: u0915_u094D_u0937.half
Encoding: 241 -1 145
Width: 985
VWidth: 1596
GlyphClass: 3
Flags: HW
HStem: 3 93<364 564> 555 66<550 858> 1066 87<390 589>
VStem: 154 98<207 388> 218 119<809 1014> 545 267<171 301> 619 96<876 1033>
AnchorPoint: "blwm" 863 -177 basechar 0
LayerCount: 2
Fore
SplineSet
414 728 m 1xea
 566 835 619 921 619 979 c 0
 619 1037 568 1066 509 1066 c 0
 430 1066 337 1014 337 907 c 0
 337 856 354 781 414 728 c 1xea
536 642 m 1
 545 635 586 621 661 621 c 0
 759 621 897 645 1035 743 c 1
 1035 596 l 1
 953 568 860 555 771 555 c 0
 666 555 569 573 497 608 c 1
 333 449 252 358 252 276 c 0
 252 200 315 96 428 96 c 0
 476 96 532 115 596 162 c 1
 561 214 545 254 545 283 c 0
 545 336 597 349 637 349 c 0
 712 349 812 302 812 204 c 0
 812 150 775 99 734 79 c 1
 880 -127 l 1
 808 -179 l 1
 675 46 l 1
 625 16 573 3 523 3 c 0
 329 3 154 196 154 350 c 0xf4
 154 449 208 550 375 697 c 1
 265 776 218 866 218 944 c 0
 218 1060 317 1153 449 1153 c 0
 573 1153 716 1048 716 896 c 0
 716 807 647 724 536 642 c 1
EndSplineSet
LCarets2: 1 0
Ligature2: "'half' Half Forms lookup 2-1" u0915_u094D_u0937 u094D
EndChar

StartChar: u0916.half
Encoding: 242 -1 147
Width: 1294
VWidth: 1596
GlyphClass: 3
Flags: HW
HStem: 6 81<687 1075> 283 101<875 1103> 804 108<920 1152> 1039 138<3 414 553 1297>
VStem: 419 137<603 1039> 675 113<474 682> 1273 50<560 678>
AnchorPoint: "blwm" 996 -13 basechar 0
LayerCount: 2
Fore
SplineSet
1270 635 m 0
 1215 760 1143 804 1071 804 c 0
 928 804 787 685 787 559 c 0
 787 443 888 384 959 384 c 0
 1101 384 1273 542 1273 621 c 0
 1273 626 1272 631 1270 635 c 0
1323 459 m 1
 1248 333 1162 283 1040 283 c 256
 862 283 675 446 675 625 c 0
 675 761 787 911 993 911 c 0
 1186 911 1286 747 1314 648 c 1
 1323 459 l 1
553 1039 m 1
 555 923 556 841 556 792 c 0
 556 507 522 416 407 361 c 1
 429 323 608 87 865 87 c 0
 1023 87 1189 162 1328 270 c 1
 1331 140 l 1
 1277 102 1138 6 894 6 c 0
 456 6 206 495 206 578 c 0
 206 600 215 644 271 644 c 0
 284 644 358 619 387 601 c 1
 413 601 419 752 419 847 c 0
 419 920 416 984 411 1039 c 1
 357 1039 l 1
 283 1178 l 1
 1156 1178 l 1
 1225 1039 l 1
 553 1039 l 1
EndSplineSet
LCarets2: 1 0
Ligature2: "'half' Half Forms lookup 2-1" u0916 u094D
EndChar

StartChar: u0916.half.vatu
Encoding: 244 -1 149
Width: 1215
VWidth: 1596
GlyphClass: 3
Flags: HW
HStem: 283 101<807 1035> 804 108<851 1084> 1039 138<3 342 482 1219>
VStem: 347 138<603 1039> 606 113<474 682> 1204 50<560 678>
LayerCount: 2
Fore
SplineSet
1201 635 m 0
 1146 760 1074 804 1002 804 c 0
 859 804 719 685 719 559 c 0
 719 443 820 384 891 384 c 0
 1033 384 1204 542 1204 621 c 0
 1204 626 1203 631 1201 635 c 0
1254 459 m 1
 1179 333 1094 283 972 283 c 256
 794 283 606 446 606 625 c 0
 606 761 719 911 925 911 c 0
 1118 911 1217 747 1245 648 c 1
 1254 459 l 1
767 46 m 1
 366 81 143 485 143 567 c 0
 143 589 153 634 209 634 c 0
 222 634 286 619 315 601 c 1
 341 601 347 752 347 847 c 0
 347 920 344 984 339 1039 c 1
 311 1039 l 1
 237 1178 l 1
 964 1178 l 1
 1032 1039 l 1
 482 1039 l 1
 484 923 485 841 485 792 c 0
 485 507 447 417 332 362 c 1
 341 344 521 128 791 128 c 0
 932 128 1098 207 1256 328 c 1
 1257 197 l 1
 629 -166 l 1
 557 -72 l 1
 767 46 l 1
EndSplineSet
EndChar

StartChar: u097B
Encoding: 207 2427 150
Width: 1170
VWidth: 1596
GlyphClass: 2
Flags: HW
HStem: -72 136<164 989> 1039 138<418 483> 1157 20<904 955>
VStem: 483 138<627 1039> 898 138<0 1039>
LayerCount: 2
Fore
SplineSet
989 65 m 1x98
 1078 -72 l 1
 93 -72 l 1
 164 65 l 1
 989 65 l 1x98
EndSplineSet
Refer: 339 2366 N 1 0 0 1 735 0 2
Refer: 152 -1 N 1 0 0 1 164 0 2
EndChar

StartChar: u0917.half
Encoding: 245 -1 152
Width: 579
VWidth: 1596
GlyphClass: 3
Flags: HW
HStem: 1039 138<254 318>
VStem: 318 138<627 1039>
AnchorPoint: "blwm" 355 151 basechar 0
LayerCount: 2
Fore
SplineSet
318 1039 m 1
 254 1039 l 1
 182 1178 l 1
 354 1178 l 1
 426 1039 l 1
 457 1039 l 1
 457 552 l 2
 457 440 443 385 389 385 c 0
 342 385 120 536 120 574 c 0
 120 596 129 627 172 627 c 2
 297 627 l 1
 311 629 318 645 318 673 c 2
 318 1039 l 1
EndSplineSet
LCarets2: 1 0
Ligature2: "'half' Half Forms lookup 2-1" u0917 u094D
Ligature2: "'half' Half Forms lookup 2-1" u0918 u094D
EndChar

StartChar: u0917.half.vatu
Encoding: 248 -1 156
Width: 728
VWidth: 1596
GlyphClass: 3
Flags: HW
HStem: 0 22G<253 302> 1039 138<0 400 539 743>
VStem: 400 138<627 1039>
AnchorPoint: "blwm" 464 54 basechar 0
LayerCount: 2
Fore
SplineSet
779 406 m 1
 276 0 l 1
 170 94 l 1
 780 521 l 1
 779 406 l 1
EndSplineSet
Refer: 152 -1 N 1 0 0 1 0 0 2
EndChar

StartChar: u0918.half
Encoding: 249 -1 158
Width: 829
VWidth: 1596
GlyphClass: 3
Flags: HW
HStem: 197 53<376 581> 664 117<420 593> 1039 138<-82 137 272 911>
VStem: 123 124<810 1025> 167 113<351 535>
AnchorPoint: "blwm" 601 136 basechar 0
LayerCount: 2
Fore
SplineSet
308 712 m 1xe8
 181 746 123 857 123 958 c 0
 123 987 128 1014 137 1039 c 1
 229 1039 l 1
 158 1178 l 1
 911 1178 l 5
 983 1039 l 5
 304 1039 l 1
 264 995 247 946 247 901 c 0xf0
 247 818 303 748 365 739 c 1
 442 775 557 780 579 780 c 0
 586 780 586 780 593 780 c 1
 655 660 l 1
 640 662 620 664 593 664 c 0
 381 664 280 511 280 410 c 0
 280 321 359 250 476 250 c 0
 597 250 755 364 908 569 c 1
 905 370 l 1
 789 248 649 197 522 197 c 0
 329 197 167 325 167 497 c 0
 167 582 212 657 308 712 c 1xe8
EndSplineSet
LCarets2: 1 0
Ligature2: "'half' Half Forms lookup 2-1" u0918 u094D
EndChar

StartChar: u0918.half.vatu
Encoding: 251 -1 160
Width: 783
VWidth: 1596
GlyphClass: 3
Flags: HW
HStem: -1 22G<391 443> 680 117<411 592> 1039 138<-82 137 272 865>
VStem: 125 116<826 1015> 167 115<367 562>
AnchorPoint: "blwm" 505 28 basechar 0
LayerCount: 2
Fore
SplineSet
304 1039 m 1xf0
 268 998 240 945 240 894 c 0xf0
 240 838 273 785 364 756 c 1
 441 792 556 797 578 797 c 0
 585 797 585 797 592 797 c 1
 644 677 l 1
 629 679 619 680 592 680 c 0
 375 680 282 537 282 433 c 0
 282 352 342 282 454 282 c 0
 610 282 797 435 908 585 c 1
 905 379 l 1
 809 297 747 247 721 227 c 2
 415 -1 l 1
 306 93 l 1
 499 214 l 1
 293 225 167 367 167 508 c 0xe8
 167 591 211 673 308 728 c 1
 208 743 125 853 125 967 c 0
 125 991 129 1015 137 1039 c 1
 218 1039 l 1
 146 1178 l 1
 865 1178 l 1
 937 1039 l 1
 304 1039 l 1xf0
EndSplineSet
EndChar

StartChar: u0919
Encoding: 120 2329 161
Width: 1457
VWidth: 1596
GlyphClass: 2
Flags: HW
HStem: 0 131<481 812> 411 128<428 772> 457 130<568 930> 761 138<393 762> 1039 138<-133 762 900 1237>
VStem: 287 86<583 779> 762 138<899 1039> 961 67<280 434>
AnchorPoint: "blwm" 876 -28 basechar 0
AnchorPoint: "N" 720 -150 basechar 0
AnchorPoint: "abvm" 930 1160 basechar 0
LayerCount: 2
Fore
SplineSet
1156 675 m 1x9f
 1293 528 l 1
 1147 392 l 1
 1011 538 l 1
 1156 675 l 1x9f
EndSplineSet
Refer: 189 2337 N 1 0 0 1 -26 0 2
EndChar

StartChar: u091A.half
Encoding: 252 -1 163
Width: 997
VWidth: 1596
GlyphClass: 3
Flags: HW
HStem: 244 67<575 766> 682 140<199 427 601 833> 1039 138<-82 1079>
VStem: 370 133<400 591>
AnchorPoint: "blwm" 765 123 basechar 0
LayerCount: 2
Fore
SplineSet
1151 1039 m 5
 406 1039 l 1
 334 1178 l 1
 1079 1178 l 5
 1151 1039 l 5
1070 596 m 1
 1070 402 l 1
 1037 364 908 244 741 244 c 0
 544 244 370 379 370 527 c 0
 370 578 389 632 427 682 c 1
 199 682 l 1
 128 822 l 1
 833 822 l 1
 905 687 l 1
 804 687 l 2
 584 687 503 571 503 469 c 0
 503 408 542 311 647 311 c 0
 736 311 872 380 1070 596 c 1
EndSplineSet
LCarets2: 1 0
Ligature2: "'half' Half Forms lookup 2-1" u091A u094D
EndChar

StartChar: u091A.half.vatu
Encoding: 254 -1 165
Width: 1000
VWidth: 1596
GlyphClass: 3
Flags: HW
HStem: 643 140<282 523 695 908> 1039 138<0 1071>
VStem: 453 137<340 546>
AnchorPoint: "blwm" 737 -54 basechar 0
LayerCount: 2
Fore
SplineSet
1143 1039 m 1
 424 1039 l 1
 352 1178 l 1
 1071 1178 l 1
 1143 1039 l 1
1152 362 m 1
 596 -93 l 1
 490 1 l 1
 776 221 l 1
 588 233 453 325 453 467 c 0
 453 518 485 593 523 643 c 1
 282 643 l 1
 210 783 l 1
 908 783 l 1
 980 648 l 1
 887 648 l 2
 690 648 590 532 590 433 c 0
 590 339 660 288 733 288 c 0
 844 288 992 394 1152 557 c 1
 1152 362 l 1
EndSplineSet
EndChar

StartChar: u091B
Encoding: 122 2331 166
Width: 1453
VWidth: 1596
GlyphClass: 2
Flags: HW
HStem: -1 85<550 811> 771 136<318 589> 1039 138<-42 932 1070 1496>
VStem: 164 118<577 734> 293 143<204 394> 749 137<538 816> 932 138<914 1039> 1164 126<433 779>
AnchorPoint: "N" 1300 106 basechar 0
AnchorPoint: "abvm" 1011 1171 basechar 0
AnchorPoint: "blwm" 887 -28 basechar 0
LayerCount: 2
Fore
SplineSet
763 -1 m 0
 526 -1 293 153 293 338 c 0
 293 398 317 423 366 470 c 1
 214 501 164 643 164 717 c 0
 164 869 306 907 454 907 c 0
 503 907 547 902 585 890 c 1
 644 746 l 1
 594 766 506 771 443 771 c 0
 307 771 282 685 282 636 c 0
 282 579 344 535 440 535 c 1
 465 555 599 611 685 611 c 1
 739 492 l 1
 492 480 436 360 436 267 c 0
 436 167 540 84 658 84 c 0
 743 84 918 135 1083 359 c 1
 846 395 749 560 749 697 c 0
 749 813 817 907 932 925 c 1
 932 1039 l 1
 369 1039 l 1
 297 1178 l 1
 1130 1178 l 5
 1202 1039 l 5
 1070 1039 l 1
 1070 926 l 1
 1235 885 1290 716 1290 558 c 0
 1290 291 1099 -1 763 -1 c 0
1114 424 m 1
 1145 473 1164 523 1164 605 c 0
 1164 741 1103 859 1011 859 c 0
 941 859 886 775 886 679 c 0
 886 578 947 464 1114 424 c 1
EndSplineSet
EndChar

StartChar: u0979
Encoding: 205 2425 167
Width: 1348
VWidth: 1596
GlyphClass: 2
Flags: HW
HStem: 76 116<422 614> 667 154<646 1062> 1039 138<341 1016> 1157 20<1052 1103>
VStem: 92 74<519 656> 682 149<264 487> 1047 138<0 1039>
LayerCount: 2
Fore
SplineSet
654 -72 m 1xce
 736 -155 l 1
 654 -243 l 1
 571 -155 l 1
 654 -72 l 1xce
922 123 m 1
 1004 40 l 1
 922 -48 l 1
 840 40 l 1
 922 123 l 1
393 123 m 1
 475 40 l 1
 393 -48 l 1
 311 40 l 1
 393 123 l 1
EndSplineSet
Refer: 169 2332 N 1 0 0 1 0 0 2
EndChar

StartChar: u097C
Encoding: 208 2428 168
Width: 1386
VWidth: 1596
GlyphClass: 2
Flags: HW
HStem: -76 129<303 985> 76 116<422 614> 667 154<646 1062> 1039 138<341 1016> 1157 20<1090 1141>
VStem: 92 74<519 656> 682 149<264 487> 1084 138<0 1039>
LayerCount: 2
Fore
SplineSet
985 53 m 1xe7
 1074 -76 l 1
 231 -76 l 1
 303 53 l 1
 985 53 l 1xe7
EndSplineSet
Refer: 339 2366 N 1 0 0 1 921 0 2
Refer: 170 -1 N 1 0 0 1 -32 0 2
EndChar

StartChar: u091C.half
Encoding: 255 -1 170
Width: 965
VWidth: 1596
GlyphClass: 3
Flags: HW
HStem: 76 116<454 646> 667 154<678 1094> 1039 138<373 1048>
VStem: 124 74<519 656> 713 149<264 487>
AnchorPoint: "blwm" 655 28 basechar 0
LayerCount: 2
Fore
SplineSet
1119 1039 m 1
 373 1039 l 1
 301 1178 l 1
 1048 1178 l 1
 1119 1039 l 1
521 776 m 1
 521 820 l 1
 1094 820 l 1
 1094 667 l 1
 678 667 l 1
 784 572 863 442 863 331 c 0
 863 200 770 76 617 76 c 0
 450 76 217 223 124 649 c 1
 198 686 l 1
 203 582 292 191 538 191 c 0
 636 191 713 281 713 408 c 0
 713 513 660 649 521 776 c 1
EndSplineSet
LCarets2: 1 0
Ligature2: "'half' Half Forms lookup 2-1" u091C u094D
Ligature2: "'half' Half Forms lookup 2-1" u091D u094D
EndChar

StartChar: u091C.half.vatu
Encoding: 258 -1 174
Width: 919
VWidth: 1596
GlyphClass: 3
Flags: HW
HStem: 103 96<502 682> 674 146<716 1132> 1039 138<0 1001>
VStem: 102 106<594 763> 751 149<269 496>
LayerCount: 2
Fore
SplineSet
1215 171 m 1
 712 -234 l 1
 606 -140 l 1
 1217 288 l 1
 1215 171 l 1
EndSplineSet
Refer: 170 -1 N 1 0 0 1 0 0 2
EndChar

StartChar: u091C_u094D_u091E.half
Encoding: 260 -1 176
Width: 784
VWidth: 1596
GlyphClass: 3
Flags: HW
HStem: 682 139<334 926> 715 106<188 253> 1039 138<-82 866>
VStem: 575 148<226 417>
AnchorPoint: "blwm" 532 -191 basechar 0
LayerCount: 2
Fore
SplineSet
521 -127 m 1xb0
 471 -46 439 -6 356 72 c 1
 144 109 120 213 120 248 c 0
 120 302 164 346 227 346 c 0
 290 346 372 217 392 182 c 2
 398 172 l 1
 513 182 575 245 575 328 c 0
 575 448 445 609 151 715 c 1
 188 821 l 1x70
 926 821 l 1
 926 682 l 1
 334 682 l 1
 624 536 723 397 723 288 c 0
 723 162 590 78 463 73 c 1
 588 -67 l 1
 521 -127 l 1xb0
938 1039 m 1
 356 1039 l 1
 285 1178 l 1
 866 1178 l 1
 938 1039 l 1
356 1039 m 1024
EndSplineSet
LCarets2: 1 0
Ligature2: "'half' Half Forms lookup 2-1" u091C_u094D_u091E u094D
EndChar

StartChar: u091D.half
Encoding: 261 -1 178
Width: 1043
VWidth: 1596
GlyphClass: 3
Flags: HW
HStem: 31 259<314 423> 34 124<571 706> 330 112<932 1061> 415 139<348 756> 454 123<450 843> 744 132<339 677> 1039 138<0 677 815 1046>
VStem: 211 102<571 717> 677 138<877 1039>
AnchorPoint: "blwm" 751 -218 basechar 0
LayerCount: 2
Fore
SplineSet
900 464 m 1x0f80
 918 450 938 442 960 442 c 0
 1019 442 1094 497 1200 633 c 1
 1200 440 l 1
 1193 429 1115 330 1028 330 c 0
 989 330 941 366 908 393 c 1
 913 373 914 334 914 315 c 0
 914 128 714 34 571 34 c 1x6f80
 834 -231 l 1
 769 -292 l 1
 715 -223 552 -44 471 31 c 1
 280 44 242 141 242 195 c 0
 242 229 262 290 344 290 c 0x8780
 393 290 463 207 488 165 c 1
 506 160 525 158 545 158 c 0
 682 158 840 264 858 373 c 1
 851 437 829 454 781 454 c 0x4f80
 762 454 738 449 709 443 c 1
 682 438 l 1
 628 427 559 415 472 415 c 0
 333 415 211 579 211 710 c 0
 211 713 211 717 211 720 c 1
 211 798 264 870 391 877 c 1
 677 877 l 1
 677 1039 l 1
 436 1039 l 5
 365 1178 l 5
 1046 1178 l 1
 1119 1039 l 1
 815 1039 l 1
 815 774 l 2
 815 754 801 744 773 744 c 2
 460 744 l 2
 361 744 313 691 313 640 c 0
 313 596 349 554 421 554 c 0x1780
 450 554 484 557 521 561 c 1
 555 565 l 1
 609 571 669 577 734 577 c 0
 815 577 861 517 892 475 c 1
 896 470 l 1
 900 464 l 1x0f80
EndSplineSet
LCarets2: 1 0
Ligature2: "'half' Half Forms lookup 2-1" u091D u094D
EndChar

StartChar: u091D.half.vatu
Encoding: 263 -1 180
Width: 937
VWidth: 1596
GlyphClass: 3
Flags: HW
HStem: 34 124<437 573> 343 111<791 982> 423 128<197 523> 462 126<470 667> 744 132<209 542> 1039 138<0 543 681 937>
VStem: 77 98<573 710> 542 139<877 1039> 700 80<260 388>
LayerCount: 2
Fore
SplineSet
1206 378 m 5x8f80
 1204 213 l 5
 962 3 l 5
 850 75 l 5
 1206 378 l 5x8f80
EndSplineSet
Refer: 178 -1 N 1 0 0 1 0 0 2
EndChar

StartChar: u091E.half
Encoding: 264 -1 182
Width: 969
VWidth: 1596
GlyphClass: 3
Flags: HW
HStem: 210 98<371 680> 432 136<915 1087> 762 80<503 725> 1039 138<-82 1052>
VStem: 791 296<435 568>
AnchorPoint: "blwm" 655 41 basechar 0
LayerCount: 2
Fore
SplineSet
1123 1039 m 1
 319 1039 l 1
 248 1178 l 1
 1052 1178 l 1
 1123 1039 l 1
920 568 m 1
 1087 568 l 1
 1087 432 l 1
 910 432 l 1
 876 288 708 210 576 210 c 0
 385 210 238 300 120 478 c 1
 190 586 l 1
 220 425 387 308 518 308 c 0
 706 308 791 442 791 564 c 0
 791 667 730 762 620 762 c 0
 566 762 512 738 474 697 c 1
 450 770 l 1
 484 793 557 842 624 842 c 0
 732 842 901 771 920 568 c 1
EndSplineSet
LCarets2: 1 0
Ligature2: "'half' Half Forms lookup 2-1" u091E u094D
EndChar

StartChar: u091F
Encoding: 126 2335 183
Width: 1256
VWidth: 1596
GlyphClass: 2
Flags: HW
HStem: 62 90<502 762> 777 69<515 763> 1039 138<272 763 904 1002>
VStem: 164 138<375 639> 763 141<845 1039>
AnchorPoint: "abvm" 831 1182 basechar 0
AnchorPoint: "blwm" 695 28 basechar 0
AnchorPoint: "N" 575 -76 basechar 0
LayerCount: 2
Fore
SplineSet
763 1039 m 1
 272 1039 l 1
 201 1178 l 1
 1002 1178 l 1
 1074 1039 l 1
 904 1039 l 1
 904 814 l 1
 904 791 901 777 879 777 c 1
 802 777 l 1
 440 777 301 667 301 501 c 0
 301 341 405 153 581 153 c 0
 716 153 944 276 1029 343 c 1
 1093 217 l 1
 1012 158 881 62 730 62 c 0
 425 62 164 292 164 556 c 0
 164 840 451 846 638 846 c 1
 736 845 l 1
 754 845 763 846 763 867 c 1
 763 1039 l 1
EndSplineSet
EndChar

StartChar: u091F_u094D_u091F
Encoding: 265 -1 184
Width: 907
VWidth: 1596
GlyphClass: 3
Flags: HW
HStem: -1 97<290 656> 348 106<310 559> 505 89<304 559> 839 339<327 539 653 698> 842 105<303 559>
VStem: 116 128<144 291 639 787>
LayerCount: 2
Fore
SplineSet
798 47 m 1xec
 787 190 l 1
 774 175 561 95 400 95 c 0
 274 95 244 145 244 205 c 0
 244 287 327 348 539 348 c 1
 653 345 l 1
 688 345 698 355 698 386 c 1
 698 508 l 1
 735 515 758 523 793 538 c 1
 787 683 l 1
 774 668 561 595 400 595 c 0
 274 595 251 647 251 707 c 0
 251 789 327 842 539 842 c 1xec
 653 839 l 1
 688 839 698 850 698 881 c 1
 698 1039 l 1
 779 1039 l 1
 713 1178 l 1
 186 1178 l 1xf4
 258 1039 l 1
 559 1039 l 1
 559 1015 559 990 559 968 c 0
 559 949 544 947 507 947 c 1
 414 947 l 1
 229 947 116 882 116 745 c 0
 116 630 258 514 559 505 c 1
 559 474 l 1
 559 457 557 454 414 454 c 0
 229 454 116 402 116 265 c 0
 116 168 221 -1 519 -1 c 0
 710 -1 798 47 798 47 c 1xec
EndSplineSet
LCarets2: 2 0 0
Ligature2: "'pres' Pre Base Substitutions lookup 7-1" u091F u094D u091F
EndChar

StartChar: u091F_u094D_u0920
Encoding: 266 -1 185
Width: 978
VWidth: 1596
GlyphClass: 3
Flags: HW
HStem: -0 96<347 677> 504 91<309 567> 842 106<303 559> 1039 138<-82 559 698 1066>
VStem: 116 136<640 792> 167 113<156 332> 559 139<948 1039> 766 89<175 321>
LayerCount: 2
Fore
SplineSet
766 274 m 0xf7
 766 355 676 388 617 409 c 1
 594 402 570 400 540 400 c 0
 405 400 280 343 280 233 c 0
 280 119 370 96 506 96 c 0
 641 96 766 167 766 274 c 0xf7
773 1039 m 1
 698 1039 l 1
 698 881 l 1
 698 850 688 839 653 839 c 1
 539 842 l 1
 327 842 251 789 251 707 c 0xfb
 251 647 274 595 400 595 c 0
 561 595 774 668 787 683 c 1
 793 538 l 1
 727 509 699 507 675 507 c 1
 675 488 674 441 658 429 c 1
 771 386 855 299 855 212 c 0
 855 45 689 0 533 -0 c 0
 376 0 167 107 167 296 c 0xf7
 167 465 384 479 564 489 c 1
 567 491 567 494 567 497 c 0
 567 500 567 502 566 504 c 1
 265 513 116 630 116 745 c 0xfb
 116 882 228 948 413 948 c 1
 487 948 l 1
 558 948 559 950 559 973 c 0
 559 995 559 1017 559 1039 c 1
 335 1039 l 1
 263 1178 l 1
 707 1178 l 1
 773 1039 l 1
EndSplineSet
LCarets2: 2 0 0
Ligature2: "'pres' Pre Base Substitutions lookup 7-1" u091F u094D u0920
EndChar

StartChar: u0920
Encoding: 127 2336 186
Width: 1323
VWidth: 1596
GlyphClass: 2
Flags: HW
HStem: 40 69<526 810> 751 76<515 790> 1039 138<-39 793 931 1366>
VStem: 164 144<311 574> 793 137<828 1039> 1027 132<286 563>
AnchorPoint: "N" 534 -137 basechar 0
AnchorPoint: "abvm" 875 1160 basechar 0
AnchorPoint: "blwm" 753 13 basechar 0
LayerCount: 2
Fore
SplineSet
697 751 m 0
 508 751 308 628 308 422 c 0
 308 234 458 109 617 109 c 0
 898 109 1027 278 1027 443 c 0
 1027 599 911 751 697 751 c 0
931 765 m 1
 1083 667 1160 515 1160 390 c 0
 1160 196 992 40 769 40 c 0
 359 40 164 273 164 480 c 0
 164 666 320 829 621 829 c 0
 634 829 646 828 655 828 c 1
 717 828 l 1
 787 828 793 829 793 846 c 1
 793 1039 l 1
 510 1039 l 1
 438 1178 l 1
 997 1178 l 1
 1069 1039 l 1
 931 1039 l 1
 931 765 l 1
EndSplineSet
EndChar

StartChar: u0920_u094D_u0920
Encoding: 267 -1 187
Width: 875
VWidth: 1596
GlyphClass: 3
Flags: HW
HStem: 4 91<334 597> 389 87<357 516> 507 100<316 515> 1039 138<-82 504 630 956>
VStem: 160 112<151 309 647 816> 504 127<475 508 960 1039> 676 79<172 308 675 815>
LayerCount: 2
Fore
SplineSet
630 1039 m 1
 630 1016 l 2
 630 942 606 919 586 908 c 1
 696 862 761 779 761 702 c 0
 761 632 707 556 619 527 c 1
 620 515 620 503 620 492 c 0
 620 452 613 438 586 415 c 1
 673 379 755 286 755 202 c 0
 755 68 647 4 528 4 c 0
 320 4 160 142 160 269 c 0
 160 363 242 476 429 476 c 1
 486 474 l 1
 511 474 517 479 517 508 c 1
 511 507 505 507 499 507 c 0
 279 507 156 673 156 765 c 0
 156 855 254 959 443 959 c 0
 480 959 504 961 504 1007 c 2
 504 1039 l 1
 328 1039 l 1
 256 1178 l 1
 651 1178 l 1
 724 1039 l 1
 630 1039 l 1
676 259 m 0
 676 332 604 377 552 397 c 1
 533 391 513 389 488 389 c 0
 376 389 271 302 271 202 c 0
 271 120 354 95 441 95 c 0
 551 95 676 163 676 259 c 0
676 768 m 0
 676 841 604 870 552 890 c 1
 545 886 529 877 506 874 c 1
 481 871 l 1
 395 859 267 834 267 719 c 0
 267 663 319 607 460 607 c 0
 563 607 676 664 676 768 c 0
EndSplineSet
LCarets2: 2 0 0
Ligature2: "'pres' Pre Base Substitutions lookup 7-1" u0920 u094D u0920
EndChar

StartChar: u097E
Encoding: 210 2430 188
Width: 1144
VWidth: 1596
GlyphClass: 2
Flags: HW
HStem: 1 131<518 844> 411 128<446 731> 457 130<659 935> 761 138<427 774> 1039 138<0 774 912 1146>
VStem: 299 100<583 734> 774 138<899 1039> 978 86<238 418>
LayerCount: 2
Fore
SplineSet
1146 -13 m 1
 1235 -142 l 1
 130 -142 l 1
 202 -13 l 1
 1146 -13 l 1
EndSplineSet
Refer: 189 2337 N 1 0 0 1 0 0 0
EndChar

StartChar: u0921
Encoding: 128 2337 189
Width: 1217
VWidth: 1596
GlyphClass: 2
Flags: HW
HStem: 0 131<506 838> 411 128<454 798> 457 130<594 956> 761 138<418 787> 1039 138<294 787 926 945>
VStem: 312 86<583 779> 787 138<899 1039> 987 67<280 434>
AnchorPoint: "N" 628 -213 basechar 0
AnchorPoint: "abvm" 848 1175 basechar 0
AnchorPoint: "blwm" 739 0 basechar 0
LayerCount: 2
Fore
SplineSet
548 539 m 0xdf
 575 539 611 546 651 554 c 1
 731 571 l 1
 773 580 811 587 839 587 c 0
 971 587 1054 448 1054 306 c 0
 1054 155 960 0 730 0 c 0
 405 0 196 250 92 426 c 1
 152 469 l 1
 311 180 546 131 681 131 c 0
 849 131 987 274 987 370 c 0
 987 419 950 457 864 457 c 0xbf
 841 457 810 450 773 442 c 1
 719 430 l 1
 673 421 622 413 575 411 c 1
 412 416 312 611 312 750 c 0
 312 808 339 890 490 899 c 1
 787 899 l 1
 787 1039 l 1
 294 1039 l 1
 222 1178 l 1
 945 1178 l 1
 1019 1039 l 1
 926 1039 l 1
 926 792 l 2
 926 772 912 761 883 761 c 2
 562 761 l 2
 443 761 398 717 398 668 c 0
 398 607 467 539 548 539 c 0xdf
EndSplineSet
EndChar

StartChar: u0921_u094D_u0921
Encoding: 268 -1 191
Width: 942
VWidth: 1596
GlyphClass: 3
Flags: HMW
LayerCount: 2
Fore
SplineSet
645 767 m 0
 737 767 819 686 819 583 c 0
 819 509 787 453 722 414 c 1
 722 241 l 2
 722 227 712 219 693 219 c 2
 454 219 l 2
 409 219 351 216 351 167 c 0
 351 139 369 123 400 123 c 0
 422 123 448 128 479 133 c 1
 522 141 l 1
 563 149 605 157 645 157 c 0
 734 157 810 65 810 -45 c 0
 810 -174 705 -256 570 -256 c 0
 430 -256 256 -168 130 45 c 1
 170 76 l 1
 239 -49 346 -140 537 -140 c 0
 636 -140 751 -112 751 -23 c 1
 749 7 736 49 679 49 c 0
 663 49 638 45 608 40 c 1
 580 35 l 1
 540 28 497 21 464 20 c 1
 352 24 282 93 282 196 c 0
 282 271 326 323 404 327 c 1
 610 327 l 1
 610 377 l 1
 596 375 582 374 570 374 c 0
 306 374 158 622 130 673 c 1
 170 703 l 1
 222 607 318 486 537 486 c 0
 637 486 751 516 751 604 c 1
 748 637 726 657 693 657 c 0
 673 657 646 653 618 648 c 1
 584 641 l 1
 546 634 506 628 464 627 c 1
 351 631 282 715 282 817 c 0
 282 892 326 958 404 962 c 1
 613 962 l 1
 613 1039 l 1
 434 1039 l 1
 359 1178 l 1
 737 1178 l 1
 810 1039 l 1
 754 1039 l 1
 754 862 l 2
 754 848 744 841 724 841 c 2
 454 841 l 2
 409 841 351 829 351 780 c 0
 351 756 377 738 413 738 c 0
 446 738 487 746 528 752 c 1
 565 757 l 1
 597 762 626 767 645 767 c 0
EndSplineSet
LCarets2: 2 0 0
Ligature2: "'pres' Pre Base Substitutions lookup 7-1" u0921 u094D u0921
EndChar

StartChar: u0921_u094D_u0922
Encoding: 269 -1 192
Width: 944
VWidth: 1596
GlyphClass: 3
Flags: HW
HStem: -259 104<504 671> 80 65<524 680> 230 92<323 605> 366 104<385 604> 609 113<353 653> 637 112<530 747> 840 108<355 613> 1039 138<-79 613 754 1025>
VStem: 196 92<-19 197> 282 70<733 828> 431 56<-136 41> 605 119<323 368> 613 140<947 1039> 712 92<-115 60> 751 69<520 633>
LayerCount: 2
Fore
SplineSet
605 368 m 1xf7b0
 593 366 579 366 567 366 c 0
 392 366 221 484 130 656 c 1
 170 687 l 1
 222 591 318 470 537 470 c 0
 637 470 751 500 751 588 c 1
 746 633 731 637 663 637 c 0xf7b2
 651 637 632 634 608 630 c 1
 579 624 l 1
 542 617 500 610 464 609 c 1
 351 613 282 701 282 803 c 0
 282 878 326 943 404 947 c 1
 613 947 l 1
 613 1039 l 1
 315 1039 l 1
 241 1178 l 1
 737 1178 l 1
 810 1039 l 1
 754 1039 l 1
 754 849 l 2xfb68
 754 843 751 840 742 840 c 0
 737 840 731 840 724 840 c 2
 454 840 l 2
 409 840 351 829 351 780 c 0
 351 756 364 722 444 722 c 0xfb70
 464 722 494 727 524 732 c 1
 568 739 l 1
 597 744 625 749 645 749 c 0
 743 749 819 666 819 566 c 0
 819 469 763 423 724 403 c 1
 724 261 l 2xf772
 724 239 712 230 696 230 c 2
 441 230 l 2
 333 230 287 174 287 90 c 0
 287 -16 355 -130 473 -163 c 1
 451 -143 431 -78 431 -26 c 0
 431 88 519 144 610 144 c 0
 736 144 804 50 804 -47 c 0xf7a4
 804 -151 727 -259 565 -259 c 1
 370 -250 201 -38 196 144 c 1
 196 236 215 323 397 323 c 2
 605 323 l 1
 605 368 l 1xf7b0
524 -155 m 1
 660 -155 712 -91 712 -30 c 0xf324
 712 26 668 80 607 80 c 0
 549 80 487 39 487 -32 c 0
 487 -63 497 -104 524 -155 c 1
EndSplineSet
LCarets2: 2 0 0
Ligature2: "'pres' Pre Base Substitutions lookup 7-1" u0921 u094D u0922
EndChar

StartChar: u0922
Encoding: 129 2338 193
Width: 1238
VWidth: 1596
GlyphClass: 2
Flags: HW
HStem: 6 100<690 903> 509 65<704 878> 724 133<383 801> 1039 138<388 801 945 978>
VStem: 164 129<402 632> 513 116<212 448> 801 144<857 1039> 965 110<168 396>
AnchorPoint: "N" 607 -203 basechar 0
AnchorPoint: "abvm" 887 1175 basechar 0
AnchorPoint: "blwm" 764 -13 basechar 0
LayerCount: 2
Fore
SplineSet
468 857 m 2
 801 857 l 1
 801 1039 l 1
 388 1039 l 1
 316 1178 l 1
 978 1178 l 1
 1053 1039 l 1
 945 1039 l 1
 945 767 l 2
 945 740 929 726 896 724 c 1
 526 724 l 2
 369 724 293 612 293 481 c 0
 293 349 469 144 627 110 c 1
 550 202 513 296 513 367 c 0
 513 515 625 574 745 574 c 0
 937 574 1075 397 1075 240 c 0
 1075 121 994 14 796 6 c 1
 529 6 164 272 164 587 c 0
 164 750 288 857 468 857 c 2
700 108 m 1
 713 107 725 106 737 106 c 0
 913 106 965 195 965 302 c 0
 965 430 890 509 803 509 c 0
 716 509 629 445 629 316 c 0
 629 235 661 150 700 108 c 1
EndSplineSet
EndChar

StartChar: u0923.half
Encoding: 270 -1 196
Width: 811
VWidth: 1596
GlyphClass: 3
Flags: HW
HStem: 303 92<304 496> 1039 138<250 549>
VStem: 112 138<477 1039> 549 138<450 1039>
AnchorPoint: "blwm" 452 205 basechar 0
LayerCount: 2
Fore
SplineSet
489 303 m 0
 304 303 112 441 112 610 c 2
 112 1039 l 1
 205 1039 l 1
 133 1178 l 1
 561 1178 l 1
 633 1039 l 1
 687 1039 l 1
 687 504 l 2
 687 383 625 303 489 303 c 0
250 538 m 2
 250 458 316 395 376 395 c 0
 509 395 549 496 549 590 c 2
 549 1039 l 1
 250 1039 l 1
 250 538 l 2
EndSplineSet
LCarets2: 1 0
Ligature2: "'half' Half Forms lookup 2-1" u0923 u094D
EndChar

StartChar: u0924.half
Encoding: 271 -1 198
Width: 627
VWidth: 1596
GlyphClass: 3
Flags: HW
HStem: 684 138<328 851> 1039 138<301 782>
VStem: 125 105<339 591>
AnchorPoint: "blwm" 532 -95 basechar 0
LayerCount: 2
Fore
SplineSet
854 1039 m 1
 301 1039 l 5
 229 1178 l 5
 782 1178 l 1
 854 1039 l 1
125 546 m 0
 125 715 266 822 394 822 c 2
 851 822 l 1
 851 684 l 1
 486 684 l 2
 365 684 230 616 230 463 c 0
 230 308 377 143 516 -1 c 1
 450 -59 l 1
 164 254 125 420 125 546 c 0
EndSplineSet
LCarets2: 1 0
Ligature2: "'half' Half Forms lookup 2-1" u0924 u094D
EndChar

StartChar: u0924.half.vatu
Encoding: 273 -1 200
Width: 862
VWidth: 1596
GlyphClass: 3
Flags: HW
HStem: 683 125<191 565> 1039 138<-82 780>
LayerCount: 2
Fore
SplineSet
852 1039 m 1
 266 1039 l 1
 195 1178 l 1
 780 1178 l 1
 852 1039 l 1
749 550 m 1
 648 619 509 683 401 683 c 0
 364 683 288 665 211 624 c 1
 123 758 l 1
 190 778 291 808 390 808 c 0
 458 808 525 794 580 754 c 1
 809 588 l 1
 806 432 l 1
 302 80 l 1
 190 177 l 1
 749 550 l 1
EndSplineSet
EndChar

StartChar: u0924_u094D_u0924.half
Encoding: 275 -1 202
Width: 893
VWidth: 1596
GlyphClass: 3
Flags: HW
HStem: 643 139<124 290 448 874> 1039 138<-82 784>
VStem: 241 131<308 563>
AnchorPoint: "blwm" 628 -110 basechar 0
LayerCount: 2
Fore
SplineSet
856 1039 m 1
 233 1039 l 5
 162 1178 l 5
 784 1178 l 1
 856 1039 l 1
290 643 m 1
 124 643 l 1
 50 782 l 1
 874 782 l 1
 874 643 l 1
 559 643 l 2
 441 643 372 523 372 420 c 0
 372 332 439 159 655 0 c 1
 585 -73 l 1
 315 158 241 376 241 494 c 0
 241 551 263 624 290 643 c 1
EndSplineSet
EndChar

StartChar: u0925.half
Encoding: 276 -1 204
Width: 1007
VWidth: 1596
GlyphClass: 3
Flags: HW
HStem: 250 83<421 715> 726 46<329 415> 1106 53<380 521>
VStem: 155 117<804 1027> 567 102<840 1053>
AnchorPoint: "blwm" 650 177 basechar 0
LayerCount: 2
Fore
SplineSet
982 642 m 1
 982 401 l 1
 893 331 761 250 626 250 c 0
 426 250 243 348 154 608 c 1
 296 637 365 679 415 726 c 1
 411 726 408 726 404 726 c 0
 229 726 155 820 155 921 c 0
 155 1036 250 1159 399 1159 c 0
 531 1159 669 1071 669 918 c 0
 669 796 576 649 331 529 c 1
 336 378 440 333 558 333 c 0
 720 333 923 491 982 642 c 1
468 781 m 1
 535 833 567 910 567 976 c 0
 567 1047 531 1106 464 1106 c 0
 379 1106 271 1016 271 909 c 0
 271 838 312 773 412 772 c 0
 429 772 447 775 468 781 c 1
EndSplineSet
LCarets2: 1 0
Ligature2: "'half' Half Forms lookup 2-1" u0925 u094D
EndChar

StartChar: u0925.half.vatu
Encoding: 278 -1 206
Width: 975
VWidth: 1596
GlyphClass: 3
Flags: HW
HStem: 250 83<421 715> 726 46<329 415> 1106 53<380 521>
VStem: 155 117<804 1027> 567 102<840 1053>
LayerCount: 2
Fore
SplineSet
998 532 m 1
 992 352 l 1
 992 352 992 352 443 -79 c 1
 341 11 l 1
 998 532 l 1
EndSplineSet
Refer: 204 -1 N 1 0 0 1 0 0 2
EndChar

StartChar: u0926
Encoding: 133 2342 207
Width: 1038
VWidth: 1596
GlyphClass: 2
Flags: HW
HStem: 63 46<561 697> 717 142<352 703> 1039 138<331 703>
VStem: 163 131<385 657> 698 201<120 244> 703 142<859 1039>
AnchorPoint: "N" 552 -106 basechar 0
AnchorPoint: "abvm" 765 1171 basechar 0
AnchorPoint: "blwm" 925 -203 basechar 0
LayerCount: 2
Fore
SplineSet
731 69 m 1xf8
 705 64 688 63 666 63 c 1
 420 63 163 314 163 577 c 0
 163 787 271 859 483 859 c 2
 666 859 l 2
 697 859 703 865 703 887 c 2
 703 1039 l 1
 331 1039 l 1
 260 1178 l 1
 843 1178 l 1
 915 1039 l 1
 845 1039 l 1
 845 764 l 2xf4
 845 733 828 717 793 717 c 2
 460 717 l 2
 348 717 294 617 294 499 c 0
 294 233 546 109 652 109 c 0
 679 109 697 118 698 134 c 1
 681 158 638 286 631 328 c 1
 631 368 641 387 690 387 c 0
 746 387 899 338 899 223 c 0
 899 188 876 121 821 96 c 1
 946 -146 l 1
 863 -204 l 1
 731 69 l 1xf8
EndSplineSet
EndChar

StartChar: u0926_u0943
Encoding: 279 -1 208
Width: 1071
VWidth: 1596
GlyphClass: 3
Flags: HW
HStem: -318 95<690 976> 63 73<495 700> 717 142<375 703> 1039 138<71 703 846 1143>
VStem: 164 133<359 634> 585 76<-189 -62> 621 278<214 319> 703 142<859 1039>
LayerCount: 2
Fore
SplineSet
734 68 m 1xfc
 716 66 694 63 666 63 c 0
 420 63 164 281 164 544 c 0
 164 754 271 859 483 859 c 2
 666 859 l 2
 697 859 703 865 703 887 c 2
 703 1039 l 1
 410 1039 l 1
 339 1178 l 1
 852 1178 l 1
 924 1039 l 1
 846 1039 l 1
 846 764 l 2xfd
 846 733 828 717 793 717 c 2
 508 717 l 2
 367 717 297 607 297 483 c 0
 297 322 415 136 649 136 c 0
 667 136 683 138 700 141 c 1
 686 166 628 286 621 328 c 1
 621 368 641 387 690 387 c 0
 746 387 898 338 898 223 c 0xfa
 898 179 859 115 810 93 c 1
 868 -37 l 2
 868 -37 852 -35 828 -35 c 0
 768 -35 662 -47 662 -127 c 0
 662 -174 729 -223 801 -223 c 0
 878 -223 933 -208 962 -185 c 1
 1000 -289 l 1
 953 -309 902 -318 851 -318 c 0
 714 -318 585 -251 585 -147 c 0
 585 -79 644 -13 763 8 c 1
 734 68 l 1xfc
EndSplineSet
EndChar

StartChar: u0926.vatu
Encoding: 280 -1 209
Width: 1038
VWidth: 1596
GlyphClass: 3
Flags: HW
HStem: 63 23<545 671> 717 142<377 689> 1039 138<-38 689 831 1022>
VStem: 149 148<379 637> 603 282<202 309> 689 142<859 1039>
LayerCount: 2
Fore
SplineSet
576 89 m 1
 764 94 l 1
 291 -279 l 1
 189 -184 l 1
 576 89 l 1
2007 -283 m 1024
EndSplineSet
Refer: 207 2342 N 1 0 0 1 0 0 2
LCarets2: 1 0
Ligature2: "'vatu' Vattu Variants lookup 6-1" u0926 u0930.alt
EndChar

StartChar: u0926_u094D_u0926
Encoding: 281 -1 210
Width: 1021
VWidth: 1596
GlyphClass: 3
Flags: HW
HStem: 0 75<414 642> 475 116<455 686> 773 136<253 658> 1039 138<-82 658 802 1100>
VStem: 124 103<587 750> 214 128<160 378> 658 143<909 1039>
LayerCount: 2
Fore
SplineSet
821 61 m 1xf6
 975 -150 l 1
 887 -203 l 1
 755 33 l 1
 695 11 636 0 580 0 c 0
 376 0 214 135 214 306 c 0xf6
 214 372 240 431 292 485 c 1
 187 530 124 631 124 731 c 0
 124 805 163 909 317 909 c 2
 658 909 l 1
 658 1039 l 1
 336 1039 l 1
 264 1178 l 1
 791 1178 l 1
 866 1039 l 1
 802 1039 l 1
 802 819 l 2
 802 788 788 773 757 773 c 2
 348 773 l 2
 255 773 227 706 227 664 c 0xfa
 227 606 274 558 366 543 c 1
 443 575 524 591 612 591 c 0
 638 591 662 589 686 587 c 1
 721 466 l 1
 690 472 660 475 629 475 c 0
 521 475 342 420 342 251 c 0
 342 147 431 75 528 75 c 0
 580 75 635 96 679 144 c 1
 650 203 636 243 636 263 c 0
 636 280 643 311 692 311 c 0
 752 311 902 237 902 156 c 0
 902 121 875 90 821 61 c 1xf6
EndSplineSet
LCarets2: 2 0 0
Ligature2: "'pres' Pre Base Substitutions lookup 7-1" u0926 u094D u0926
EndChar

StartChar: u0926_u094D_u0927
Encoding: 282 -1 211
Width: 1486
VWidth: 1596
GlyphClass: 3
Flags: HW
HStem: -3 59<747 908> 221 47<395 580> 292 95<842 1055> 524 77<352 477> 802 147<720 1101> 1039 138<0 1101 1244 1487>
VStem: 206 105<323 489> 482 112<348 522> 509 149<578 744> 576 132<81 235> 995 284<416 532> 1101 143<949 1039>
AnchorPoint: "blwm" 1338 0 basechar 0
LayerCount: 2
Fore
SplineSet
936 949 m 2xfe80
 1101 949 l 1
 1101 1039 l 1
 582 1039 l 5
 510 1178 l 5
 1487 1178 l 1
 1559 1039 l 1
 1244 1039 l 1
 1244 844 l 2
 1244 817 1228 802 1195 802 c 2
 929 802 l 2
 734 802 658 734 658 654 c 0xfe90
 658 535 825 386 1020 386 c 0
 1032 386 1044 387 1056 388 c 1
 1034 421 995 506 995 555 c 0
 995 594 1019 613 1065 613 c 0
 1136 613 1279 535 1279 446 c 0
 1279 405 1253 339 1204 298 c 1
 1394 27 l 1
 1310 -14 l 1
 1191 186 l 1
 1118 78 950 -3 808 -3 c 0
 688 -3 576 63 576 190 c 0xfe60
 576 205 578 221 581 237 c 1
 550 226 516 221 483 221 c 0
 306 221 206 340 206 443 c 0
 206 545 302 601 385 601 c 0
 493 601 594 517 594 409 c 0xff
 594 366 559 312 490 269 c 1
 494 268 498 268 503 268 c 0
 526 268 561 278 588 287 c 1
 613 336 645 369 672 385 c 1
 782 319 l 1
 721 279 708 234 708 188 c 0xfe40
 708 117 752 56 813 56 c 0
 907 56 1029 157 1095 296 c 1
 1076 292 1054 292 1034 292 c 0
 773 292 509 529 509 719 c 0
 509 845 625 949 936 949 c 2xfe80
370 303 m 1
 433 317 482 401 482 455 c 0xff
 482 496 463 524 425 524 c 0
 368 524 311 455 311 398 c 0
 311 367 328 333 370 303 c 1
EndSplineSet
LCarets2: 2 0 0
Ligature2: "'pres' Pre Base Substitutions lookup 7-1" u0926 u094D u0927
EndChar

StartChar: u0926_u094D_u092E
Encoding: 283 -1 212
Width: 1283
VWidth: 1596
GlyphClass: 3
Flags: HW
HStem: 812 138<243 370>
VStem: 125 100<642 794> 644 80<303 457>
LayerCount: 2
Fore
SplineSet
595 1039 m 1
 595 950 l 1
 298 950 l 1
 151 940 125 825 125 766 c 0
 125 615 238 475 396 475 c 1
 515 484 l 1
 636 484 644 415 644 316 c 1
 644 263 l 1
 516 263 l 1
 496 261 474 251 474 229 c 0
 474 171 602 7 665 7 c 0
 720 7 724 66 724 146 c 1
 1011 146 l 1
 1011 0 l 1
 1158 -72 l 1
 1158 1039 l 1
 1086 1039 l 1
 1020 1178 l 1
 201 1178 l 1
 273 1039 l 1
 595 1039 l 1
733 1039 m 1
 1015 1039 l 1
 1015 263 l 1
 724 263 l 1
 724 303 l 1
 724 454 715 623 503 623 c 1
 367 611 l 1
 242 611 225 706 225 726 c 0
 225 761 247 812 370 812 c 2
 690 812 l 2
 719 812 733 823 733 843 c 2
 733 1039 l 1
EndSplineSet
LCarets2: 2 0 0
Ligature2: "'pres' Pre Base Substitutions lookup 7-1" u0926 u094D u092E
EndChar

StartChar: u0926_u094D_u092F
Encoding: 284 -1 213
Width: 1200
VWidth: 1596
GlyphClass: 3
Flags: HW
HStem: 2 67<365 584> 481 121<409 592> 761 124<306 587> 1039 138<-82 560 704 935 1075 1282>
VStem: 123 103<540 692> 160 128<166 382> 560 143<880 1039> 935 140<0 247 426 1039>
LayerCount: 2
Fore
SplineSet
704 780 m 1xf7
 704 764 697 759 688 759 c 1
 674 760 645 761 608 761 c 0
 450 761 225 741 225 614 c 1xfb
 225 575 240 538 282 538 c 0
 291 538 301 539 312 541 c 1
 448 597 592 602 592 602 c 1
 611 481 l 1
 580 481 288 475 288 260 c 0
 288 148 353 69 472 69 c 0
 649 69 881 354 935 519 c 1
 935 1039 l 1
 704 1039 l 1
 704 780 l 1xf7
921 1178 m 1
 992 1039 l 1
 1075 1039 l 1
 1075 -72 l 1
 935 0 l 1
 935 247 l 1
 832 83 650 2 528 2 c 0
 318 2 160 150 160 305 c 0xf7
 160 370 186 429 238 483 c 1
 134 527 123 609 123 683 c 0
 123 843 343 884 485 884 c 0
 515 884 540 883 560 880 c 1
 560 1039 l 1
 316 1039 l 1
 245 1178 l 1
 921 1178 l 1
EndSplineSet
LCarets2: 2 0 0
Ligature2: "'pres' Pre Base Substitutions lookup 7-1" u0926 u094D u092F
EndChar

StartChar: u0926_u094D_u0935
Encoding: 285 -1 214
Width: 1017
VWidth: 1596
GlyphClass: 3
Flags: HW
HStem: -247 102<322 607> 141 95<454 669> 740 147<365 714> 1039 138<-82 714 857 1110>
VStem: 123 158<413 660> 161 116<-96 125> 608 284<266 381> 714 143<888 1039>
LayerCount: 2
Fore
SplineSet
455 -144 m 0xf4
 637 -144 727 13 727 72 c 0
 727 96 720 119 708 145 c 1
 688 143 666 141 642 141 c 0
 564 141 473 167 445 176 c 2
 411 187 l 1
 323 156 276 79 276 7 c 0
 276 -72 333 -144 455 -144 c 0xf4
549 888 m 2
 714 888 l 1
 714 1039 l 1
 414 1039 l 1
 342 1178 l 1
 733 1178 l 1
 795 1039 l 1
 857 1039 l 1
 857 782 l 2
 857 755 841 742 808 742 c 2
 542 740 l 2
 329 738 281 620 281 539 c 0xf9
 281 383 433 237 635 237 c 0
 647 237 658 237 669 238 c 1
 647 271 608 355 608 404 c 0
 608 443 632 463 678 463 c 0
 749 463 892 385 892 296 c 0
 892 255 866 214 817 173 c 1
 912 18 976 -80 1007 -124 c 1
 923 -165 l 1
 825 -3 l 1
 789 -131 666 -247 467 -247 c 0
 286 -247 161 -108 161 35 c 0xf6
 161 117 202 200 297 258 c 1
 213 316 123 450 123 577 c 0xf8
 123 702 189 888 549 888 c 2
EndSplineSet
LCarets2: 2 0 0
Ligature2: "'pres' Pre Base Substitutions lookup 7-1" u0926 u094D u0935
EndChar

StartChar: u0927.half
Encoding: 286 -1 216
Width: 909
VWidth: 1596
GlyphClass: 3
Flags: HW
HStem: 183 70<472 670> 593 121<460 696> 1039 138<694 856> 1082 95<306 468>
VStem: 154 98<831 1027> 246 140<354 521> 476 98<906 1069>
AnchorPoint: "blwm" 618 164 basechar 0
LayerCount: 2
Fore
SplineSet
924 1039 m 1xe2
 694 1039 l 1xe2
 625 1178 l 1xd2
 856 1178 l 1
 924 1039 l 1xe2
911 511 m 1
 912 297 l 1
 812 215 744 183 636 183 c 0
 437 183 246 332 246 474 c 0xd6
 246 547 297 618 382 667 c 1
 213 745 154 892 154 985 c 0xda
 154 1117 245 1178 344 1178 c 0
 459 1178 574 1058 574 942 c 0
 574 859 515 780 357 748 c 1
 373 732 459 714 512 714 c 1
 581 722 607 725 629 725 c 0
 648 725 666 724 697 720 c 1
 711 677 723 629 730 577 c 1
 697 588 657 593 611 593 c 0
 459 593 385 498 385 409 c 0xd6
 385 329 445 253 562 253 c 0
 677 253 797 382 911 511 c 1
397 1082 m 0
 341 1082 252 1013 252 926 c 0xda
 252 896 259 856 283 827 c 1
 283 827 476 862 476 1019 c 0
 476 1067 437 1082 397 1082 c 0
EndSplineSet
LCarets2: 1 0
Ligature2: "'half' Half Forms lookup 2-1" u0927 u094D
EndChar

StartChar: u0928.half
Encoding: 287 -1 218
Width: 627
VWidth: 1596
GlyphClass: 3
Flags: HW
HStem: 554 138<364 776> 1039 138<299 723>
VStem: 122 673
AnchorPoint: "blwm" 314 123 basechar 0
LayerCount: 2
Fore
SplineSet
795 1039 m 1
 299 1039 l 1
 227 1178 l 1
 723 1178 l 1
 795 1039 l 1
122 625 m 0
 122 679 177 692 289 692 c 2
 776 692 l 1
 776 554 l 1
 410 554 l 2
 382 554 366 546 364 532 c 1
 364 408 l 2
 364 365 333 355 311 355 c 0
 273 355 122 578 122 625 c 0
EndSplineSet
LCarets2: 1 0
Ligature2: "'half' Half Forms lookup 2-1" u0928 u094D
EndChar

StartChar: u0928.half.vatu
Encoding: 289 -1 220
Width: 829
VWidth: 1596
GlyphClass: 3
Flags: HW
HStem: 0 22G<218 260> 554 138<366 778> 1039 138<-82 748>
LayerCount: 2
Fore
SplineSet
124 625 m 0
 124 679 179 692 291 692 c 2
 778 692 l 1
 778 554 l 1
 412 554 l 2
 384 554 368 546 366 532 c 1
 366 408 l 2
 366 365 335 355 313 355 c 0
 275 355 124 578 124 625 c 0
775 404 m 1
 232 0 l 1
 161 99 l 1
 776 521 l 1
 775 404 l 1
819 1039 m 1
 291 1039 l 1
 219 1178 l 1
 748 1178 l 1
 819 1039 l 1
EndSplineSet
EndChar

StartChar: u0928_u094D_u0928.half
Encoding: 291 -1 222
Width: 911
VWidth: 1596
GlyphClass: 3
Flags: HW
HStem: 473 311<231 344> 643 141<350 528> 1039 138<-82 678>
LayerCount: 2
Fore
SplineSet
748 1039 m 1x20
 315 1039 l 1
 244 1178 l 1
 678 1178 l 1
 748 1039 l 1x20
313 784 m 0xa0
 437 784 659 722 828 541 c 1
 874 563 l 1
 872 418 l 1
 471 199 l 1
 497 145 509 99 509 61 c 0
 509 21 495 2 466 2 c 0
 431 2 241 104 241 196 c 1
 246 242 262 259 764 506 c 1
 630 626 482 643 404 643 c 0x60
 375 643 357 641 350 639 c 1
 350 584 l 2
 350 525 350 473 285 473 c 0
 273 473 125 599 125 692 c 0
 125 753 188 784 313 784 c 0xa0
EndSplineSet
LCarets2: 1 0
Ligature2: "'half' Half Forms lookup 2-1" u0928_u094D_u0928 u094D
EndChar

StartChar: u092A.half
Encoding: 293 -1 226
Width: 721
VWidth: 1596
GlyphClass: 3
Flags: HW
HStem: 348 101<298 567> 1039 138<264 634>
VStem: 125 139<501 1039>
AnchorPoint: "blwm" 519 123 basechar 0
LayerCount: 2
Fore
SplineSet
709 602 m 1
 709 434 l 1
 639 374 556 348 475 348 c 0
 295 348 125 476 125 643 c 2
 125 1039 l 1
 201 1039 l 1
 129 1178 l 1
 634 1178 l 1
 706 1039 l 1
 264 1039 l 1
 264 651 l 2
 264 463 337 450 393 450 c 0
 471 450 592 479 709 602 c 1
EndSplineSet
LCarets2: 1 0
Ligature2: "'half' Half Forms lookup 2-1" u092A u094D
EndChar

StartChar: u092A.half.vatu
Encoding: 295 -1 228
Width: 722
VWidth: 1596
GlyphClass: 3
Flags: HW
HStem: 1039 138<-82 123 262 641>
VStem: 123 139<512 1039>
LayerCount: 2
Fore
SplineSet
390 438 m 0
 465 438 571 504 707 601 c 1
 707 434 l 1
 228 2 l 1
 124 96 l 1
 423 366 l 1
 228 389 123 527 123 651 c 2
 123 1039 l 1
 201 1039 l 1
 129 1178 l 1
 641 1178 l 1
 713 1039 l 1
 262 1039 l 1
 262 650 l 2
 262 504 305 438 390 438 c 0
EndSplineSet
EndChar

StartChar: u092B.half
Encoding: 296 -1 229
Width: 859
VWidth: 1596
GlyphClass: 3
Flags: HW
HStem: 347 73<321 497> 626 142<951 1068> 1039 138<-82 123 262 642 781 1150>
VStem: 123 139<516 1039> 642 139<0 397 640 1039>
AnchorPoint: "blwm" 710 0 basechar 0
LayerCount: 2
Fore
SplineSet
642 0 m 1
 642 397 l 1
 575 362 544 347 476 347 c 0
 223 347 123 548 123 653 c 2
 123 1039 l 1
 212 1039 l 1
 140 1178 l 1
 1150 1178 l 1
 1214 1039 l 1
 781 1039 l 1
 781 640 l 1
 810 664 953 768 1068 768 c 1
 1068 626 l 1
 1016 621 872 550 781 472 c 1
 781 -72 l 1
 642 0 l 1
642 558 m 1
 642 1039 l 1
 262 1039 l 1
 262 650 l 2
 262 461 345 420 401 420 c 0
 449 420 538 473 642 558 c 1
EndSplineSet
LCarets2: 1 0
Ligature2: "'half' Half Forms lookup 2-1" u092B u094D
EndChar

StartChar: u095E.half
Encoding: 297 -1 230
Width: 1131
VWidth: 1596
GlyphClass: 3
Flags: HW
HStem: 0 22G<404 446> 347 73<403 579> 626 142<1033 1150> 1039 138<0 205 344 724 863 1232>
VStem: 205 139<516 1039> 724 139<0 397 640 1039>
AnchorPoint: "blwm" 792 0 basechar 0
LayerCount: 2
Fore
SplineSet
549 122 m 1
 425 0 l 1
 298 125 l 1
 422 248 l 1
 549 122 l 1
EndSplineSet
Refer: 229 -1 N 1 0 0 1 0 0 2
EndChar

StartChar: zero
Encoding: 16 48 231
Width: 1180
VWidth: 2097
GlyphClass: 2
Flags: HW
LayerCount: 2
Fore
SplineSet
874 702 m 256
 874 755 873 807 869 859 c 128
 865 911 859 960 850 1007 c 128
 841 1054 829 1098 815 1138 c 128
 801 1178 783 1213 762 1242 c 128
 741 1271 716 1294 687 1311 c 128
 658 1328 626 1336 589 1336 c 256
 552 1336 519 1328 490 1311 c 128
 461 1294 437 1271 416 1242 c 128
 395 1213 378 1178 364 1138 c 128
 350 1098 338 1054 329 1007 c 128
 320 960 314 911 310 859 c 128
 306 807 304 755 304 702 c 256
 304 649 306 598 310 546 c 128
 314 494 320 446 329 399 c 128
 338 352 350 309 364 269 c 128
 378 229 395 194 416 165 c 128
 437 136 461 114 490 97 c 128
 519 80 552 72 589 72 c 256
 626 72 658 80 687 97 c 128
 716 114 741 136 762 165 c 128
 783 194 801 229 815 269 c 128
 829 309 841 352 850 399 c 128
 859 446 865 494 869 546 c 128
 873 598 874 649 874 702 c 256
1097 702 m 0
 1097 602 1086 507 1065 418 c 128
 1044 329 1013 251 971 184 c 128
 929 117 877 64 813 25 c 128
 749 -14 674 -34 589 -34 c 256
 504 -34 429 -14 366 25 c 128
 303 64 250 117 208 184 c 128
 166 251 135 329 115 418 c 128
 95 507 84 602 84 702 c 0
 84 769 89 835 98 897 c 128
 107 959 121 1017 139 1072 c 128
 157 1127 180 1177 208 1222 c 128
 236 1267 268 1306 306 1338 c 128
 344 1370 386 1396 433 1414 c 128
 480 1432 532 1441 589 1441 c 256
 646 1441 698 1432 745 1414 c 128
 792 1396 834 1370 872 1338 c 128
 910 1306 943 1267 971 1222 c 128
 999 1177 1022 1127 1041 1072 c 128
 1060 1017 1074 959 1083 897 c 128
 1092 835 1097 769 1097 702 c 0
EndSplineSet
EndChar

StartChar: one
Encoding: 17 49 232
Width: 1180
VWidth: 2097
GlyphClass: 2
Flags: HW
LayerCount: 2
Fore
SplineSet
226 0 m 1
 226 94 l 1
 438 102 l 2
 451 102 462 107 471 116 c 128
 480 125 484 136 484 148 c 2
 484 1263 l 1
 160 1206 l 1
 160 1300 l 1
 612 1441 l 1
 692 1441 l 1
 692 148 l 2
 692 136 697 125 706 116 c 128
 715 107 725 102 738 102 c 2
 935 94 l 1
 935 0 l 1
 226 0 l 1
EndSplineSet
EndChar

StartChar: two
Encoding: 18 50 233
Width: 1180
VWidth: 2097
GlyphClass: 2
Flags: HW
LayerCount: 2
Fore
SplineSet
98 0 m 1
 98 140 l 1
 204 228 303 309 392 383 c 128
 481 457 559 529 624 598 c 128
 689 667 740 733 776 800 c 128
 812 867 830 937 830 1011 c 0
 830 1062 822 1106 806 1145 c 128
 790 1184 769 1218 742 1245 c 128
 715 1272 684 1292 647 1306 c 128
 610 1320 571 1327 530 1327 c 0
 505 1327 483 1324 463 1319 c 128
 443 1314 426 1307 411 1300 c 128
 396 1293 383 1287 374 1282 c 128
 365 1277 359 1274 356 1273 c 1
 356 1040 l 1
 348 1033 340 1027 330 1022 c 0
 321 1017 310 1013 297 1010 c 128
 284 1007 270 1005 254 1005 c 0
 238 1005 222 1007 207 1012 c 128
 192 1017 178 1025 166 1035 c 128
 154 1045 145 1059 138 1074 c 128
 131 1089 128 1107 128 1128 c 0
 128 1172 140 1213 165 1251 c 128
 190 1289 224 1323 266 1351 c 128
 308 1379 357 1401 413 1417 c 128
 469 1433 528 1441 589 1441 c 0
 657 1441 720 1431 777 1411 c 128
 834 1391 884 1364 925 1328 c 128
 966 1292 999 1249 1022 1199 c 128
 1045 1149 1057 1093 1057 1032 c 0
 1057 983 1048 935 1029 887 c 128
 1010 839 984 792 950 745 c 128
 916 698 876 651 830 605 c 128
 784 559 733 512 679 465 c 128
 625 418 567 371 506 323 c 128
 445 275 384 226 321 176 c 1
 942 176 l 1
 979 356 l 1
 1082 356 l 1
 1082 0 l 1
 98 0 l 1
EndSplineSet
EndChar

StartChar: three
Encoding: 19 51 234
Width: 1180
VWidth: 2097
GlyphClass: 2
Flags: HW
LayerCount: 2
Fore
SplineSet
1082 400 m 0
 1082 337 1068 278 1039 225 c 128
 1010 172 971 126 921 88 c 128
 871 50 813 20 746 -2 c 128
 679 -24 608 -34 532 -34 c 0
 461 -34 399 -26 345 -10 c 128
 291 6 246 26 209 51 c 128
 172 76 145 103 126 132 c 128
 107 161 98 188 98 214 c 0
 98 228 101 242 106 255 c 128
 111 268 119 280 129 291 c 128
 139 302 152 311 167 317 c 128
 182 323 201 327 222 327 c 0
 230 327 243 326 258 324 c 128
 273 322 285 318 294 312 c 1
 356 126 l 1
 383 110 413 97 443 87 c 128
 473 77 506 72 539 72 c 0
 588 72 633 81 673 99 c 128
 713 117 747 142 776 173 c 128
 805 204 827 239 843 278 c 128
 859 317 866 358 866 400 c 0
 866 451 857 494 837 528 c 128
 817 562 792 589 761 609 c 128
 730 629 696 643 659 652 c 128
 622 661 587 665 552 665 c 0
 534 665 517 665 501 664 c 128
 485 663 472 661 460 660 c 0
 447 659 435 657 424 656 c 1
 424 786 l 1
 426 786 432 786 444 785 c 128
 456 784 467 784 478 784 c 0
 522 784 564 789 605 800 c 128
 646 811 681 826 712 848 c 128
 743 870 768 898 786 931 c 128
 804 964 814 1005 814 1051 c 0
 814 1095 806 1133 791 1167 c 128
 776 1201 755 1230 730 1254 c 128
 705 1278 675 1295 642 1307 c 128
 609 1319 574 1325 539 1325 c 0
 511 1325 485 1322 462 1316 c 128
 439 1310 418 1303 402 1295 c 0
 382 1287 365 1278 350 1267 c 1
 350 1057 l 1
 346 1055 335 1050 319 1042 c 128
 303 1034 282 1030 256 1030 c 0
 244 1030 230 1032 216 1036 c 128
 202 1040 188 1046 176 1055 c 128
 164 1064 154 1076 146 1091 c 128
 138 1106 134 1124 134 1147 c 0
 134 1187 146 1224 171 1260 c 128
 196 1296 229 1327 271 1354 c 128
 313 1381 363 1401 419 1417 c 128
 475 1433 535 1441 598 1441 c 0
 659 1441 715 1432 767 1415 c 128
 819 1398 865 1373 904 1342 c 128
 943 1311 973 1273 995 1228 c 128
 1017 1183 1028 1133 1028 1078 c 0
 1028 999 1001 930 945 872 c 128
 889 814 809 769 705 740 c 1
 749 738 793 730 838 716 c 128
 883 702 923 682 959 654 c 128
 995 626 1025 591 1048 549 c 128
 1071 507 1082 457 1082 400 c 0
EndSplineSet
EndChar

StartChar: four
Encoding: 20 52 235
Width: 1180
VWidth: 2097
GlyphClass: 2
Flags: HW
LayerCount: 2
Fore
SplineSet
722 1172 m 1
 250 560 l 1
 722 560 l 1
 722 1172 l 1
919 418 m 1
 919 -34 l 1
 722 -34 l 1
 722 418 l 1
 84 418 l 1
 84 562 l 1
 772 1441 l 1
 919 1441 l 1
 919 560 l 1
 1097 560 l 1
 1097 418 l 1
 919 418 l 1
EndSplineSet
EndChar

StartChar: five
Encoding: 21 53 236
Width: 1180
VWidth: 2097
GlyphClass: 2
Flags: HW
LayerCount: 2
Fore
SplineSet
1084 455 m 0
 1084 384 1072 319 1046 259 c 128
 1020 199 983 147 933 104 c 128
 883 61 822 27 748 3 c 128
 674 -21 589 -34 493 -34 c 0
 438 -34 386 -26 338 -10 c 128
 290 6 248 25 212 49 c 128
 176 73 147 100 126 129 c 128
 105 158 94 187 94 214 c 0
 94 252 107 282 132 302 c 128
 157 322 188 332 226 332 c 0
 238 332 249 330 260 328 c 128
 271 326 279 324 283 323 c 1
 362 130 l 1
 370 122 381 114 395 107 c 128
 409 100 423 93 438 88 c 128
 453 83 468 78 483 75 c 128
 498 72 512 70 524 70 c 0
 579 70 629 80 672 101 c 128
 715 122 751 148 780 181 c 128
 809 214 832 250 847 290 c 128
 862 330 870 367 870 404 c 0
 870 463 861 515 843 558 c 128
 825 601 799 637 767 666 c 128
 735 695 697 716 653 730 c 128
 609 744 563 751 512 751 c 0
 477 751 441 747 402 739 c 128
 363 731 327 724 294 715 c 0
 255 705 216 693 178 680 c 1
 178 1407 l 1
 988 1407 l 1
 988 1229 l 1
 327 1229 l 1
 327 830 l 1
 328 830 337 833 353 839 c 128
 369 845 391 852 418 858 c 128
 445 864 475 870 508 876 c 128
 541 882 575 885 610 885 c 0
 683 885 749 875 807 856 c 128
 865 837 915 808 956 771 c 128
 997 734 1029 689 1051 636 c 128
 1073 583 1084 523 1084 455 c 0
EndSplineSet
EndChar

StartChar: six
Encoding: 22 54 237
Width: 1180
VWidth: 2097
GlyphClass: 2
Flags: HW
LayerCount: 2
Fore
SplineSet
883 453 m 0
 883 504 876 549 863 590 c 128
 850 631 830 666 804 694 c 128
 778 722 748 743 711 758 c 128
 674 773 633 780 587 780 c 0
 564 780 541 778 516 773 c 128
 491 768 467 760 442 751 c 128
 417 742 394 731 370 718 c 128
 346 705 324 691 304 675 c 1
 302 653 301 632 301 613 c 128
 301 594 300 576 300 560 c 0
 300 488 305 423 316 364 c 128
 327 305 344 253 368 210 c 128
 392 167 421 135 457 111 c 128
 493 87 536 76 587 76 c 256
 638 76 681 85 718 105 c 128
 755 125 786 152 810 186 c 128
 834 220 853 259 865 305 c 128
 877 351 883 400 883 453 c 0
1097 480 m 0
 1097 404 1084 334 1057 271 c 128
 1030 208 994 154 948 109 c 128
 902 64 848 29 786 4 c 128
 724 -21 658 -34 587 -34 c 256
 516 -34 450 -22 389 1 c 128
 328 24 274 61 229 112 c 128
 184 163 149 228 123 309 c 128
 97 390 84 487 84 602 c 0
 84 727 102 841 140 944 c 128
 178 1047 233 1135 304 1209 c 128
 375 1283 463 1340 567 1380 c 128
 671 1420 790 1441 923 1441 c 1
 923 1311 l 1
 851 1313 l 2
 784 1315 720 1305 660 1281 c 128
 600 1257 545 1223 497 1177 c 128
 449 1131 409 1075 376 1009 c 128
 343 943 321 867 310 784 c 1
 368 834 427 869 485 888 c 128
 543 907 601 916 660 916 c 0
 726 916 786 905 840 883 c 128
 894 861 939 831 977 792 c 128
 1015 753 1044 706 1065 653 c 128
 1086 600 1097 542 1097 480 c 0
EndSplineSet
EndChar

StartChar: seven
Encoding: 23 55 238
Width: 1180
VWidth: 2097
GlyphClass: 2
Flags: HW
LayerCount: 2
Fore
SplineSet
404 36 m 1
 404 -34 l 1
 182 -34 l 1
 874 1229 l 1
 228 1229 l 1
 195 1038 l 1
 88 1038 l 1
 88 1407 l 1
 1093 1407 l 1
 1093 1290 l 1
 404 36 l 1
EndSplineSet
EndChar

StartChar: eight
Encoding: 24 56 239
Width: 1180
VWidth: 2097
GlyphClass: 2
Flags: HW
LayerCount: 2
Fore
SplineSet
883 348 m 0
 883 392 873 429 855 459 c 128
 837 489 809 517 774 541 c 128
 739 565 695 588 644 610 c 128
 593 632 534 655 468 682 c 1
 441 668 417 652 394 634 c 128
 371 616 351 596 334 573 c 128
 317 550 303 524 293 495 c 128
 283 466 279 432 279 394 c 0
 279 349 285 307 298 269 c 128
 311 231 331 197 357 169 c 128
 383 141 416 119 455 103 c 128
 494 87 538 80 589 80 c 0
 634 80 674 87 711 102 c 128
 748 117 779 136 804 161 c 128
 829 186 848 215 862 247 c 128
 876 279 883 313 883 348 c 0
845 1061 m 0
 845 1104 838 1142 824 1176 c 128
 810 1210 792 1238 769 1262 c 128
 746 1286 719 1304 688 1316 c 128
 657 1328 624 1334 589 1334 c 0
 554 1334 521 1327 491 1314 c 128
 461 1301 436 1284 415 1262 c 128
 394 1240 378 1214 366 1185 c 128
 354 1156 348 1126 348 1095 c 0
 348 1058 356 1025 372 995 c 128
 388 965 410 937 439 912 c 128
 468 887 504 864 547 842 c 128
 590 820 638 800 692 780 c 1
 713 796 733 814 752 833 c 128
 771 852 787 873 801 896 c 128
 815 919 825 945 833 972 c 128
 841 999 845 1029 845 1061 c 0
1095 382 m 0
 1095 322 1082 267 1056 216 c 128
 1030 165 995 121 950 84 c 128
 905 47 852 18 790 -3 c 128
 728 -24 661 -34 589 -34 c 0
 512 -34 442 -23 380 -3 c 128
 318 17 265 46 221 83 c 128
 177 120 143 164 119 214 c 128
 95 264 84 319 84 378 c 0
 84 426 92 468 109 505 c 128
 126 542 148 574 176 602 c 128
 204 630 235 655 271 675 c 128
 307 695 345 713 384 728 c 1
 355 740 326 755 297 774 c 128
 268 793 242 816 219 843 c 128
 196 870 177 899 162 933 c 128
 147 967 140 1005 140 1047 c 0
 140 1107 151 1161 173 1209 c 128
 195 1257 225 1300 264 1334 c 128
 303 1368 351 1395 406 1413 c 128
 461 1431 522 1441 589 1441 c 0
 653 1441 712 1431 767 1413 c 128
 822 1395 869 1369 909 1337 c 128
 949 1305 981 1266 1004 1222 c 128
 1027 1178 1038 1131 1038 1080 c 0
 1038 1036 1030 995 1013 959 c 128
 996 923 975 891 950 863 c 128
 925 835 897 811 867 791 c 128
 837 771 809 753 782 740 c 1
 815 728 851 713 888 694 c 128
 925 675 958 652 989 623 c 128
 1020 594 1045 560 1065 521 c 128
 1085 482 1095 435 1095 382 c 0
EndSplineSet
EndChar

StartChar: nine
Encoding: 25 57 240
Width: 1180
VWidth: 2097
GlyphClass: 2
Flags: HW
LayerCount: 2
Fore
SplineSet
879 847 m 0
 879 919 873 984 862 1043 c 128
 851 1102 834 1154 810 1197 c 128
 786 1240 757 1272 721 1296 c 128
 685 1320 642 1331 592 1331 c 0
 541 1331 497 1321 460 1302 c 128
 423 1283 392 1256 368 1222 c 128
 344 1188 326 1148 314 1102 c 128
 302 1056 296 1007 296 954 c 0
 296 903 303 858 316 817 c 128
 329 776 348 741 374 713 c 128
 400 685 430 664 467 649 c 128
 504 634 546 627 592 627 c 0
 615 627 638 629 663 634 c 128
 688 639 711 647 736 656 c 128
 761 665 784 676 808 689 c 128
 832 702 854 716 874 732 c 1
 876 754 878 775 878 794 c 128
 878 813 879 831 879 847 c 0
1097 805 m 0
 1097 680 1078 566 1040 463 c 128
 1002 360 948 272 876 198 c 128
 804 124 716 67 612 27 c 128
 508 -13 389 -34 256 -34 c 1
 256 96 l 1
 327 94 l 2
 394 92 457 102 518 126 c 128
 579 150 634 184 682 230 c 128
 730 276 771 332 804 398 c 128
 837 464 859 540 870 623 c 1
 841 598 812 577 783 560 c 128
 754 543 725 529 696 519 c 128
 667 509 637 501 608 497 c 128
 579 493 549 490 520 490 c 0
 454 490 394 501 340 523 c 128
 286 545 241 575 203 614 c 128
 165 653 136 698 115 751 c 128
 94 804 84 862 84 925 c 0
 84 1001 97 1072 123 1135 c 128
 149 1198 185 1253 231 1298 c 128
 277 1343 331 1378 393 1403 c 128
 455 1428 521 1441 592 1441 c 0
 662 1441 729 1429 790 1406 c 128
 851 1383 904 1346 950 1295 c 128
 996 1244 1032 1179 1058 1098 c 128
 1084 1017 1097 920 1097 805 c 0
EndSplineSet
EndChar

StartChar: u0961
Encoding: 187 2401 241
Width: 1651
VWidth: 1596
GlyphClass: 2
Flags: HW
HStem: -411 71<1081 1272> 47 42<1033 1042> 312 83<1068 1219> 755 99<404 600>
VStem: 164 141<327 652> 878 118<102 256> 914 106<-277 -93> 1268 116<444 700>
LayerCount: 2
Fore
SplineSet
1075 1039 m 1xfd
 1075 851 l 1
 881 839 807 744 742 644 c 1
 710 731 610 854 429 854 c 0
 257 854 164 704 164 524 c 0
 164 341 272 126 498 -15 c 1
 577 51 l 1
 400 172 305 368 305 507 c 0
 305 635 401 755 531 755 c 0
 616 755 677 659 694 574 c 1
 613 441 l 1
 745 370 l 1
 909 667 996 776 1127 776 c 0
 1240 776 1268 673 1268 598 c 0
 1268 528 1218 423 1195 394 c 1
 1184 395 1173 395 1163 395 c 0
 968 395 878 300 878 204 c 0xfd
 878 128 934 47 1042 47 c 1
 933 -4 914 -101 914 -153 c 0
 914 -276 1049 -411 1242 -411 c 0
 1377 -411 1469 -321 1488 -282 c 1
 1469 -245 1447 -210 1427 -176 c 1
 1400 -214 1269 -340 1164 -340 c 0
 1073 -340 1021 -278 1021 -210 c 0xfb
 1021 -106 1129 15 1324 15 c 1
 1243 137 l 1
 1205 119 1088 89 1081 89 c 0
 1033 89 995 135 995 171 c 0
 995 260 1079 306 1325 312 c 1
 1339 328 1383 457 1383 511 c 0
 1383 693 1287 792 1203 834 c 1
 1203 1039 l 1
 1297 1039 l 1
 1227 1178 l 1
 217 1178 l 1
 289 1039 l 1
 1075 1039 l 1xfd
EndSplineSet
EndChar

StartChar: u090C
Encoding: 107 2316 242
Width: 1515
VWidth: 1597
GlyphClass: 2
Flags: HW
HStem: -195 60<1024 1169> 0 22G<345 512> 726 112<412 627> 1039 138<-32 995 1135 1555>
VStem: 164 136<332 613> 860 129<-71 83> 995 139<830 1039> 1238 114<452 690>
LayerCount: 2
Fore
SplineSet
1135 837 m 1
 1293 798 1352 624 1352 503 c 0
 1352 391 1262 295 1172 213 c 1
 1108 156 l 1
 1043 98 989 46 989 0 c 0
 989 -48 1015 -134 1081 -134 c 0
 1120 -134 1180 -101 1230 -69 c 1
 1341 -137 l 1
 1271 -175 1198 -195 1124 -195 c 0
 974 -195 860 -55 860 60 c 0
 860 129 921 191 994 254 c 1
 1061 311 l 1
 1151 389 1238 474 1238 581 c 0
 1238 725 1135 764 1086 764 c 0
 966 764 828 540 735 370 c 1
 603 441 l 1
 710 617 l 1
 648 685 611 726 541 726 c 0
 427 726 300 623 300 471 c 0
 300 312 408 155 566 66 c 1
 487 0 l 1
 201 211 164 433 164 526 c 0
 164 662 234 838 442 838 c 0
 530 838 666 808 759 680 c 1
 824 780 889 818 995 840 c 1
 995 1039 l 1
 345 1039 l 1
 273 1178 l 1
 1224 1178 l 1
 1295 1039 l 1
 1135 1039 l 1
 1135 837 l 1
EndSplineSet
EndChar

StartChar: u0915_u094D_u0915
Encoding: 298 -1 243
Width: 1373
VWidth: 1596
GlyphClass: 3
Flags: HW
HStem: 91 81<280 452> 410 89<290 464> 445 96<936 1104> 790 96<936 1119> 826 81<306 541> 1039 138<-82 650 790 1455>
VStem: 133 101<229 417 537 758> 650 143<0 206 463 528 788 1039> 1146 101<216 394 521 749>
LayerCount: 2
Fore
SplineSet
794 281 m 1xb780
 794 -72 l 1
 648 0 l 1
 648 206 l 1
 591 141 495 91 421 91 c 0
 265 91 133 234 133 358 c 0
 133 416 156 472 206 510 c 1
 144 559 126 630 126 681 c 0
 126 816 250 907 388 907 c 0xaf80
 482 907 581 866 650 769 c 1
 650 1039 l 1
 369 1039 l 1
 297 1178 l 1
 943 1178 l 1
 1015 1039 l 1
 790 1039 l 1
 790 788 l 1
 871 847 924 886 994 886 c 0
 1127 886 1247 744 1247 583 c 0
 1247 538 1236 495 1216 455 c 1
 1088 547 l 1
 1115 589 1146 653 1146 691 c 0
 1146 751 1114 790 1058 790 c 0
 952 790 808 642 794 626 c 1
 794 463 l 1
 875 522 904 542 974 542 c 0
 1107 542 1247 400 1247 239 c 0
 1247 194 1174 86 1143 49 c 1
 1015 141 l 1
 1057 184 1146 309 1146 347 c 0
 1146 407 1114 445 1058 445 c 0
 952 445 808 297 794 281 c 1xb780
650 695 m 1
 621 783 532 826 444 826 c 0
 340 826 239 767 239 657 c 0
 239 603 268 500 341 500 c 0xcf80
 409 500 510 557 650 695 c 1
650 378 m 1
 650 528 l 1
 576 467 491 410 392 410 c 0
 365 410 331 426 307 442 c 1
 258 408 234 353 234 304 c 0
 234 243 270 172 342 172 c 0
 430 172 546 276 650 378 c 1
EndSplineSet
LCarets2: 1 0
Ligature2: "'pres' Pre Base Substitutions lookup 7-1" u0915.half u0915
EndChar

StartChar: u0915_u094D_u0935
Encoding: 299 -1 244
Width: 1362
VWidth: 1596
GlyphClass: 3
Flags: HW
HStem: 91 81<278 467> 410 95<282 467> 790 96<934 1117> 826 81<305 539> 1039 138<-82 648 788 1445>
VStem: 131 101<229 417 537 763> 648 143<0 215 348 528 788 1039> 1144 101<571 749>
LayerCount: 2
Fore
SplineSet
792 626 m 1xef
 792 -72 l 1
 646 0 l 1
 646 215 l 1
 589 150 493 91 419 91 c 0
 263 91 131 234 131 358 c 0
 131 416 154 472 204 510 c 1
 142 559 124 630 124 681 c 0
 124 816 248 907 386 907 c 0xdf
 480 907 579 866 648 769 c 1
 648 1039 l 1
 396 1039 l 1
 325 1178 l 1
 952 1178 l 1
 1024 1039 l 1
 788 1039 l 1
 788 788 l 1
 869 847 922 886 992 886 c 0
 1125 886 1245 744 1245 583 c 0
 1245 538 1190 412 1159 378 c 1
 1031 470 l 1
 1073 504 1144 653 1144 691 c 0
 1144 751 1112 790 1056 790 c 0
 950 790 806 642 792 626 c 1xef
648 695 m 1
 619 783 530 826 442 826 c 0
 295 826 229 728 229 640 c 0
 229 569 274 505 338 505 c 0
 414 505 527 575 648 695 c 1
648 440 m 1
 648 528 l 1
 574 467 489 410 390 410 c 0
 363 410 329 426 305 442 c 1
 256 408 232 353 232 304 c 0
 232 243 268 172 340 172 c 0
 428 172 594 258 648 440 c 1
EndSplineSet
EndChar

StartChar: u0922_u094D_u0922
Encoding: 300 -1 245
Width: 857
VWidth: 1596
GlyphClass: 3
Flags: HW
HStem: -5 79<439 622> 255 60<507 623> 347 115<248 342> 496 77<516 552> 755 60<507 623> 847 115<248 342>
VStem: 124 110<181 331 682 831> 377 108<90 246 589 745> 638 89<88 248 587 747>
LayerCount: 2
Fore
SplineSet
516 75 m 1
 494 104 485 132 485 157 c 0
 485 214 516 255 568 255 c 0
 611 255 638 216 638 174 c 0
 638 126 618 74 533 74 c 0
 527 74 522 75 516 75 c 1
552 496 m 1
 552 462 l 1
 287 462 l 1
 174 445 124 382 124 307 c 0
 124 170 295 -5 564 -5 c 0
 677 -5 727 61 727 133 c 0
 727 220 654 315 531 315 c 0
 434 315 377 260 377 193 c 0
 377 155 395 113 434 76 c 1
 327 94 234 191 234 264 c 0
 234 306 266 341 342 347 c 1
 604 347 l 2
 639 347 685 376 685 417 c 2
 685 531 l 1
 715 557 727 595 727 633 c 0
 727 720 654 815 531 815 c 0
 434 815 377 759 377 692 c 0
 377 654 395 612 434 575 c 1
 327 593 234 691 234 764 c 0
 234 806 266 841 342 847 c 1
 604 847 l 2
 639 847 686 855 686 896 c 2
 686 1039 l 1
 727 1039 l 1
 654 1178 l 1
 282 1178 l 1
 353 1039 l 1
 553 1039 l 1
 553 962 l 1
 287 962 l 1
 174 945 124 882 124 807 c 0
 124 673 291 502 552 496 c 1
516 574 m 1
 494 603 485 632 485 657 c 0
 485 714 516 755 568 755 c 0
 611 755 638 716 638 674 c 0
 638 626 618 574 533 574 c 0
 527 574 522 574 516 574 c 1
EndSplineSet
LCarets2: 2 0 0
Ligature2: "'pres' Pre Base Substitutions lookup 7-1" u0922 u094D u0922
EndChar

StartChar: u0915.vatu.alt
Encoding: 301 -1 246
Width: 1568
VWidth: 1596
GlyphClass: 3
Flags: HW
HStem: 610 109<1059 1303> 663 132<200 569> 1039 138<-82 777 920 1651>
VStem: 777 142<0 382 628 1039> 1328 120<303 586>
AnchorPoint: "blwm" 847 0 basechar 0
LayerCount: 2
Fore
SplineSet
777 594 m 1x78
 777 1039 l 1
 433 1039 l 1
 361 1178 l 1
 1032 1178 l 1
 1104 1039 l 1
 920 1039 l 1
 920 628 l 1
 1007 688 1090 719 1171 719 c 0
 1350 719 1448 579 1448 407 c 0
 1448 312 1412 132 1196 -70 c 1
 1070 42 l 1
 1242 190 1328 337 1328 480 c 0
 1328 562 1283 610 1205 610 c 0xb8
 1123 610 1029 561 920 463 c 1
 920 -72 l 1
 777 0 l 1
 777 382 l 1
 280 59 l 1
 195 175 l 1
 752 522 l 1
 614 615 518 663 464 663 c 0
 403 663 322 646 224 611 c 1
 122 753 l 1
 237 781 324 795 384 795 c 0
 531 795 639 725 777 594 c 1x78
EndSplineSet
EndChar

StartChar: u0926_u094D_u0918
Encoding: 302 -1 247
Width: 1269
VWidth: 1596
GlyphClass: 3
Flags: HW
HStem: -271 75<444 633> 119 105<616 852> 751 135<555 903> 1039 138<-82 903 1049 1352>
VStem: 121 116<150 327> 294 150<465 658> 302 118<-175 11> 798 284<254 393> 903 145<886 1039>
AnchorPoint: "blwm" 1147 -191 basechar 0
LayerCount: 2
Fore
SplineSet
385 101 m 1xfa
 385 101 398 132 488 154 c 1
 537 112 569 80 580 61 c 1
 463 53 420 -37 420 -90 c 0
 420 -144 455 -197 529 -197 c 0
 600 -197 805 -91 880 121 c 1
 855 119 835 119 820 119 c 0
 537 119 397 285 349 367 c 1
 274 340 237 291 237 241 c 0
 237 185 283 121 385 101 c 1xfa
308 475 m 1
 299 510 294 543 294 575 c 0
 294 760 447 886 693 886 c 2
 903 886 l 1
 903 1039 l 1
 410 1039 l 1
 338 1178 l 1
 1065 1178 l 1
 1137 1039 l 1
 1049 1039 l 1
 1049 787 l 2xfc80
 1049 762 1032 751 1001 751 c 1
 860 751 l 1
 655 751 443 734 443 536 c 0
 443 391 590 224 780 224 c 0
 798 224 822 229 853 236 c 1
 838 255 798 346 798 398 c 0
 798 453 831 487 881 487 c 1
 969 477 1081 384 1081 283 c 0xfd
 1081 234 1056 194 1007 159 c 1
 1085 16 1140 -85 1175 -141 c 1
 1097 -188 l 1
 985 29 l 1
 942 -86 783 -271 575 -271 c 0
 397 -271 302 -156 302 -60 c 0
 302 -34 312 24 344 55 c 1
 128 83 121 224 121 254 c 256
 121 353 195 447 308 475 c 1
EndSplineSet
LCarets2: 2 0 0
Ligature2: "'pres' Pre Base Substitutions lookup 7-1" u0926 u094D u0918
EndChar

StartChar: u0926_u094D_u092C
Encoding: 303 -1 248
Width: 1024
VWidth: 1596
GlyphClass: 3
Flags: HW
HStem: -253 113<322 505> 153 95<457 672> 743 144<367 717> 1039 138<-82 717 860 1116>
VStem: 126 158<424 670> 167 103<-87 142> 611 284<277 392> 717 143<888 1039>
LayerCount: 2
Fore
SplineSet
552 888 m 2xf8
 717 888 l 1
 717 1039 l 1
 287 1039 l 1
 215 1178 l 1
 877 1178 l 1
 938 1039 l 1
 860 1039 l 1
 860 782 l 2
 860 747 841 745 778 745 c 1
 650 743 l 1
 470 743 284 735 284 550 c 0xf9
 284 394 436 248 638 248 c 0
 650 248 661 248 672 249 c 1
 650 282 611 367 611 416 c 0
 611 455 635 474 681 474 c 0
 752 474 895 396 895 307 c 0
 895 266 869 225 820 184 c 1
 915 29 979 -69 1010 -113 c 1
 926 -154 l 1
 828 8 l 1
 792 -120 674 -253 475 -253 c 0
 292 -253 167 -98 167 44 c 0xf6
 167 97 181 196 300 269 c 1
 216 327 126 461 126 588 c 0
 126 713 192 888 552 888 c 2xf8
593 -100 m 1
 674 -78 730 -2 730 83 c 0
 730 107 723 131 711 157 c 1
 691 155 669 153 645 153 c 0
 571 153 502 165 437 191 c 1
 593 -100 l 1
509 -132 m 1
 357 165 l 1
 301 149 270 98 270 31 c 0xf4
 270 -47 321 -140 440 -140 c 0
 464 -140 482 -138 509 -132 c 1
EndSplineSet
LCarets2: 2 0 0
Ligature2: "'pres' Pre Base Substitutions lookup 7-1" u0926 u094D u092C
EndChar

StartChar: u0926_u094D_u092D
Encoding: 304 -1 249
Width: 1486
VWidth: 1596
GlyphClass: 3
Flags: HW
HStem: 196 110<257 474> 525 69<252 394> 751 139<827 1189> 1039 138<-82 1189 1334 1569>
VStem: 124 101<337 508> 579 138<406 648> 1082 284<272 418> 1189 145<890 1039>
AnchorPoint: "blwm" 1420 -191 basechar 0
LayerCount: 2
Fore
SplineSet
1217 132 m 1xfe
 712 -48 l 1
 741 -176 l 1
 741 -204 708 -217 676 -217 c 0
 518 -217 455 -59 455 -35 c 0
 455 -21 457 -2 555 27 c 1
 506 214 l 1
 462 202 415 196 365 196 c 0
 172 196 124 318 124 412 c 0
 124 508 214 594 319 594 c 0
 534 594 593 384 678 60 c 1
 868 122 925 145 927 150 c 1
 720 221 579 403 579 572 c 0
 579 699 657 881 979 890 c 1
 1189 890 l 1
 1189 1039 l 1
 315 1039 l 1
 244 1178 l 1
 1366 1178 l 1
 1438 1039 l 1
 1334 1039 l 1
 1334 794 l 2xfd
 1334 768 1318 756 1287 756 c 0
 1017 756 987 752 988 751 c 1
 779 746 717 603 717 523 c 0
 717 347 963 198 1083 198 c 0
 1119 198 1143 212 1147 241 c 1
 1128 266 1082 351 1082 403 c 0
 1082 428 1100 493 1171 493 c 0
 1285 493 1366 396 1366 300 c 0
 1366 243 1341 198 1292 164 c 1
 1365 29 1421 -71 1461 -136 c 1
 1382 -182 l 1
 1217 132 l 1xfe
386 305 m 0
 404 305 449 312 475 317 c 1
 434 477 377 525 328 525 c 0
 265 525 225 474 225 422 c 0
 225 365 271 305 386 305 c 0
EndSplineSet
LCarets2: 2 0 0
Ligature2: "'pres' Pre Base Substitutions lookup 7-1" u0926 u094D u092D
EndChar

StartChar: u0921_u094D_u091F
Encoding: 305 -1 250
Width: 883
VWidth: 1596
GlyphClass: 3
Flags: HW
HStem: -1 64<344 564> 314 79<379 561> 425 128<354 559> 654 114<328 426 486 517> 679 111<419 687> 850 123<327 419>
VStem: 187 123<103 260> 262 63<772 890> 687 66<584 675>
LayerCount: 2
Fore
SplineSet
686 1039 m 1xf580
 617 1039 l 1
 545 1178 l 1
 196 1178 l 1
 267 1039 l 1
 562 1039 l 1
 562 973 l 1
 374 973 l 1
 304 969 262 924 262 856 c 0
 262 762 328 657 426 654 c 1xf580
 451 655 479 659 506 664 c 1
 558 673 l 1
 578 676 596 679 608 679 c 0
 671 677 683 676 687 638 c 1
 687 561 561 553 472 553 c 0
 272 553 207 643 161 724 c 1
 125 698 l 1
 241 508 396 425 509 425 c 0
 527 425 545 428 561 432 c 1
 561 390 l 1
 544 392 486 393 466 393 c 0
 334 393 187 348 187 221 c 0
 187 117 278 -1 526 -1 c 0
 626 -1 715 57 744 85 c 1
 674 180 l 1
 629 125 543 64 429 64 c 0
 356 64 310 114 310 170 c 0
 310 238 377 314 544 314 c 2
 627 314 l 1
 657 314 661 315 661 345 c 1
 661 460 l 1
 705 476 753 567 753 642 c 0
 753 721 700 791 592 791 c 0xee80
 569 791 543 786 517 782 c 1
 486 777 l 1
 460 773 433 768 410 768 c 0
 353 768 325 771 325 800 c 0
 325 843 377 850 419 850 c 2
 655 850 l 2
 670 850 686 854 686 869 c 2
 686 1039 l 1xf580
EndSplineSet
LCarets2: 2 0 0
Ligature2: "'pres' Pre Base Substitutions lookup 7-1" u0921 u094D u091F
EndChar

StartChar: u0952.alt
Encoding: 306 -1 251
Width: 26
VWidth: 1596
GlyphClass: 3
Flags: HW
HStem: 0 134<-442 -57>
LayerCount: 2
Fore
SplineSet
26 0 m 1
 -442 0 l 1
 -531 134 l 1
 -57 134 l 1
 26 0 l 1
EndSplineSet
EndChar

StartChar: u0951
Encoding: 173 2385 252
Width: 500
VWidth: 1596
GlyphClass: 4
Flags: HW
HStem: 1232 445<221 312>
VStem: 221 91<1232 1677>
LayerCount: 2
Fore
SplineSet
296 1178 m 1
 205 1178 l 1
 205 1638 l 1
 296 1638 l 1
 296 1178 l 1
EndSplineSet
EndChar

StartChar: u0952
Encoding: 174 2386 253
Width: 0
VWidth: 1596
GlyphClass: 4
Flags: HW
HStem: 1 134<-862 -212>
LayerCount: 2
Fore
SplineSet
-102 0 m 1
 -837 0 l 1
 -924 135 l 1
 -186 135 l 1
 -102 0 l 1
EndSplineSet
EndChar

StartChar: grave
Encoding: 175 2387 254
Width: 928
VWidth: 1596
GlyphClass: 4
Flags: HW
HStem: 1178 461
VStem: 284 519
LayerCount: 2
Fore
SplineSet
724 1178 m 1
 602 1178 l 1
 205 1638 l 1
 327 1638 l 1
 724 1178 l 1
EndSplineSet
EndChar

StartChar: acute
Encoding: 176 2388 255
Width: 928
VWidth: 1596
GlyphClass: 4
Flags: HW
HStem: 1178 462
LayerCount: 2
Fore
SplineSet
205 1178 m 1
 327 1178 l 1
 724 1639 l 1
 602 1639 l 1
 205 1178 l 1
EndSplineSet
EndChar

StartChar: u0970
Encoding: 202 2416 256
Width: 753
VWidth: 1596
GlyphClass: 2
Flags: HW
HStem: 426 84<273 488> 890 83<272 494>
VStem: 108 87<588 813> 569 87<591 814>
LayerCount: 2
Fore
SplineSet
378 813 m 0
 529 813 649 696 651 541 c 1
 651 398 542 266 378 266 c 0
 233 266 102 376 102 541 c 0
 102 691 217 813 378 813 c 0
379 350 m 0
 485 350 564 438 564 541 c 0
 564 644 494 730 379 730 c 0
 264 730 189 644 189 541 c 0
 189 439 265 350 379 350 c 0
EndSplineSet
EndChar

StartChar: u0937_u094D_u091F_u094D_u0935
Encoding: 307 -1 257
Width: 1051
VWidth: 1596
GlyphClass: 3
Flags: HW
HStem: -263 80<325 560> 59 86<328 628> 1039 138<-82 157 382 714 857 1134>
VStem: 157 144<598 997> 165 115<-135 58 176 363> 714 143<678 1039> 728 132<-318 -171>
AnchorPoint: "vatu" 478 -258 basechar 0
LayerCount: 2
Fore
SplineSet
311 510 m 1xea
 225 541 157 621 157 761 c 2
 157 1039 l 1
 254 1039 l 1
 182 1178 l 1
 838 1178 l 1
 909 1039 l 1
 857 1039 l 1
 857 668 l 2xf4
 857 552 721 505 578 464 c 1
 508 444 l 1
 376 406 273 363 273 263 c 0
 273 207 325 145 437 145 c 0
 505 145 746 203 893 333 c 1
 971 197 l 1
 951 184 912 165 860 143 c 1
 860 -398 l 1
 728 -318 l 1
 728 -171 l 1
 652 -232 569 -263 478 -263 c 0
 298 -263 165 -136 165 -7 c 0
 165 45 186 94 228 139 c 1
 167 185 153 244 153 318 c 0
 153 399 186 468 311 510 c 1xea
714 678 m 1
 714 1039 l 1
 382 1039 l 1
 714 678 l 1
644 615 m 1
 301 997 l 1
 301 722 l 2
 301 633 332 572 394 540 c 1
 644 615 l 1
727 96 m 1
 679 80 575 59 474 59 c 0
 420 59 377 65 345 77 c 1
 310 51 280 -1 280 -50 c 0xe8
 280 -113 332 -183 437 -183 c 0
 534 -183 696 -84 727 96 c 1
EndSplineSet
LCarets2: 2 0 0
Ligature2: "'pres' thripple consonant clustors" u0937_u094D_u091F u094D u0935
EndChar

StartChar: u0939_u094D_u0932
Encoding: 308 -1 258
Width: 1243
VWidth: 1596
GlyphClass: 3
Flags: HW
HStem: -156 67<840 903> 393 93<533 693> 393 74<870 1003> 615 83<449 847> 813 132<262 805> 1039 138<-82 805 947 1325>
VStem: 123 136<173 457> 136 108<649 793> 386 122<140 369> 805 142<945 1039> 1009 108<238 392>
LayerCount: 2
Fore
SplineSet
136 780 m 0xbde0
 136 843 172 945 317 945 c 2
 805 945 l 1
 805 1039 l 1
 311 1039 l 1
 240 1178 l 1
 1024 1178 l 1
 1096 1039 l 1
 947 1039 l 1
 947 860 l 2
 947 829 933 813 904 813 c 2
 347 813 l 2
 300 813 244 772 244 717 c 0
 244 681 263 657 314 628 c 1
 425 675 524 698 613 698 c 0
 948 698 1116 502 1116 297 c 0
 1116 206 1084 114 1016 36 c 1
 879 122 l 1
 976 224 1009 325 1009 376 c 1
 990 388 970 393 951 393 c 0xbde0
 873 393 803 295 743 180 c 1
 648 254 l 1
 706 333 l 1
 676 373 649 393 623 393 c 0
 554 393 508 342 508 269 c 0
 508 153 621 -7 937 -89 c 1
 894 -156 l 1
 716 -100 386 43 386 288 c 0
 386 407 478 486 582 486 c 0xdde0
 611 486 692 475 748 381 c 1
 787 427 822 467 888 467 c 0
 918 467 973 458 1008 427 c 1
 969 538 845 615 672 615 c 0
 462 615 259 523 259 297 c 0
 259 180 307 -50 946 -263 c 1
 901 -328 l 1
 671 -248 123 18 123 325 c 0xbee0
 123 410 148 497 253 586 c 1
 190 620 136 691 136 780 c 0xbde0
EndSplineSet
LCarets2: 1 0
Ligature2: "'pres' Pre Base Substitutions lookup 7-1" u0939.half u0932
EndChar

StartChar: u0939_u094D_u0935
Encoding: 309 -1 259
Width: 1248
VWidth: 1596
GlyphClass: 3
Flags: HW
HStem: 89 90<686 921> 414 92<715 923> 580 121<495 888> 813 132<298 841> 1039 138<-82 841 983 1330>
VStem: 124 160<88 391> 172 108<649 793> 550 117<201 365> 841 142<945 1039> 997 128<-6 161 401 507>
LayerCount: 2
Fore
SplineSet
1125 464 m 1xfbc0
 1125 -79 l 1
 997 -6 l 1
 997 161 l 1
 945 113 881 89 804 89 c 0
 663 89 550 176 550 304 c 0
 550 420 645 506 773 506 c 0
 798 506 905 502 997 401 c 1
 997 481 l 1
 931 534 825 580 708 580 c 0
 508 580 284 463 284 231 c 0
 284 114 351 -138 987 -350 c 1
 942 -415 l 1
 578 -284 124 -60 124 257 c 0xfdc0
 124 342 139 461 289 586 c 1
 226 620 172 691 172 780 c 0
 172 843 208 945 353 945 c 2
 841 945 l 1
 841 1039 l 1
 213 1039 l 1
 141 1178 l 1
 1028 1178 l 1
 1100 1039 l 1
 983 1039 l 1
 983 860 l 2
 983 829 969 813 940 813 c 2
 383 813 l 2
 336 813 280 772 280 717 c 0
 280 681 299 657 350 628 c 1
 464 677 563 700 649 700 c 0
 873 700 1044 600 1125 464 c 1xfbc0
667 279 m 0
 667 213 722 179 792 179 c 0
 838 179 934 197 997 310 c 1
 936 399 864 414 830 414 c 0
 740 414 667 342 667 279 c 0
EndSplineSet
LCarets2: 1 0
Ligature2: "'pres' Pre Base Substitutions lookup 7-1" u0939.half u0935
EndChar

StartChar: u0936.half.alt
Encoding: 310 -1 260
Width: 1336
VWidth: 1596
GlyphClass: 3
Flags: HW
HStem: 471 98<1002 1105> 1063 115<525 727>
VStem: 327 143<838 1008> 779 88<830 1017>
LayerCount: 2
Fore
SplineSet
762 673 m 1
 789 661 957 595 1104 569 c 1
 1132 471 l 1
 995 503 885 536 695 612 c 1
 322 375 l 1
 205 469 l 1
 351 542 439 594 554 682 c 1
 411 741 326 850 326 953 c 0
 326 1100 469 1178 587 1178 c 0
 717 1178 866 1095 866 873 c 0
 866 780 832 713 762 673 c 1
642 733 m 1
 710 768 778 853 778 934 c 0
 778 1012 710 1063 624 1063 c 0
 533 1063 469 995 469 919 c 0
 469 844 527 775 642 733 c 1
EndSplineSet
EndChar

StartChar: u092B
Encoding: 138 2347 261
Width: 1472
VWidth: 1596
GlyphClass: 2
Flags: HW
HStem: 347 91<346 565> 625 101<974 1196>
VStem: 164 139<491 653> 1217 92<343 606>
AnchorPoint: "blwm" 749 0 basechar 0
AnchorPoint: "N" 487 63 basechar 0
AnchorPoint: "abvm" 749 1175 basechar 0
LayerCount: 2
Fore
SplineSet
683 558 m 1
 597 493 495 438 429 438 c 0
 329 438 303 550 303 650 c 2
 303 1039 l 1
 683 1039 l 1
 683 558 l 1
822 467 m 1
 938 562 1019 625 1108 625 c 0
 1164 625 1217 596 1217 501 c 0
 1217 430 1161 288 1058 150 c 1
 1180 40 l 1
 1266 175 1309 302 1309 422 c 0
 1309 606 1209 726 1061 726 c 0
 974 726 936 713 821 635 c 1
 821 1039 l 1
 1091 1039 l 1
 1026 1178 l 1
 203 1178 l 1
 274 1039 l 1
 164 1039 l 1
 164 653 l 2
 164 548 227 347 480 347 c 0
 548 347 615 363 683 397 c 1
 683 0 l 1
 822 -72 l 1
 822 467 l 1
EndSplineSet
EndChar

StartChar: u092B.vatu
Encoding: 311 -1 263
Width: 1616
VWidth: 1596
GlyphClass: 3
Flags: HW
HStem: 347 81<354 464> 649 101<1056 1256> 1039 138<0 171 310 690 829 1466>
VStem: 171 139<510 1039> 690 139<0 397 635 1039> 1287 92<391 613>
LayerCount: 2
Fore
SplineSet
725 558 m 1
 725 1039 l 1
 345 1039 l 1
 345 650 l 2
 345 503 383 428 459 428 c 0
 521 428 634 490 725 558 c 1
501 347 m 1
 296 356 206 514 206 653 c 2
 206 1039 l 1
 290 1039 l 1
 218 1178 l 1
 1263 1178 l 1
 1327 1039 l 1
 864 1039 l 1
 864 635 l 1
 979 713 1079 751 1166 751 c 0
 1314 751 1414 630 1414 446 c 0
 1414 326 1371 200 1285 65 c 1
 1163 174 l 1
 1266 312 1322 454 1322 525 c 0
 1322 620 1269 649 1213 649 c 0
 1127 649 985 566 864 467 c 1
 864 -72 l 1
 725 0 l 1
 725 397 l 1
 296 4 l 1
 213 105 l 1
 501 347 l 1
EndSplineSet
LCarets2: 1 0
Ligature2: "'vatu' Vattu Variants lookup 6-1" u092B u0930.alt
EndChar

StartChar: u097F
Encoding: 211 2431 264
Width: 1134
VWidth: 1596
GlyphClass: 2
Flags: HW
HStem: -72 131<40 910> 234 97<450 703 450 703> 758 102<566 815 566 815> 1039 138<40 981 40 981 656 861 656 861 999 1206 999 1206>
VStem: 246 124<420 622 420 622> 861 138<0 1039 0 1039>
LayerCount: 2
Fore
SplineSet
910 59 m 1
 999 -72 l 1
 -32 -76 l 1
 40 55 l 1
 910 59 l 1
EndSplineSet
Refer: 265 2348 N 1 0 0 1 0 0 2
EndChar

StartChar: u092C.half
Encoding: 312 -1 266
Width: 824
VWidth: 1596
GlyphClass: 3
Flags: HW
HStem: 234 97<328 581> 758 102<444 693> 1039 138<274 859>
VStem: 124 124<420 622>
AnchorPoint: "blwm" 587 13 basechar 0
LayerCount: 2
Fore
SplineSet
248 499 m 0
 248 424 297 332 436 332 c 0
 480 332 529 341 583 359 c 1
 368 694 l 1
 298 650 248 577 248 499 c 0
501 860 m 0
 603 860 693 826 758 775 c 1
 758 659 l 1
 724 715 642 758 555 758 c 0
 517 758 478 750 437 735 c 1
 653 398 l 1
 702 433 738 469 758 507 c 1
 758 288 l 1
 702 257 629 234 543 234 c 0
 258 234 124 421 124 574 c 0
 124 689 208 860 501 860 c 0
931 1039 m 1
 274 1039 l 5
 203 1178 l 5
 859 1178 l 1
 931 1039 l 1
EndSplineSet
LCarets2: 1 0
Ligature2: "'half' Half Forms lookup 2-1" u092C u094D
EndChar

StartChar: u092C.half.vatu
Encoding: 314 -1 268
Width: 710
VWidth: 1596
GlyphClass: 3
Flags: HW
HStem: 756 102<443 693> 1039 138<-82 864>
VStem: 125 124<422 622>
AnchorPoint: "blwm" 587 -110 basechar 0
LayerCount: 2
Fore
SplineSet
342 4 m 1
 266 102 l 1
 484 234 l 1
 238 265 125 437 125 571 c 0
 125 728 255 858 502 858 c 0
 601 858 688 826 753 778 c 1
 753 667 l 1
 717 718 638 756 556 756 c 0
 518 756 479 748 438 733 c 1
 656 391 l 1
 700 422 733 453 753 488 c 1
 753 267 l 1
 650 187 545 119 342 4 c 1
249 497 m 0
 249 415 302 318 441 318 c 0
 486 318 535 329 589 349 c 1
 369 692 l 1
 299 648 249 575 249 497 c 0
936 1039 m 1
 377 1039 l 1
 305 1178 l 1
 864 1178 l 1
 936 1039 l 1
EndSplineSet
EndChar

StartChar: u092D.half
Encoding: 315 -1 270
Width: 964
VWidth: 1596
GlyphClass: 3
Flags: HW
HStem: 421 128<594 1014> 1039 138<695 818> 1082 68<285 434>
VStem: 154 99<880 1059> 472 122<559 696 765 1018>
AnchorPoint: "blwm" 551 151 basechar 0
LayerCount: 2
Fore
SplineSet
890 1039 m 1xd8
 695 1039 l 1
 624 1178 l 1
 818 1178 l 1
 890 1039 l 1xd8
594 808 m 2
 594 549 l 1
 1014 549 l 1
 1014 421 l 1
 593 421 l 1
 593 297 l 2
 593 271 576 256 552 256 c 0
 470 256 301 433 301 511 c 0
 301 536 318 559 346 559 c 2
 472 559 l 1
 472 685 l 1
 234 740 154 858 154 973 c 0
 154 1098 214 1150 325 1150 c 0xb8
 453 1150 594 1071 594 808 c 2
472 765 m 1
 472 912 l 1
 472 1056 403 1082 362 1082 c 0
 299 1082 253 1028 253 979 c 0
 253 916 316 823 472 765 c 1
EndSplineSet
LCarets2: 1 0
Ligature2: "'half' Half Forms lookup 2-1" u092D u094D
EndChar

StartChar: u092D.half.vatu
Encoding: 317 -1 272
Width: 946
VWidth: 1596
GlyphClass: 3
Flags: HW
HStem: 421 128<594 1014> 1039 138<695 818> 1082 68<285 434>
VStem: 154 99<880 1059> 472 122<559 696 765 1018>
AnchorPoint: "blwm" 628 -54 basechar 0
LayerCount: 2
Fore
SplineSet
1072 315 m 1x98
 581 -29 l 1
 496 83 l 1
 1065 426 l 1
 1072 315 l 1x98
EndSplineSet
Refer: 270 -1 N 1 0 0 1 0 0 2
EndChar

StartChar: u092E.half
Encoding: 318 -1 274
Width: 812
VWidth: 1596
GlyphClass: 3
Flags: HW
HStem: 437 140<430 904> 1039 138<225 294 430 728>
VStem: 294 136<578 1039>
AnchorPoint: "blwm" 382 151 basechar 0
LayerCount: 2
Fore
SplineSet
430 437 m 1
 430 314 l 2
 430 301 425 292 417 285 c 0
 409 278 398 273 386 273 c 0
 304 273 124 450 124 528 c 0
 124 553 141 578 169 578 c 2
 294 578 l 1
 294 1039 l 1
 225 1039 l 1
 154 1178 l 1
 728 1178 l 1
 801 1039 l 1
 430 1039 l 1
 430 578 l 1
 904 578 l 1
 904 437 l 1
 430 437 l 1
EndSplineSet
LCarets2: 1 0
Ligature2: "'half' Half Forms lookup 2-1" u092E u094D
EndChar

StartChar: u092E.half.vatu
Encoding: 320 -1 276
Width: 764
VWidth: 1596
GlyphClass: 3
Flags: HW
HStem: 1039 138<-82 295 432 727>
VStem: 295 137<578 1039>
LayerCount: 2
Fore
SplineSet
847 339 m 1
 308 -19 l 1
 237 100 l 1
 842 453 l 1
 847 339 l 1
EndSplineSet
Refer: 274 -1 N 1 0 0 1 0 0 2
EndChar

StartChar: u097A
Encoding: 206 2426 279
Width: 1132
VWidth: 1596
GlyphClass: 2
Flags: HW
HStem: 273 103<397 655> 1039 138<209 321 429 710> 1157 20<836 887>
VStem: 369 151<733 967> 830 138<0 1039>
LayerCount: 2
Fore
SplineSet
781 406 m 1x98
 739 482 638 605 467 726 c 1
 492 738 l 1
 696 658 832 559 895 493 c 1
 852 464 825 443 781 406 c 1x98
EndSplineSet
Refer: 280 2351 N 1 0 0 1 0 0 2
EndChar

StartChar: u092F.half
Encoding: 322 -1 281
Width: 817
VWidth: 1596
GlyphClass: 3
Flags: HW
HStem: 273 103<429 688> 1039 138<242 354 462 742>
VStem: 401 151<733 967>
AnchorPoint: "blwm" 560 151 basechar 0
LayerCount: 2
Fore
SplineSet
466 377 m 0
 551 377 754 454 928 623 c 1
 928 425 l 1
 813 325 744 273 633 273 c 0
 416 273 172 439 125 639 c 1
 283 671 401 711 401 846 c 0
 401 905 391 945 325 1039 c 1
 242 1039 l 1
 170 1178 l 1
 742 1178 l 1
 814 1039 l 1
 462 1039 l 1
 511 969 552 901 552 803 c 0
 552 703 474 608 271 530 c 1
 294 393 404 377 466 377 c 0
EndSplineSet
LCarets2: 1 0
Ligature2: "'half' Half Forms lookup 2-1" u092F u094D
EndChar

StartChar: u092F.half.vatu
Encoding: 324 -1 283
Width: 788
VWidth: 1596
GlyphClass: 3
Flags: HW
VStem: 424 123<792 989>
LayerCount: 2
Fore
SplineSet
888 435 m 1
 888 612 l 1
 714 443 546 396 461 396 c 0
 398 396 285 426 285 581 c 1
 474 654 547 733 547 833 c 0
 547 892 522 961 473 1039 c 1
 774 1039 l 1
 702 1178 l 1
 133 1178 l 1
 205 1039 l 1
 364 1039 l 1
 404 981 424 933 424 895 c 0
 424 792 324 720 123 680 c 1
 168 492 311 320 493 290 c 1
 214 105 l 1
 295 0 l 1
 888 435 l 1
EndSplineSet
EndChar

StartChar: u092F.half.alt
Encoding: 326 -1 285
Width: 1239
VWidth: 1596
GlyphClass: 3
Flags: HW
HStem: 46 89<819 1072> 652 134<124 839> 1039 138<-85 1160>
VStem: 924 91<448 595>
LayerCount: 2
Fore
SplineSet
1245 1039 m 1
 315 1039 l 5
 247 1178 l 5
 1160 1178 l 1
 1245 1039 l 1
924 135 m 0
 1049 135 1208 256 1266 348 c 1
 1264 145 l 1
 1175 78 1080 46 982 46 c 0
 779 46 619 193 581 381 c 1
 681 381 924 406 924 520 c 0
 924 579 871 652 569 652 c 2
 124 652 l 1
 124 786 l 1
 551 786 l 2
 936 786 1015 635 1015 520 c 0
 1015 468 994 316 778 278 c 1
 793 182 837 135 924 135 c 0
EndSplineSet
EndChar

StartChar: u0930_u094D_u200D
Encoding: 327 -1 286
Width: 667
VWidth: 1596
GlyphClass: 3
Flags: HW
HStem: 559 118<272 680> 1039 138<0 660>
LayerCount: 2
Fore
SplineSet
732 1039 m 1
 0 1039 l 1
 -72 1178 l 1
 660 1178 l 1
 732 1039 l 1
521 677 m 0
 589 677 640 684 675 697 c 1
 700 589 l 1
 626 569 558 559 492 559 c 0
 302 559 80 648 -14 740 c 1
 26 812 l 1
 158 722 323 677 521 677 c 0
EndSplineSet
EndChar

StartChar: u0930
Encoding: 143 2352 287
Width: 854
VWidth: 1596
GlyphClass: 2
Flags: HW
HStem: 1039 138<190 307 453 485>
VStem: 311 144<603 1039>
AnchorPoint: "N" 288 0 basechar 0
AnchorPoint: "abvm" 373 1171 basechar 0
AnchorPoint: "blwm" 675 -28 basechar 0
LayerCount: 2
Fore
SplineSet
453 1039 m 1
 455 947 456 876 456 827 c 0
 456 563 429 446 289 377 c 1
 305 346 594 70 690 -10 c 1
 630 -72 l 1
 126 408 92 465 92 570 c 0
 92 594 110 640 164 640 c 0
 177 640 251 619 280 601 c 1
 306 601 311 752 311 847 c 0
 311 920 308 984 303 1039 c 1
 190 1039 l 1
 119 1178 l 1
 485 1178 l 1
 554 1039 l 1
 453 1039 l 1
EndSplineSet
EndChar

StartChar: u0930_u0941
Encoding: 328 -1 289
Width: 1169
VWidth: 1596
GlyphClass: 3
Flags: HW
HStem: 684 119<643 841> 1039 138<0 398 544 1172>
VStem: 402 143<748 1039> 897 66<429 648>
LayerCount: 2
Fore
SplineSet
531 575 m 1
 513 480 461 423 379 385 c 1
 395 346 729 34 780 -2 c 1
 721 -72 l 1
 218 437 202 482 202 579 c 1
 202 601 211 645 267 645 c 0
 280 645 342 619 371 601 c 1
 397 601 402 752 402 847 c 0
 402 920 399 984 394 1039 c 1
 321 1039 l 1
 249 1178 l 1
 776 1178 l 1
 845 1039 l 1
 544 1039 l 1
 546 977 546 904 546 822 c 0
 546 788 546 762 545 744 c 1
 611 783 651 803 707 803 c 0
 848 803 963 678 963 495 c 0
 963 366 916 224 853 141 c 1
 710 201 l 1
 799 289 897 448 897 554 c 0
 897 617 873 684 779 684 c 0
 707 684 557 595 531 575 c 1
EndSplineSet
LCarets2: 1 0
Ligature2: "'blws' ru ruu and hR-1" u0930 u0941
EndChar

StartChar: u0930_u0942
Encoding: 329 -1 290
Width: 1492
VWidth: 1596
GlyphClass: 3
Flags: HW
HStem: 369 135<640 892> 792 113<660 916>
VStem: 393 144<605 1039> 536 71<546 730> 1190 98<260 366>
LayerCount: 2
Fore
SplineSet
807 904 m 0xd8
 1007 904 1166 711 1288 266 c 1
 1190 222 l 1
 1166 341 1041 792 790 792 c 0
 680 792 606 718 606 647 c 0
 606 605 631 504 729 504 c 0
 767 504 810 519 859 549 c 1
 953 427 l 1
 892 386 832 369 778 369 c 0
 639 369 536 486 536 632 c 0
 536 750 620 904 807 904 c 0xd8
535 1039 m 1
 1041 1039 l 1
 973 1178 l 1
 230 1178 l 1
 302 1039 l 1
 385 1039 l 1
 390 984 393 920 393 847 c 0
 393 752 387 601 361 601 c 1
 332 619 285 634 272 634 c 0
 218 634 207 597 207 553 c 0
 207 462 233 401 712 -72 c 1
 773 -7 l 1
 695 50 385 355 369 389 c 1
 509 458 538 563 538 827 c 0xe8
 538 876 537 947 535 1039 c 1
EndSplineSet
LCarets2: 1 0
Ligature2: "'blws' ru ruu and hR-1" u0930 u0942
EndChar

StartChar: u0932.half
Encoding: 330 -1 292
Width: 1086
VWidth: 1596
GlyphClass: 3
Flags: HW
HStem: 731 128<353 581> 764 94<915 1101> 1039 138<316 1115>
VStem: 127 130<310 631>
AnchorPoint: "blwm" 1037 -82 basechar 0
LayerCount: 2
Fore
SplineSet
1191 1039 m 1x30
 316 1039 l 5
 245 1178 l 5
 1115 1178 l 1
 1191 1039 l 1x30
1127 816 m 1
 1127 682 l 1
 1096 738 1059 764 1017 764 c 0x70
 917 764 797 620 714 407 c 1
 582 478 l 1
 652 617 l 1
 621 683 547 731 476 731 c 0
 337 731 257 604 257 469 c 0
 257 298 375 117 580 0 c 1
 547 -65 l 1
 217 107 127 350 127 510 c 0
 127 649 204 859 437 859 c 0xb0
 525 859 652 798 700 681 c 1
 771 796 859 858 965 858 c 0x70
 1024 858 1082 843 1127 816 c 1
EndSplineSet
LCarets2: 1 0
Ligature2: "'half' Half Forms lookup 2-1" u0932 u094D
EndChar

StartChar: u0933.half
Encoding: 331 -1 293
Width: 1543
VWidth: 1596
GlyphClass: 3
Flags: HW
HStem: 67 116<317 556> 82 122<911 1143> 657 130<386 627> 694 113<1015 1232> 1039 138<-82 1614>
VStem: 122 128<263 520> 1289 123<353 618>
AnchorPoint: "blwm" 1052 -95 basechar 0
LayerCount: 2
Fore
SplineSet
1328 1039 m 1x0e
 401 1039 l 1
 330 1178 l 1
 1245 1178 l 1
 1328 1039 l 1x0e
1412 427 m 0
 1412 295 1277 82 1071 82 c 0x5e
 970 82 869 135 771 239 c 1
 705 147 635 67 473 67 c 0
 326 67 122 205 122 434 c 0
 122 623 291 787 472 787 c 0xae
 591 787 695 718 770 596 c 1
 856 771 992 807 1076 807 c 0x1e
 1237 807 1412 672 1412 427 c 0
1002 204 m 0
 1167 204 1289 363 1289 505 c 0
 1289 617 1211 694 1130 694 c 0
 937 694 822 347 810 309 c 1
 857 238 920 204 1002 204 c 0
250 367 m 0
 250 262 322 182 430 182 c 0
 492 182 629 210 741 524 c 1
 669 640 577 657 526 657 c 0xae
 387 657 250 532 250 367 c 0
EndSplineSet
LCarets2: 1 0
Ligature2: "'half' Half Forms lookup 2-1" u0933 u094D
EndChar

StartChar: u0933
Encoding: 146 2355 294
Width: 1631
VWidth: 1596
GlyphClass: 2
Flags: HW
HStem: 0 102<363 580> 1 118<939 1187> 608 119<426 663> 1039 138<570 1070 1225 1287>
VStem: 164 120<211 454> 1070 155<713 1039> 1354 113<311 545>
AnchorPoint: "N" 817 -128 basechar 0
AnchorPoint: "abvm" 1135 1175 basechar 0
AnchorPoint: "blwm" 1176 -13 basechar 0
LayerCount: 2
Fore
SplineSet
1205 640 m 0x7e
 1012 640 861 268 849 230 c 1
 907 143 978 120 1046 120 c 0
 1229 120 1354 325 1354 478 c 0
 1354 568 1313 640 1205 640 c 0x7e
783 457 m 1
 713 570 638 608 558 608 c 0
 418 608 284 454 284 299 c 0
 284 185 345 102 448 102 c 0xbe
 555 102 687 187 783 457 c 1
1070 724 m 1
 1070 1039 l 1
 570 1039 l 1
 499 1178 l 1
 1287 1178 l 1
 1359 1039 l 1
 1225 1039 l 1
 1225 717 l 1
 1376 674 1467 513 1467 372 c 0
 1467 180 1324 1 1097 1 c 0x7e
 999 1 890 51 813 171 c 1
 747 79 664 0 502 0 c 0
 355 0 164 167 164 396 c 0
 164 585 337 727 518 727 c 0
 637 727 749 640 824 518 c 1
 894 657 989 710 1070 724 c 1
EndSplineSet
EndChar

StartChar: u0935.half
Encoding: 332 -1 297
Width: 866
VWidth: 1596
GlyphClass: 3
Flags: HW
HStem: 213 99<337 640> 689 125<337 669> 1039 138<332 623>
VStem: 122 122<410 595>
AnchorPoint: "blwm" 573 123 basechar 0
LayerCount: 2
Fore
SplineSet
525 213 m 0
 313 213 122 373 122 560 c 0
 122 741 275 814 442 814 c 0
 580 814 728 764 803 685 c 1
 803 575 l 1
 713 688 586 689 492 689 c 0
 333 689 244 581 244 470 c 0
 244 372 312 312 460 312 c 0
 578 312 717 373 803 490 c 1
 803 331 l 1
 743 280 661 213 525 213 c 0
694 1039 m 1
 332 1039 l 1
 260 1178 l 1
 623 1178 l 1
 694 1039 l 1
EndSplineSet
LCarets2: 1 0
Ligature2: "'half' Half Forms lookup 2-1" u0935 u094D
EndChar

StartChar: u0936.half
Encoding: 333 -1 299
Width: 941
VWidth: 1596
GlyphClass: 3
Flags: HW
HStem: 598 75<489 630> 1039 138<389 584>
VStem: 212 132<782 996> 688 126<676 958>
AnchorPoint: "blwm" 683 -41 basechar 0
LayerCount: 2
Fore
SplineSet
251 1039 m 1
 323 1039 l 1
 251 1178 l 1
 584 1178 l 1
 655 1039 l 1
 720 1039 l 1
 763 987 814 890 814 767 c 0
 814 577 698 401 460 290 c 1
 751 5 l 1
 654 -75 l 1
 368 264 l 1
 361 263 353 263 346 263 c 0
 205 263 124 371 124 450 c 256
 124 486 158 542 215 542 c 0
 255 542 283 517 379 409 c 1
 487 438 577 510 630 598 c 1
 355 607 212 780 212 920 c 0
 212 965 225 1004 251 1039 c 1
498 1039 m 0
 406 1039 344 968 344 887 c 0
 344 802 420 682 667 673 c 1
 681 693 688 731 688 783 c 0
 688 905 637 1039 498 1039 c 0
EndSplineSet
LCarets2: 1 0
Ligature2: "'half' Half Forms lookup 2-1" u0936 u094D
EndChar

StartChar: u0936_u094D_u0935.half
Encoding: 335 -1 301
Width: 1118
VWidth: 1596
GlyphClass: 3
Flags: HW
HStem: -1 103<629 913> 428 103<683 928> 1064 85<507 716>
VStem: 323 138<820 1021> 469 124<141 344> 727 102<858 1045>
LayerCount: 2
Fore
SplineSet
694 688 m 1
 1105 447 l 1
 1105 130 l 1
 1009 43 908 -1 798 -1 c 0
 636 -1 469 87 469 282 c 0
 469 458 663 531 771 531 c 0
 783 531 800 529 819 525 c 1
 621 635 l 1
 250 459 l 1
 154 570 l 1
 486 716 l 1
 411 754 323 837 323 957 c 0
 323 1058 402 1149 565 1149 c 0
 743 1149 829 1029 829 893 c 0
 829 792 795 738 694 688 c 1
616 1064 m 0
 538 1064 461 1010 461 919 c 0
 461 858 495 805 563 761 c 1
 661 809 727 895 727 972 c 0
 727 1045 683 1064 616 1064 c 0
1095 340 m 1
 1016 389 941 428 839 428 c 0
 678 428 593 320 593 233 c 0
 593 150 665 102 756 102 c 0
 892 102 1017 201 1095 340 c 1
EndSplineSet
EndChar

StartChar: u0936.half.vatu
Encoding: 337 -1 303
Width: 1131
VWidth: 1596
GlyphClass: 3
Flags: HW
HStem: 1059 83<523 729>
VStem: 337 138<816 1015> 761 111<809 1012>
LayerCount: 2
Fore
SplineSet
748 672 m 1
 1186 505 l 1
 1184 389 l 1
 498 -72 l 1
 418 47 l 1
 1038 451 l 1
 681 607 l 1
 228 330 l 1
 154 442 l 1
 542 679 l 1
 400 755 337 858 337 948 c 0
 337 1054 426 1142 579 1142 c 0
 723 1142 871 1029 871 878 c 0
 871 794 830 742 748 672 c 1
475 924 m 0
 475 836 551 760 629 736 c 1
 688 767 761 837 761 922 c 0
 761 1006 725 1059 643 1059 c 0
 558 1059 475 1006 475 924 c 0
EndSplineSet
EndChar

StartChar: u0937.half
Encoding: 338 -1 305
Width: 704
VWidth: 1596
GlyphClass: 3
Flags: HW
HStem: 347 76<313 542> 1039 138<262 623>
VStem: 123 139<491 927>
AnchorPoint: "blwm" 519 218 basechar 0
LayerCount: 2
Fore
SplineSet
262 1039 m 1
 707 601 l 1
 707 433 l 1
 620 376 531 347 439 347 c 0
 186 347 123 548 123 653 c 2
 123 1039 l 1
 209 1039 l 1
 137 1178 l 1
 623 1178 l 1
 694 1039 l 1
 262 1039 l 1
262 927 m 1
 262 650 l 2
 262 446 345 423 401 423 c 0
 464 423 588 455 641 555 c 1
 262 927 l 1
EndSplineSet
LCarets2: 1 0
Ligature2: "'half' Half Forms lookup 2-1" u0937 u094D
EndChar

StartChar: u0938.half
Encoding: 339 -1 307
Width: 876
VWidth: 1596
GlyphClass: 3
Flags: HW
HStem: 442 114<512 771> 691 20G<873 955> 1039 138<237 321 465 791>
VStem: 324 143<601 1039>
AnchorPoint: "blwm" 683 -13 basechar 0
LayerCount: 2
Fore
SplineSet
954 712 m 1
 957 518 l 1
 873 466 731 442 642 442 c 0
 548 442 493 496 450 550 c 1
 411 413 356 395 289 379 c 1
 301 348 609 6 663 -26 c 1
 618 -72 l 1
 170 382 129 495 124 548 c 1
 123 567 l 1
 123 585 134 645 190 645 c 0
 203 645 263 619 292 601 c 1
 318 601 324 752 324 847 c 0
 324 920 322 984 317 1039 c 1
 237 1039 l 1
 165 1178 l 1
 791 1178 l 1
 862 1039 l 1
 465 1039 l 1
 467 973 467 914 467 861 c 1
 459 607 l 1
 480 588 522 556 598 556 c 0
 677 556 792 591 954 712 c 1
EndSplineSet
LCarets2: 1 0
Ligature2: "'half' Half Forms lookup 2-1" u0938 u094D
EndChar

StartChar: u0938.half.vatu
Encoding: 341 -1 309
Width: 964
VWidth: 1596
GlyphClass: 3
Flags: HW
HStem: 442 114<512 771> 691 20<873 955> 1039 138<-82 321 465 791>
VStem: 324 143<601 1039>
LayerCount: 2
Fore
SplineSet
1029 513 m 1
 618 200 l 1
 524 300 l 1
 1030 629 l 1
 1029 513 l 1
EndSplineSet
Refer: 307 -1 N 1 0 0 1 0 0 2
EndChar

